%TF.GenerationSoftware,KiCad,Pcbnew,8.0.6*%
%TF.CreationDate,2024-12-09T18:11:45+01:00*%
%TF.ProjectId,Xmas,586d6173-2e6b-4696-9361-645f70636258,rev?*%
%TF.SameCoordinates,Original*%
%TF.FileFunction,Copper,L1,Top*%
%TF.FilePolarity,Positive*%
%FSLAX46Y46*%
G04 Gerber Fmt 4.6, Leading zero omitted, Abs format (unit mm)*
G04 Created by KiCad (PCBNEW 8.0.6) date 2024-12-09 18:11:45*
%MOMM*%
%LPD*%
G01*
G04 APERTURE LIST*
G04 Aperture macros list*
%AMRotRect*
0 Rectangle, with rotation*
0 The origin of the aperture is its center*
0 $1 length*
0 $2 width*
0 $3 Rotation angle, in degrees counterclockwise*
0 Add horizontal line*
21,1,$1,$2,0,0,$3*%
G04 Aperture macros list end*
%TA.AperFunction,SMDPad,CuDef*%
%ADD10RotRect,1.100000X0.700000X300.000000*%
%TD*%
%TA.AperFunction,SMDPad,CuDef*%
%ADD11RotRect,0.700000X0.250000X300.000000*%
%TD*%
%TA.AperFunction,SMDPad,CuDef*%
%ADD12R,0.700000X0.700000*%
%TD*%
%TA.AperFunction,SMDPad,CuDef*%
%ADD13RotRect,1.100000X0.700000X60.000000*%
%TD*%
%TA.AperFunction,SMDPad,CuDef*%
%ADD14RotRect,0.700000X0.250000X60.000000*%
%TD*%
%TA.AperFunction,ComponentPad*%
%ADD15O,1.200000X2.000000*%
%TD*%
%TA.AperFunction,ComponentPad*%
%ADD16O,1.200000X2.300000*%
%TD*%
%TA.AperFunction,ViaPad*%
%ADD17C,0.600000*%
%TD*%
%TA.AperFunction,Conductor*%
%ADD18C,0.200000*%
%TD*%
%TA.AperFunction,Conductor*%
%ADD19C,0.350000*%
%TD*%
%TA.AperFunction,Conductor*%
%ADD20C,0.300000*%
%TD*%
G04 APERTURE END LIST*
D10*
%TO.P,SW1,1,SW1*%
%TO.N,GND*%
X147041025Y-113111250D03*
X148991025Y-116488750D03*
%TO.P,SW1,2,SW2*%
%TO.N,/BTN1*%
X145308975Y-114111250D03*
X147258975Y-117488750D03*
D11*
%TO.P,SW1,PAD,PAD*%
%TO.N,GND*%
X148449038Y-114550000D03*
X145850962Y-116050000D03*
%TD*%
D12*
%TO.P,LED6,1,DO*%
%TO.N,Net-(LED6-DO)*%
X144085000Y-89450000D03*
%TO.P,LED6,2,GND*%
%TO.N,GND*%
X144085000Y-90550000D03*
%TO.P,LED6,3,DI*%
%TO.N,Net-(LED5-DO)*%
X145915000Y-90550000D03*
%TO.P,LED6,4,VDD*%
%TO.N,WS_SUPPLY*%
X145915000Y-89450000D03*
%TD*%
%TO.P,LED5,1,DO*%
%TO.N,Net-(LED5-DO)*%
X129085000Y-89450000D03*
%TO.P,LED5,2,GND*%
%TO.N,GND*%
X129085000Y-90550000D03*
%TO.P,LED5,3,DI*%
%TO.N,Net-(LED4-DO)*%
X130915000Y-90550000D03*
%TO.P,LED5,4,VDD*%
%TO.N,WS_SUPPLY*%
X130915000Y-89450000D03*
%TD*%
%TO.P,LED8,1,DO*%
%TO.N,Net-(LED8-DO)*%
X104085000Y-109450000D03*
%TO.P,LED8,2,GND*%
%TO.N,GND*%
X104085000Y-110550000D03*
%TO.P,LED8,3,DI*%
%TO.N,Net-(LED7-DO)*%
X105915000Y-110550000D03*
%TO.P,LED8,4,VDD*%
%TO.N,WS_SUPPLY*%
X105915000Y-109450000D03*
%TD*%
%TO.P,LED11,1,DO*%
%TO.N,Net-(LED11-DO)*%
X144085000Y-99450000D03*
%TO.P,LED11,2,GND*%
%TO.N,GND*%
X144085000Y-100550000D03*
%TO.P,LED11,3,DI*%
%TO.N,Net-(LED10-DO)*%
X145915000Y-100550000D03*
%TO.P,LED11,4,VDD*%
%TO.N,WS_SUPPLY*%
X145915000Y-99450000D03*
%TD*%
%TO.P,LED12,1,DO*%
%TO.N,unconnected-(LED12-DO-Pad1)*%
X136585000Y-109450000D03*
%TO.P,LED12,2,GND*%
%TO.N,GND*%
X136585000Y-110550000D03*
%TO.P,LED12,3,DI*%
%TO.N,Net-(LED11-DO)*%
X138415000Y-110550000D03*
%TO.P,LED12,4,VDD*%
%TO.N,WS_SUPPLY*%
X138415000Y-109450000D03*
%TD*%
%TO.P,LED2,1,DO*%
%TO.N,Net-(LED2-DO)*%
X119085000Y-80450000D03*
%TO.P,LED2,2,GND*%
%TO.N,GND*%
X119085000Y-81550000D03*
%TO.P,LED2,3,DI*%
%TO.N,Net-(LED1-DO)*%
X120915000Y-81550000D03*
%TO.P,LED2,4,VDD*%
%TO.N,WS_SUPPLY*%
X120915000Y-80450000D03*
%TD*%
%TO.P,LED9,1,DO*%
%TO.N,Net-(LED10-DI)*%
X119085000Y-109450000D03*
%TO.P,LED9,2,GND*%
%TO.N,GND*%
X119085000Y-110550000D03*
%TO.P,LED9,3,DI*%
%TO.N,Net-(LED8-DO)*%
X120915000Y-110550000D03*
%TO.P,LED9,4,VDD*%
%TO.N,WS_SUPPLY*%
X120915000Y-109450000D03*
%TD*%
%TO.P,LED7,1,DO*%
%TO.N,Net-(LED7-DO)*%
X111585000Y-99450000D03*
%TO.P,LED7,2,GND*%
%TO.N,GND*%
X111585000Y-100550000D03*
%TO.P,LED7,3,DI*%
%TO.N,Net-(LED6-DO)*%
X113415000Y-100550000D03*
%TO.P,LED7,4,VDD*%
%TO.N,WS_SUPPLY*%
X113415000Y-99450000D03*
%TD*%
%TO.P,LED1,1,DO*%
%TO.N,Net-(LED1-DO)*%
X104085000Y-80450000D03*
%TO.P,LED1,2,GND*%
%TO.N,GND*%
X104085000Y-81550000D03*
%TO.P,LED1,3,DI*%
%TO.N,/DIN*%
X105915000Y-81550000D03*
%TO.P,LED1,4,VDD*%
%TO.N,WS_SUPPLY*%
X105915000Y-80450000D03*
%TD*%
D13*
%TO.P,SW2,1,SW1*%
%TO.N,GND*%
X101008975Y-116488750D03*
X102958975Y-113111250D03*
%TO.P,SW2,2,SW2*%
%TO.N,/BTN2*%
X102741025Y-117488750D03*
X104691025Y-114111250D03*
D14*
%TO.P,SW2,PAD,PAD*%
%TO.N,GND*%
X101550962Y-114550000D03*
X104149038Y-116050000D03*
%TD*%
D12*
%TO.P,LED10,1,DO*%
%TO.N,Net-(LED10-DO)*%
X129085000Y-99450000D03*
%TO.P,LED10,2,GND*%
%TO.N,GND*%
X129085000Y-100550000D03*
%TO.P,LED10,3,DI*%
%TO.N,Net-(LED10-DI)*%
X130915000Y-100550000D03*
%TO.P,LED10,4,VDD*%
%TO.N,WS_SUPPLY*%
X130915000Y-99450000D03*
%TD*%
%TO.P,LED3,1,DO*%
%TO.N,Net-(LED3-DO)*%
X111585000Y-89450000D03*
%TO.P,LED3,2,GND*%
%TO.N,GND*%
X111585000Y-90550000D03*
%TO.P,LED3,3,DI*%
%TO.N,Net-(LED2-DO)*%
X113415000Y-90550000D03*
%TO.P,LED3,4,VDD*%
%TO.N,WS_SUPPLY*%
X113415000Y-89450000D03*
%TD*%
%TO.P,LED4,1,DO*%
%TO.N,Net-(LED4-DO)*%
X136585000Y-80450000D03*
%TO.P,LED4,2,GND*%
%TO.N,GND*%
X136585000Y-81550000D03*
%TO.P,LED4,3,DI*%
%TO.N,Net-(LED3-DO)*%
X138415000Y-81550000D03*
%TO.P,LED4,4,VDD*%
%TO.N,WS_SUPPLY*%
X138415000Y-80450000D03*
%TD*%
D15*
%TO.P,CONN2,SH,SHIELD*%
%TO.N,GND*%
X134835000Y-110300000D03*
D16*
X134835000Y-106120000D03*
D15*
X126185000Y-110300000D03*
D16*
X126185000Y-106120000D03*
%TD*%
D17*
%TO.N,/DIN*%
X108400000Y-81550000D03*
%TO.N,WS_SUPPLY*%
X121615000Y-109450000D03*
X137400000Y-93325000D03*
X119750000Y-96700000D03*
X121525000Y-79525000D03*
X106550000Y-109450000D03*
X130125000Y-97775000D03*
X114325000Y-89450000D03*
X105525000Y-96700000D03*
X126475000Y-78500000D03*
X147150000Y-89450000D03*
X114600000Y-99450000D03*
X139800000Y-109450000D03*
X107200000Y-80450000D03*
X147075000Y-99450000D03*
%TO.N,VDD*%
X117050000Y-77850000D03*
X110800000Y-77000000D03*
%TO.N,/BTN1*%
X125830000Y-86960000D03*
X125900000Y-90550000D03*
X143711250Y-114111250D03*
%TO.N,VUSB*%
X143425000Y-103675000D03*
X139475000Y-105800000D03*
%TO.N,GND*%
X132175000Y-85575000D03*
X139500000Y-104600000D03*
X143200000Y-84300000D03*
X109800000Y-90600000D03*
X116600000Y-99400000D03*
X131500000Y-88050000D03*
X104800000Y-104400000D03*
X103000000Y-96400000D03*
X144100000Y-84300000D03*
X140500000Y-79900000D03*
X141000000Y-100750000D03*
X110000000Y-86100000D03*
X139900000Y-82800000D03*
X113200000Y-76800000D03*
X123900000Y-80850000D03*
X107400000Y-84200000D03*
X103000000Y-93800000D03*
X102150000Y-78500000D03*
X111200000Y-86000000D03*
X117900000Y-110500000D03*
X131225000Y-85575000D03*
X147475000Y-97475000D03*
X118025000Y-79950000D03*
X136700000Y-82800000D03*
X116275000Y-79950000D03*
X112525000Y-83650000D03*
X147000000Y-84300000D03*
X121350000Y-85775000D03*
X130775000Y-77475000D03*
X115800000Y-99400000D03*
X140250000Y-100750000D03*
X109900000Y-84000000D03*
X116500000Y-87000000D03*
X117100000Y-79950000D03*
X145000000Y-84300000D03*
X145575000Y-97925000D03*
X116175000Y-110800000D03*
X139470000Y-107010000D03*
X121400000Y-87100000D03*
X104800000Y-105600000D03*
X107400000Y-85100000D03*
X110375000Y-111250000D03*
X138800000Y-82800000D03*
X137700000Y-82800000D03*
X122200000Y-111400000D03*
X104750000Y-75800000D03*
X122600000Y-96000000D03*
X111600000Y-83625000D03*
X140300000Y-87500000D03*
X121600000Y-96000000D03*
X108400000Y-80100000D03*
X111650000Y-82800000D03*
X110800000Y-84700000D03*
X146100000Y-74900000D03*
X127150000Y-103650000D03*
X104800000Y-103200000D03*
X108525000Y-108800000D03*
X147100000Y-74900000D03*
X103400000Y-81600000D03*
X137680000Y-107260000D03*
X103000000Y-92200000D03*
X131700000Y-97700000D03*
X143000000Y-98500000D03*
X110600000Y-90600000D03*
X123800000Y-96000000D03*
X101500000Y-117400000D03*
X148100000Y-74900000D03*
X127250000Y-108050000D03*
X126100000Y-103650000D03*
X115400000Y-87000000D03*
X122175000Y-85775000D03*
X143600000Y-108800000D03*
X118250000Y-81550000D03*
X140050000Y-94900000D03*
X128800000Y-101300000D03*
X132000000Y-107200000D03*
X135550000Y-77500000D03*
X112600000Y-80800000D03*
X102550000Y-75800000D03*
X116600000Y-99400000D03*
X129100000Y-91450000D03*
X112550000Y-82825000D03*
X104900000Y-110300000D03*
X129200000Y-82700000D03*
X140500000Y-79200000D03*
X117400000Y-87000000D03*
X110400000Y-100550000D03*
X122200000Y-87100000D03*
X108525000Y-107300000D03*
X143000000Y-91150000D03*
X109900000Y-83100000D03*
X143000000Y-97600000D03*
X138300000Y-76900000D03*
%TO.N,/BTN2*%
X105938749Y-114111251D03*
%TO.N,Net-(LED3-DO)*%
X112500000Y-89450000D03*
X140300000Y-81500000D03*
%TO.N,/BUZZER*%
X112600000Y-88450000D03*
X112575000Y-86025000D03*
%TO.N,Net-(LED6-DO)*%
X114600000Y-100600000D03*
X144085000Y-88415000D03*
%TO.N,Net-(LED10-DI)*%
X117850000Y-109450000D03*
X132250000Y-100600000D03*
%TD*%
D18*
%TO.N,/DIN*%
X105915000Y-81550000D02*
X108000000Y-81550000D01*
X108000000Y-81550000D02*
X108400000Y-81550000D01*
D19*
%TO.N,WS_SUPPLY*%
X137400000Y-93325000D02*
X135140000Y-93325000D01*
X110450000Y-96700000D02*
X119750000Y-96700000D01*
X145915000Y-99450000D02*
X147075000Y-99450000D01*
X106650000Y-80450000D02*
X107200000Y-80450000D01*
X145915000Y-89450000D02*
X147150000Y-89450000D01*
X130125000Y-98660000D02*
X130915000Y-99450000D01*
X105915000Y-109450000D02*
X106550000Y-109450000D01*
X145915000Y-89450000D02*
X145365000Y-89450000D01*
X113415000Y-99450000D02*
X114600000Y-99450000D01*
X144810000Y-91515000D02*
X143000000Y-93325000D01*
X130125000Y-97775000D02*
X130125000Y-98660000D01*
X147675000Y-87690000D02*
X145915000Y-89450000D01*
D20*
X138415000Y-109450000D02*
X139800000Y-109450000D01*
D19*
X138415000Y-79740000D02*
X138415000Y-80450000D01*
X146825000Y-78500000D02*
X147675000Y-79350000D01*
X105915000Y-80450000D02*
X106650000Y-80450000D01*
X145365000Y-89450000D02*
X144810000Y-90005000D01*
X119750000Y-96700000D02*
X119825000Y-96700000D01*
X106650000Y-80450000D02*
X106650000Y-79725000D01*
X107382500Y-78992500D02*
X120675000Y-78992500D01*
X120915000Y-79232500D02*
X120915000Y-79525000D01*
X131265000Y-89450000D02*
X130915000Y-89450000D01*
X137175000Y-78500000D02*
X138415000Y-79740000D01*
X113415000Y-99450000D02*
X110665000Y-96700000D01*
X120915000Y-79525000D02*
X120915000Y-80450000D01*
X120675000Y-78992500D02*
X120915000Y-79232500D01*
X126475000Y-78500000D02*
X137175000Y-78500000D01*
X120915000Y-79525000D02*
X121525000Y-79525000D01*
X144810000Y-90005000D02*
X144810000Y-91515000D01*
X147675000Y-79350000D02*
X147675000Y-87690000D01*
X110450000Y-96700000D02*
X105525000Y-96700000D01*
X110665000Y-96700000D02*
X110450000Y-96700000D01*
X106650000Y-79725000D02*
X107382500Y-78992500D01*
X121615000Y-109450000D02*
X120915000Y-109450000D01*
X143000000Y-93325000D02*
X137400000Y-93325000D01*
X135140000Y-93325000D02*
X131265000Y-89450000D01*
X137175000Y-78500000D02*
X146825000Y-78500000D01*
X113415000Y-89450000D02*
X114325000Y-89450000D01*
D20*
%TO.N,VDD*%
X111650000Y-77850000D02*
X110800000Y-77000000D01*
X117050000Y-77850000D02*
X111650000Y-77850000D01*
D18*
%TO.N,/BTN1*%
X126570000Y-90130000D02*
X126150000Y-90550000D01*
X126150000Y-90550000D02*
X125900000Y-90550000D01*
X147258975Y-116061250D02*
X147258975Y-117488750D01*
X126590000Y-90130000D02*
X126570000Y-90130000D01*
X125830000Y-86960000D02*
X126590000Y-87720000D01*
X145308975Y-114111250D02*
X143711250Y-114111250D01*
X126590000Y-87720000D02*
X126590000Y-90130000D01*
X145308975Y-114111250D02*
X147258975Y-116061250D01*
D20*
%TO.N,VUSB*%
X142825000Y-105800000D02*
X139475000Y-105800000D01*
X143425000Y-103675000D02*
X143425000Y-105200000D01*
X143425000Y-105200000D02*
X142825000Y-105800000D01*
D18*
%TO.N,GND*%
X104085000Y-81550000D02*
X103450000Y-81550000D01*
X119085000Y-110550000D02*
X117950000Y-110550000D01*
X129085000Y-91435000D02*
X129100000Y-91450000D01*
X104650000Y-110550000D02*
X104900000Y-110300000D01*
X143100000Y-90550000D02*
X144085000Y-90550000D01*
X117950000Y-110550000D02*
X117900000Y-110500000D01*
X104085000Y-110550000D02*
X104650000Y-110550000D01*
X111585000Y-100550000D02*
X110400000Y-100550000D01*
X102958975Y-114629774D02*
X101100000Y-116488749D01*
X129085000Y-90550000D02*
X129085000Y-91435000D01*
X102958975Y-113111251D02*
X102958975Y-114629774D01*
X143000000Y-90650000D02*
X143100000Y-90550000D01*
X119085000Y-81550000D02*
X118250000Y-81550000D01*
X143000000Y-91150000D02*
X143000000Y-90650000D01*
X103450000Y-81550000D02*
X103400000Y-81600000D01*
%TO.N,Net-(LED1-DO)*%
X121465000Y-81550000D02*
X120915000Y-81550000D01*
X106017500Y-78517500D02*
X121517500Y-78517500D01*
X104085000Y-80450000D02*
X106017500Y-78517500D01*
X122150000Y-79150000D02*
X122150000Y-80865000D01*
X122150000Y-80865000D02*
X121465000Y-81550000D01*
X121517500Y-78517500D02*
X122150000Y-79150000D01*
%TO.N,/BTN2*%
X102741025Y-116061251D02*
X104691025Y-114111251D01*
X102741025Y-117488749D02*
X102741025Y-116061251D01*
X104691025Y-114111251D02*
X105938749Y-114111251D01*
%TO.N,Net-(LED2-DO)*%
X117650000Y-81798529D02*
X118851471Y-83000000D01*
X118851471Y-83000000D02*
X123000000Y-83000000D01*
X118373529Y-80450000D02*
X117650000Y-81173529D01*
X122000000Y-93000000D02*
X114500000Y-93000000D01*
X117650000Y-81173529D02*
X117650000Y-81798529D01*
X119085000Y-80450000D02*
X118373529Y-80450000D01*
X123500000Y-91500000D02*
X122000000Y-93000000D01*
X123000000Y-83000000D02*
X123500000Y-83500000D01*
X114500000Y-93000000D02*
X113415000Y-91915000D01*
X123500000Y-83500000D02*
X123500000Y-91500000D01*
X113415000Y-91915000D02*
X113415000Y-90550000D01*
%TO.N,Net-(LED3-DO)*%
X138415000Y-81550000D02*
X140250000Y-81550000D01*
X140250000Y-81550000D02*
X140300000Y-81500000D01*
X111585000Y-89450000D02*
X112500000Y-89450000D01*
%TO.N,Net-(LED5-DO)*%
X145915000Y-90550000D02*
X145915000Y-93085000D01*
X128550000Y-89450000D02*
X129085000Y-89450000D01*
X145915000Y-93085000D02*
X145000000Y-94000000D01*
X145000000Y-94000000D02*
X128500000Y-94000000D01*
X128500000Y-94000000D02*
X128000000Y-93500000D01*
X128000000Y-93500000D02*
X128000000Y-90000000D01*
X128000000Y-90000000D02*
X128550000Y-89450000D01*
%TO.N,/BUZZER*%
X112600000Y-88450000D02*
X112575000Y-88425000D01*
X112575000Y-88425000D02*
X112575000Y-86025000D01*
%TO.N,Net-(LED6-DO)*%
X144085000Y-89450000D02*
X144085000Y-88415000D01*
X114600000Y-100600000D02*
X113465000Y-100600000D01*
X113465000Y-100600000D02*
X113415000Y-100550000D01*
%TO.N,Net-(LED7-DO)*%
X103500000Y-97500000D02*
X106500000Y-97500000D01*
X102500000Y-111400000D02*
X102500000Y-98500000D01*
X105700000Y-112100000D02*
X103200000Y-112100000D01*
X108450000Y-99450000D02*
X111585000Y-99450000D01*
X102500000Y-98500000D02*
X103500000Y-97500000D01*
X103200000Y-112100000D02*
X102500000Y-111400000D01*
X106500000Y-97500000D02*
X108450000Y-99450000D01*
X105915000Y-111885000D02*
X105700000Y-112100000D01*
X105915000Y-110550000D02*
X105915000Y-111885000D01*
%TO.N,Net-(LED4-DO)*%
X126950000Y-80560000D02*
X126950000Y-86880000D01*
X127870000Y-87800000D02*
X128735000Y-87800000D01*
X130365000Y-90550000D02*
X130915000Y-90550000D01*
X135320000Y-80450000D02*
X134030000Y-79160000D01*
X129760000Y-88825000D02*
X129760000Y-89945000D01*
X134030000Y-79160000D02*
X128350000Y-79160000D01*
X136585000Y-80450000D02*
X135320000Y-80450000D01*
X128735000Y-87800000D02*
X129760000Y-88825000D01*
X126950000Y-86880000D02*
X127870000Y-87800000D01*
X128350000Y-79160000D02*
X126950000Y-80560000D01*
X129760000Y-89945000D02*
X130365000Y-90550000D01*
%TO.N,Net-(LED8-DO)*%
X107000000Y-107500000D02*
X107500000Y-108000000D01*
X104085000Y-107915000D02*
X104500000Y-107500000D01*
X120915000Y-111460000D02*
X120915000Y-110550000D01*
X120425000Y-111950000D02*
X120915000Y-111460000D01*
X104085000Y-109450000D02*
X104085000Y-107915000D01*
X107500000Y-111500000D02*
X107950000Y-111950000D01*
X107950000Y-111950000D02*
X120425000Y-111950000D01*
X107500000Y-111500000D02*
X107500000Y-108000000D01*
X104500000Y-107500000D02*
X107000000Y-107500000D01*
%TO.N,Net-(LED10-DI)*%
X130965000Y-100600000D02*
X130915000Y-100550000D01*
X132250000Y-100600000D02*
X130965000Y-100600000D01*
X119085000Y-109450000D02*
X117850000Y-109450000D01*
%TO.N,Net-(LED10-DO)*%
X147450000Y-100550000D02*
X145915000Y-100550000D01*
X129085000Y-99450000D02*
X129085000Y-96915000D01*
X148500000Y-97000000D02*
X148500000Y-99500000D01*
X129500000Y-96500000D02*
X148000000Y-96500000D01*
X129085000Y-96915000D02*
X129500000Y-96500000D01*
X148000000Y-96500000D02*
X148500000Y-97000000D01*
X148500000Y-99500000D02*
X147450000Y-100550000D01*
%TO.N,Net-(LED11-DO)*%
X142000000Y-102000000D02*
X142000000Y-100000000D01*
X147850000Y-102850000D02*
X147500000Y-102500000D01*
X145900000Y-112000000D02*
X147850000Y-110050000D01*
X147850000Y-110050000D02*
X147850000Y-102850000D01*
X147500000Y-102500000D02*
X142500000Y-102500000D01*
X138415000Y-110550000D02*
X142500000Y-110550000D01*
X142550000Y-99450000D02*
X144085000Y-99450000D01*
X143950000Y-112000000D02*
X145900000Y-112000000D01*
X142500000Y-102500000D02*
X142000000Y-102000000D01*
X142000000Y-100000000D02*
X142550000Y-99450000D01*
X142500000Y-110550000D02*
X143950000Y-112000000D01*
%TD*%
%TA.AperFunction,Conductor*%
%TO.N,GND*%
G36*
X104204729Y-110320184D02*
G01*
X104225371Y-110336818D01*
X104919723Y-111031169D01*
X104962743Y-111021811D01*
X105032434Y-111026796D01*
X105088368Y-111068667D01*
X105105282Y-111099643D01*
X105121203Y-111142330D01*
X105207452Y-111257543D01*
X105207454Y-111257546D01*
X105232418Y-111276234D01*
X105274288Y-111332168D01*
X105279272Y-111401860D01*
X105245786Y-111463182D01*
X105184462Y-111496667D01*
X105158106Y-111499500D01*
X104695075Y-111499500D01*
X104628036Y-111479815D01*
X104582281Y-111427011D01*
X104577885Y-111396439D01*
X103819127Y-110637680D01*
X103785642Y-110576357D01*
X103790626Y-110506665D01*
X103819127Y-110462317D01*
X103944628Y-110336817D01*
X104005951Y-110303333D01*
X104032303Y-110300499D01*
X104137691Y-110300499D01*
X104204729Y-110320184D01*
G37*
%TD.AperFunction*%
%TA.AperFunction,Conductor*%
G36*
X129204729Y-90320184D02*
G01*
X129225371Y-90336818D01*
X129919722Y-91031168D01*
X129929306Y-91029084D01*
X129998998Y-91034068D01*
X130017660Y-91042861D01*
X130036271Y-91053606D01*
X130063733Y-91069461D01*
X130111949Y-91120028D01*
X130117913Y-91133509D01*
X130121203Y-91142329D01*
X130121207Y-91142336D01*
X130207452Y-91257544D01*
X130207455Y-91257547D01*
X130322664Y-91343793D01*
X130322671Y-91343797D01*
X130457517Y-91394091D01*
X130457516Y-91394091D01*
X130464444Y-91394835D01*
X130517127Y-91400500D01*
X131312872Y-91400499D01*
X131372483Y-91394091D01*
X131507331Y-91343796D01*
X131622546Y-91257546D01*
X131708796Y-91142331D01*
X131721026Y-91109538D01*
X131762894Y-91053606D01*
X131828358Y-91029187D01*
X131896631Y-91044037D01*
X131924889Y-91065190D01*
X134047518Y-93187819D01*
X134081003Y-93249142D01*
X134076019Y-93318834D01*
X134034147Y-93374767D01*
X133968683Y-93399184D01*
X133959837Y-93399500D01*
X128800098Y-93399500D01*
X128733059Y-93379815D01*
X128712417Y-93363181D01*
X128636819Y-93287583D01*
X128603334Y-93226260D01*
X128600500Y-93199902D01*
X128600500Y-91524000D01*
X128620185Y-91456961D01*
X128672989Y-91411206D01*
X128724500Y-91400000D01*
X129482828Y-91400000D01*
X129482844Y-91399999D01*
X129542372Y-91393598D01*
X129542378Y-91393597D01*
X129566168Y-91384723D01*
X129566168Y-91384722D01*
X128819127Y-90637680D01*
X128785642Y-90576357D01*
X128790626Y-90506665D01*
X128819127Y-90462317D01*
X128944628Y-90336817D01*
X129005951Y-90303333D01*
X129032305Y-90300499D01*
X129137690Y-90300499D01*
X129204729Y-90320184D01*
G37*
%TD.AperFunction*%
%TA.AperFunction,Conductor*%
G36*
X146560876Y-79195185D02*
G01*
X146581518Y-79211819D01*
X146963181Y-79593482D01*
X146996666Y-79654805D01*
X146999500Y-79681163D01*
X146999500Y-87358836D01*
X146979815Y-87425875D01*
X146963181Y-87446517D01*
X145846516Y-88563181D01*
X145785193Y-88596666D01*
X145758836Y-88599500D01*
X145517130Y-88599500D01*
X145517123Y-88599501D01*
X145457516Y-88605908D01*
X145322671Y-88656202D01*
X145322664Y-88656206D01*
X145207456Y-88742451D01*
X145207454Y-88742454D01*
X145184213Y-88773500D01*
X145182648Y-88775590D01*
X145130836Y-88815837D01*
X145081036Y-88836465D01*
X145081035Y-88836464D01*
X145045032Y-88851379D01*
X145045031Y-88851379D01*
X145028804Y-88862222D01*
X144962126Y-88883098D01*
X144894746Y-88864612D01*
X144860651Y-88833431D01*
X144850734Y-88820184D01*
X144849839Y-88818988D01*
X144825421Y-88753526D01*
X144832064Y-88703722D01*
X144870366Y-88594262D01*
X144870369Y-88594249D01*
X144890565Y-88415003D01*
X144890565Y-88414996D01*
X144870369Y-88235750D01*
X144870368Y-88235745D01*
X144849247Y-88175385D01*
X144810789Y-88065478D01*
X144714816Y-87912738D01*
X144587262Y-87785184D01*
X144547212Y-87760019D01*
X144434523Y-87689211D01*
X144264254Y-87629631D01*
X144264249Y-87629630D01*
X144085004Y-87609435D01*
X144084996Y-87609435D01*
X143905750Y-87629630D01*
X143905745Y-87629631D01*
X143735476Y-87689211D01*
X143582737Y-87785184D01*
X143455184Y-87912737D01*
X143359211Y-88065476D01*
X143299631Y-88235745D01*
X143299630Y-88235750D01*
X143279435Y-88414996D01*
X143279435Y-88415003D01*
X143299630Y-88594249D01*
X143299633Y-88594262D01*
X143337935Y-88703721D01*
X143341497Y-88773500D01*
X143320161Y-88818986D01*
X143291206Y-88857665D01*
X143291202Y-88857671D01*
X143240908Y-88992517D01*
X143234501Y-89052116D01*
X143234500Y-89052135D01*
X143234500Y-89847870D01*
X143234501Y-89847876D01*
X143240909Y-89907484D01*
X143259519Y-89957382D01*
X143264503Y-90027074D01*
X143259520Y-90044046D01*
X143241402Y-90092623D01*
X143241401Y-90092627D01*
X143235000Y-90152155D01*
X143235000Y-90947844D01*
X143241401Y-91007372D01*
X143241403Y-91007382D01*
X143250275Y-91031168D01*
X143250276Y-91031169D01*
X143922819Y-90358626D01*
X143984142Y-90325141D01*
X144053834Y-90330125D01*
X144109767Y-90371997D01*
X144134184Y-90437461D01*
X144134500Y-90446307D01*
X144134500Y-90802690D01*
X144114815Y-90869729D01*
X144098181Y-90890371D01*
X143603829Y-91384722D01*
X143603829Y-91384723D01*
X143627624Y-91393598D01*
X143684581Y-91399722D01*
X143749132Y-91426460D01*
X143788980Y-91483853D01*
X143791473Y-91553678D01*
X143759006Y-91610692D01*
X142756518Y-92613181D01*
X142695195Y-92646666D01*
X142668837Y-92649500D01*
X137865280Y-92649500D01*
X137799307Y-92630493D01*
X137749524Y-92599211D01*
X137579254Y-92539631D01*
X137579249Y-92539630D01*
X137400004Y-92519435D01*
X137399996Y-92519435D01*
X137220750Y-92539630D01*
X137220745Y-92539631D01*
X137050475Y-92599211D01*
X137000693Y-92630493D01*
X136934720Y-92649500D01*
X135471163Y-92649500D01*
X135404124Y-92629815D01*
X135383482Y-92613181D01*
X131775948Y-89005647D01*
X131747447Y-88961298D01*
X131708798Y-88857673D01*
X131708793Y-88857664D01*
X131622547Y-88742455D01*
X131622544Y-88742452D01*
X131507335Y-88656206D01*
X131507328Y-88656202D01*
X131372482Y-88605908D01*
X131372483Y-88605908D01*
X131312883Y-88599501D01*
X131312881Y-88599500D01*
X131312873Y-88599500D01*
X131312864Y-88599500D01*
X130517129Y-88599500D01*
X130517123Y-88599501D01*
X130457514Y-88605909D01*
X130448317Y-88609339D01*
X130378625Y-88614320D01*
X130317304Y-88580832D01*
X130297603Y-88555156D01*
X130282535Y-88529057D01*
X130240520Y-88456284D01*
X130128716Y-88344480D01*
X130128715Y-88344479D01*
X130124385Y-88340149D01*
X130124374Y-88340139D01*
X129222590Y-87438355D01*
X129222588Y-87438352D01*
X129103717Y-87319481D01*
X129103716Y-87319480D01*
X128999643Y-87259394D01*
X128999642Y-87259393D01*
X128966783Y-87240422D01*
X128910881Y-87225443D01*
X128814057Y-87199499D01*
X128655943Y-87199499D01*
X128648347Y-87199499D01*
X128648331Y-87199500D01*
X128170097Y-87199500D01*
X128103058Y-87179815D01*
X128082416Y-87163181D01*
X127586819Y-86667584D01*
X127553334Y-86606261D01*
X127550500Y-86579903D01*
X127550500Y-82384722D01*
X136103829Y-82384722D01*
X136103829Y-82384723D01*
X136127624Y-82393598D01*
X136187155Y-82399999D01*
X136187172Y-82400000D01*
X136982828Y-82400000D01*
X136982844Y-82399999D01*
X137042372Y-82393598D01*
X137042378Y-82393597D01*
X137066168Y-82384723D01*
X137066168Y-82384722D01*
X136585001Y-81903553D01*
X136585000Y-81903553D01*
X136103829Y-82384722D01*
X127550500Y-82384722D01*
X127550500Y-80860097D01*
X127570185Y-80793058D01*
X127586819Y-80772416D01*
X128562416Y-79796819D01*
X128623739Y-79763334D01*
X128650097Y-79760500D01*
X133729903Y-79760500D01*
X133796942Y-79780185D01*
X133817584Y-79796819D01*
X134835139Y-80814374D01*
X134835149Y-80814385D01*
X134839479Y-80818715D01*
X134839480Y-80818716D01*
X134951284Y-80930520D01*
X134951286Y-80930521D01*
X134951290Y-80930524D01*
X135067708Y-80997737D01*
X135088216Y-81009577D01*
X135200019Y-81039534D01*
X135240942Y-81050500D01*
X135240943Y-81050500D01*
X135611000Y-81050500D01*
X135678039Y-81070185D01*
X135723794Y-81122989D01*
X135735000Y-81174500D01*
X135735000Y-81947844D01*
X135741401Y-82007372D01*
X135741403Y-82007382D01*
X135750275Y-82031168D01*
X135750276Y-82031169D01*
X136444628Y-81336818D01*
X136505951Y-81303333D01*
X136532303Y-81300499D01*
X136637691Y-81300499D01*
X136704729Y-81320184D01*
X136725371Y-81336818D01*
X137419723Y-82031169D01*
X137462743Y-82021811D01*
X137532434Y-82026796D01*
X137588368Y-82068667D01*
X137605282Y-82099643D01*
X137621203Y-82142330D01*
X137621206Y-82142335D01*
X137707452Y-82257544D01*
X137707455Y-82257547D01*
X137822664Y-82343793D01*
X137822671Y-82343797D01*
X137957517Y-82394091D01*
X137957516Y-82394091D01*
X137964444Y-82394835D01*
X138017127Y-82400500D01*
X138812872Y-82400499D01*
X138872483Y-82394091D01*
X139007331Y-82343796D01*
X139122546Y-82257546D01*
X139164736Y-82201188D01*
X139165485Y-82200188D01*
X139221419Y-82158318D01*
X139264751Y-82150500D01*
X139794932Y-82150500D01*
X139860904Y-82169506D01*
X139950477Y-82225789D01*
X139950481Y-82225790D01*
X140120737Y-82285366D01*
X140120743Y-82285367D01*
X140120745Y-82285368D01*
X140120746Y-82285368D01*
X140120750Y-82285369D01*
X140299996Y-82305565D01*
X140300000Y-82305565D01*
X140300004Y-82305565D01*
X140479249Y-82285369D01*
X140479252Y-82285368D01*
X140479255Y-82285368D01*
X140649522Y-82225789D01*
X140802262Y-82129816D01*
X140929816Y-82002262D01*
X141025789Y-81849522D01*
X141085368Y-81679255D01*
X141085369Y-81679249D01*
X141105565Y-81500003D01*
X141105565Y-81499996D01*
X141085369Y-81320750D01*
X141085368Y-81320745D01*
X141058442Y-81243796D01*
X141025789Y-81150478D01*
X141008516Y-81122989D01*
X140986582Y-81088080D01*
X140929816Y-80997738D01*
X140802262Y-80870184D01*
X140766759Y-80847876D01*
X140649523Y-80774211D01*
X140479254Y-80714631D01*
X140479249Y-80714630D01*
X140300004Y-80694435D01*
X140299996Y-80694435D01*
X140120750Y-80714630D01*
X140120745Y-80714631D01*
X139950476Y-80774211D01*
X139797737Y-80870184D01*
X139754741Y-80913181D01*
X139693418Y-80946666D01*
X139667060Y-80949500D01*
X139389500Y-80949500D01*
X139322461Y-80929815D01*
X139276706Y-80877011D01*
X139265500Y-80825500D01*
X139265499Y-80052129D01*
X139265498Y-80052123D01*
X139265497Y-80052116D01*
X139259091Y-79992517D01*
X139250498Y-79969479D01*
X139208797Y-79857671D01*
X139208793Y-79857664D01*
X139117232Y-79735355D01*
X139119335Y-79733780D01*
X139092423Y-79684493D01*
X139091401Y-79677997D01*
X139083946Y-79640522D01*
X139083946Y-79640520D01*
X139064541Y-79542964D01*
X139013620Y-79420031D01*
X139013618Y-79420028D01*
X139013616Y-79420024D01*
X138979116Y-79368391D01*
X138958238Y-79301713D01*
X138976723Y-79234333D01*
X139028702Y-79187643D01*
X139082218Y-79175500D01*
X146493837Y-79175500D01*
X146560876Y-79195185D01*
G37*
%TD.AperFunction*%
%TA.AperFunction,Conductor*%
G36*
X119204729Y-81320184D02*
G01*
X119225371Y-81336818D01*
X119919723Y-82031169D01*
X119962743Y-82021811D01*
X120032434Y-82026796D01*
X120088368Y-82068667D01*
X120105282Y-82099643D01*
X120121203Y-82142330D01*
X120121204Y-82142331D01*
X120165265Y-82201189D01*
X120189683Y-82266652D01*
X120174832Y-82334925D01*
X120125427Y-82384331D01*
X120065999Y-82399500D01*
X119632308Y-82399500D01*
X119565269Y-82379815D01*
X119544627Y-82363181D01*
X118819127Y-81637680D01*
X118785642Y-81576357D01*
X118790626Y-81506665D01*
X118819127Y-81462317D01*
X118944628Y-81336817D01*
X119005951Y-81303333D01*
X119032303Y-81300499D01*
X119137691Y-81300499D01*
X119204729Y-81320184D01*
G37*
%TD.AperFunction*%
%TA.AperFunction,Conductor*%
G36*
X118517649Y-59662415D02*
G01*
X118935177Y-59694198D01*
X118945936Y-59695492D01*
X119359099Y-59763646D01*
X119369711Y-59765878D01*
X119460327Y-59789112D01*
X119775337Y-59869880D01*
X119785706Y-59873029D01*
X120180675Y-60012080D01*
X120190726Y-60016120D01*
X120572051Y-60189165D01*
X120581714Y-60194071D01*
X120674878Y-60246615D01*
X120946433Y-60399770D01*
X120955639Y-60405506D01*
X121060760Y-60477582D01*
X121301003Y-60642304D01*
X121309663Y-60648816D01*
X121633002Y-60914886D01*
X121641068Y-60922139D01*
X121939913Y-61215446D01*
X121947296Y-61223354D01*
X122219388Y-61541685D01*
X122226061Y-61550223D01*
X122469266Y-61891083D01*
X122475174Y-61900180D01*
X122687657Y-62260989D01*
X122692748Y-62270568D01*
X122872890Y-62648577D01*
X122877124Y-62658565D01*
X123023534Y-63050861D01*
X123026879Y-63061180D01*
X123138446Y-63464777D01*
X123140876Y-63475348D01*
X123209712Y-63848986D01*
X123209851Y-63850347D01*
X123211573Y-63859134D01*
X123211834Y-63860507D01*
X123217247Y-63889883D01*
X123218113Y-63895240D01*
X123223826Y-63936237D01*
X123224570Y-63937641D01*
X123226997Y-63942958D01*
X123228427Y-63945326D01*
X123231836Y-63951345D01*
X123265203Y-64014283D01*
X123265207Y-64014287D01*
X123330783Y-64073475D01*
X123353425Y-64082654D01*
X123412652Y-64106665D01*
X123475710Y-64108942D01*
X123500932Y-64109854D01*
X123500932Y-64109853D01*
X123500934Y-64109854D01*
X123584983Y-64082655D01*
X123654660Y-64028351D01*
X123701562Y-63953491D01*
X123701622Y-63953208D01*
X123705559Y-63938987D01*
X123706513Y-63936196D01*
X123706517Y-63936190D01*
X123709394Y-63917766D01*
X123710635Y-63911049D01*
X123720032Y-63867103D01*
X123720031Y-63867100D01*
X123720140Y-63866593D01*
X123722370Y-63847685D01*
X123792730Y-63498326D01*
X123795331Y-63487814D01*
X123907366Y-63107237D01*
X123910883Y-63096976D01*
X124032003Y-62788235D01*
X124055766Y-62727662D01*
X124060157Y-62717767D01*
X124236787Y-62362526D01*
X124242012Y-62353077D01*
X124449051Y-62014607D01*
X124455086Y-62005649D01*
X124690903Y-61686617D01*
X124697727Y-61678185D01*
X124960541Y-61380996D01*
X124968032Y-61373236D01*
X125255853Y-61100142D01*
X125264030Y-61093039D01*
X125309996Y-61056503D01*
X125574589Y-60846191D01*
X125583354Y-60839830D01*
X125914328Y-60621074D01*
X125923591Y-60615518D01*
X126272436Y-60426538D01*
X126282160Y-60421807D01*
X126646192Y-60264057D01*
X126656307Y-60260191D01*
X127032715Y-60134886D01*
X127043143Y-60131915D01*
X127346380Y-60059699D01*
X127429054Y-60040010D01*
X127439704Y-60037961D01*
X127832190Y-59980151D01*
X127842939Y-59979045D01*
X128238999Y-59955776D01*
X128249848Y-59955616D01*
X128646381Y-59967069D01*
X128657198Y-59967856D01*
X129051211Y-60013942D01*
X129061920Y-60015672D01*
X129450407Y-60096039D01*
X129460928Y-60098700D01*
X129840889Y-60212727D01*
X129851129Y-60216296D01*
X130219673Y-60363117D01*
X130229556Y-60367565D01*
X130513141Y-60510430D01*
X130583848Y-60546051D01*
X130593316Y-60551353D01*
X130750792Y-60648820D01*
X130930623Y-60760124D01*
X130939594Y-60766234D01*
X131257376Y-61003719D01*
X131265775Y-61010589D01*
X131561562Y-61274945D01*
X131569313Y-61282507D01*
X131661802Y-61381015D01*
X131840863Y-61571729D01*
X131847935Y-61579955D01*
X131895002Y-61639813D01*
X132056165Y-61844776D01*
X132078307Y-61888750D01*
X132240279Y-62481772D01*
X132241846Y-62488173D01*
X132385947Y-63152924D01*
X132387172Y-63159399D01*
X132495761Y-63830897D01*
X132496640Y-63837428D01*
X132569402Y-64513756D01*
X132569932Y-64520325D01*
X132606659Y-65199533D01*
X132606840Y-65206120D01*
X132607433Y-65886331D01*
X132607264Y-65892919D01*
X132571717Y-66572229D01*
X132571197Y-66578798D01*
X132499617Y-67255211D01*
X132498750Y-67261744D01*
X132391331Y-67933430D01*
X132390118Y-67939907D01*
X132247167Y-68604940D01*
X132245611Y-68611344D01*
X132067538Y-69267819D01*
X132065645Y-69274131D01*
X131852934Y-69920261D01*
X131850707Y-69926463D01*
X131603991Y-70560326D01*
X131601439Y-70566401D01*
X131321377Y-71186308D01*
X131318505Y-71192240D01*
X131005914Y-71796376D01*
X131002731Y-71802146D01*
X130658489Y-72388820D01*
X130655004Y-72394413D01*
X130280081Y-72961968D01*
X130276304Y-72967368D01*
X129871762Y-73514199D01*
X129867704Y-73519391D01*
X129434667Y-74043978D01*
X129430338Y-74048947D01*
X128970053Y-74549778D01*
X128965466Y-74554510D01*
X128479226Y-75030177D01*
X128474395Y-75034658D01*
X127963562Y-75483831D01*
X127958505Y-75488044D01*
X127726381Y-75671232D01*
X127424544Y-75909435D01*
X127419264Y-75913378D01*
X126884967Y-76290763D01*
X126864636Y-76302413D01*
X126856342Y-76306173D01*
X126856340Y-76306175D01*
X126849772Y-76312603D01*
X126831873Y-76327123D01*
X126824227Y-76332225D01*
X126824226Y-76332225D01*
X126816159Y-76343212D01*
X126802957Y-76358425D01*
X126793214Y-76367962D01*
X126793211Y-76367966D01*
X126789241Y-76376248D01*
X126777381Y-76396025D01*
X126771943Y-76403431D01*
X126771942Y-76403433D01*
X126768117Y-76416520D01*
X126760915Y-76435330D01*
X126755023Y-76447620D01*
X126755022Y-76447624D01*
X126754123Y-76456768D01*
X126749744Y-76479400D01*
X126747165Y-76488224D01*
X126747165Y-76488228D01*
X126748047Y-76501830D01*
X126747713Y-76521969D01*
X126746380Y-76535533D01*
X126746381Y-76535540D01*
X126748662Y-76544432D01*
X126752289Y-76567203D01*
X126752885Y-76576380D01*
X126752886Y-76576385D01*
X126758365Y-76588859D01*
X126764945Y-76607915D01*
X126768328Y-76621107D01*
X126768331Y-76621112D01*
X126773517Y-76628691D01*
X126784715Y-76648852D01*
X126788408Y-76657261D01*
X126797822Y-76667108D01*
X126810523Y-76682765D01*
X126818220Y-76694012D01*
X126825686Y-76699360D01*
X126843105Y-76714476D01*
X126849453Y-76721115D01*
X126849456Y-76721118D01*
X126861666Y-76727149D01*
X126878959Y-76737519D01*
X126890037Y-76745454D01*
X126898885Y-76747926D01*
X126920423Y-76756173D01*
X126928659Y-76760242D01*
X126942209Y-76761734D01*
X126961990Y-76765562D01*
X126975116Y-76769231D01*
X126975118Y-76769230D01*
X126975119Y-76769231D01*
X126984270Y-76768529D01*
X127007338Y-76768910D01*
X127016467Y-76769917D01*
X127026060Y-76767576D01*
X127029648Y-76766701D01*
X127049555Y-76763529D01*
X127727829Y-76711498D01*
X129119724Y-76571810D01*
X129142204Y-76569554D01*
X129142207Y-76569553D01*
X129142233Y-76569551D01*
X130552914Y-76394446D01*
X131959098Y-76186278D01*
X133360008Y-75945162D01*
X134754872Y-75671232D01*
X136142923Y-75364638D01*
X136142952Y-75364630D01*
X136142965Y-75364628D01*
X136721444Y-75222534D01*
X137523395Y-75025549D01*
X138895529Y-74654152D01*
X140258567Y-74250652D01*
X141611758Y-73815270D01*
X142954358Y-73348248D01*
X144285627Y-72849841D01*
X145604830Y-72320325D01*
X146911242Y-71759991D01*
X148204142Y-71169149D01*
X149482818Y-70548123D01*
X149568727Y-70503878D01*
X149637338Y-70490684D01*
X149702192Y-70516679D01*
X149742697Y-70573610D01*
X149749500Y-70614118D01*
X149749500Y-115639691D01*
X149729815Y-115706730D01*
X149677011Y-115752485D01*
X149607853Y-115762429D01*
X149544297Y-115733404D01*
X149518113Y-115701691D01*
X149478923Y-115633813D01*
X149478922Y-115633813D01*
X149167802Y-116794935D01*
X149167802Y-116794936D01*
X148941095Y-117641015D01*
X148974938Y-117645062D01*
X149116720Y-117621221D01*
X149116726Y-117621219D01*
X149171503Y-117596987D01*
X149563500Y-117370667D01*
X149631400Y-117354194D01*
X149697427Y-117377046D01*
X149740618Y-117431968D01*
X149749500Y-117478054D01*
X149749500Y-119337341D01*
X149729815Y-119404380D01*
X149677011Y-119450135D01*
X149607853Y-119460079D01*
X149561540Y-119443572D01*
X149549220Y-119436154D01*
X148370217Y-118770147D01*
X147926666Y-118535605D01*
X147876603Y-118486866D01*
X147860839Y-118418798D01*
X147884377Y-118353013D01*
X147922628Y-118318601D01*
X148128792Y-118199573D01*
X148177212Y-118164218D01*
X148268847Y-118053237D01*
X148325501Y-117920935D01*
X148342588Y-117778031D01*
X148320228Y-117645061D01*
X148318722Y-117636105D01*
X148318721Y-117636103D01*
X148318721Y-117636101D01*
X148294466Y-117581273D01*
X148055603Y-117167551D01*
X147876088Y-116856621D01*
X147859475Y-116794621D01*
X147859475Y-116691623D01*
X147879160Y-116624584D01*
X147931964Y-116578829D01*
X148001122Y-116568885D01*
X148064678Y-116597910D01*
X148090862Y-116629623D01*
X148503126Y-117343686D01*
X148814248Y-116182564D01*
X149040953Y-115336483D01*
X149040361Y-115335608D01*
X149019087Y-115269056D01*
X149037171Y-115201567D01*
X149066456Y-115169735D01*
X149066433Y-115169711D01*
X149066780Y-115169383D01*
X149069933Y-115165957D01*
X149072082Y-115164387D01*
X149163621Y-115053522D01*
X149220219Y-114921348D01*
X149224309Y-114887142D01*
X149224309Y-114887141D01*
X148537426Y-114703092D01*
X148353376Y-115389976D01*
X148378727Y-115400832D01*
X148432605Y-115445316D01*
X148453881Y-115511868D01*
X148435798Y-115579357D01*
X148391916Y-115622208D01*
X148121499Y-115778334D01*
X148121494Y-115778337D01*
X148073129Y-115813653D01*
X148073125Y-115813657D01*
X148030513Y-115865266D01*
X147972650Y-115904428D01*
X147902800Y-115906091D01*
X147843140Y-115869725D01*
X147820333Y-115833766D01*
X147818550Y-115829461D01*
X147739499Y-115692540D01*
X147739496Y-115692536D01*
X147739495Y-115692534D01*
X147627691Y-115580730D01*
X147627690Y-115580729D01*
X147623360Y-115576399D01*
X147623349Y-115576389D01*
X146523077Y-114476117D01*
X147690341Y-114476117D01*
X147708858Y-114517971D01*
X147708860Y-114517976D01*
X148106682Y-115207023D01*
X148133673Y-115243989D01*
X148295944Y-114638388D01*
X147690342Y-114476117D01*
X147690341Y-114476117D01*
X146523077Y-114476117D01*
X146508570Y-114461610D01*
X148602130Y-114461610D01*
X149207732Y-114623880D01*
X149189216Y-114582026D01*
X149189215Y-114582024D01*
X148791394Y-113892977D01*
X148791392Y-113892975D01*
X148764401Y-113856009D01*
X148602130Y-114461610D01*
X146508570Y-114461610D01*
X146409518Y-114362558D01*
X146376033Y-114301235D01*
X146374916Y-114295439D01*
X146369548Y-114263515D01*
X146991095Y-114263515D01*
X147024938Y-114267562D01*
X147166720Y-114243721D01*
X147166726Y-114243719D01*
X147221503Y-114219487D01*
X147491916Y-114063363D01*
X147559816Y-114046890D01*
X147625843Y-114069742D01*
X147669033Y-114124663D01*
X147677039Y-114185473D01*
X147673764Y-114212855D01*
X147673764Y-114212856D01*
X148360648Y-114396906D01*
X148544698Y-113710022D01*
X148544697Y-113710021D01*
X148513032Y-113696462D01*
X148513033Y-113696462D01*
X148370270Y-113679391D01*
X148370268Y-113679392D01*
X148228485Y-113703234D01*
X148228482Y-113703235D01*
X148226039Y-113704316D01*
X148223977Y-113704587D01*
X148221056Y-113705464D01*
X148220913Y-113704990D01*
X148156766Y-113713431D01*
X148093563Y-113683647D01*
X148064345Y-113645095D01*
X148063881Y-113644141D01*
X147217801Y-113417436D01*
X146991095Y-114263515D01*
X146369548Y-114263515D01*
X146368722Y-114258605D01*
X146368721Y-114258603D01*
X146368721Y-114258601D01*
X146344466Y-114203773D01*
X146165028Y-113892977D01*
X145746597Y-113168234D01*
X145746585Y-113168218D01*
X145711239Y-113119809D01*
X145711238Y-113119807D01*
X145694896Y-113106314D01*
X146056679Y-113106314D01*
X146553126Y-113966186D01*
X146734837Y-113288026D01*
X146056679Y-113106314D01*
X145694896Y-113106314D01*
X145600257Y-113028173D01*
X145600255Y-113028171D01*
X145467960Y-112971520D01*
X145467957Y-112971519D01*
X145325051Y-112954431D01*
X145325049Y-112954432D01*
X145183125Y-112978297D01*
X145128288Y-113002556D01*
X144439164Y-113400422D01*
X144390737Y-113435781D01*
X144390737Y-113435782D01*
X144374733Y-113455164D01*
X144316869Y-113494324D01*
X144247019Y-113495983D01*
X144213146Y-113481204D01*
X144060773Y-113385461D01*
X143890504Y-113325881D01*
X143890499Y-113325880D01*
X143711254Y-113305685D01*
X143711246Y-113305685D01*
X143532000Y-113325880D01*
X143531995Y-113325881D01*
X143361726Y-113385461D01*
X143208987Y-113481434D01*
X143081434Y-113608987D01*
X142985461Y-113761726D01*
X142925881Y-113931995D01*
X142925880Y-113932000D01*
X142905685Y-114111246D01*
X142905685Y-114111253D01*
X142925880Y-114290499D01*
X142925881Y-114290504D01*
X142985461Y-114460773D01*
X143061649Y-114582024D01*
X143081434Y-114613512D01*
X143208988Y-114741066D01*
X143361728Y-114837039D01*
X143504911Y-114887141D01*
X143531995Y-114896618D01*
X143532000Y-114896619D01*
X143711246Y-114916815D01*
X143711250Y-114916815D01*
X143711254Y-114916815D01*
X143890499Y-114896619D01*
X143890502Y-114896618D01*
X143890505Y-114896618D01*
X144060772Y-114837039D01*
X144213512Y-114741066D01*
X144213517Y-114741060D01*
X144216347Y-114738805D01*
X144218525Y-114737915D01*
X144219408Y-114737361D01*
X144219505Y-114737515D01*
X144281033Y-114712395D01*
X144293662Y-114711750D01*
X144602011Y-114711750D01*
X144669050Y-114731435D01*
X144709398Y-114773750D01*
X144871352Y-115054265D01*
X144906711Y-115102692D01*
X145017692Y-115194326D01*
X145017694Y-115194328D01*
X145149985Y-115250978D01*
X145149992Y-115250980D01*
X145149995Y-115250981D01*
X145149997Y-115250981D01*
X145152244Y-115251583D01*
X145154242Y-115252801D01*
X145158147Y-115254473D01*
X145157906Y-115255033D01*
X145211908Y-115287943D01*
X145242443Y-115350787D01*
X145234155Y-115420163D01*
X145215781Y-115450310D01*
X145136378Y-115546478D01*
X145136377Y-115546479D01*
X145079779Y-115678652D01*
X145075689Y-115712856D01*
X145075688Y-115712856D01*
X145762573Y-115896906D01*
X145762575Y-115896907D01*
X145884280Y-115929518D01*
X145943940Y-115965883D01*
X145974469Y-116028730D01*
X145971961Y-116081386D01*
X145755300Y-116889976D01*
X145786969Y-116903537D01*
X145929729Y-116920608D01*
X145929730Y-116920608D01*
X146052715Y-116899926D01*
X146122091Y-116908220D01*
X146175969Y-116952705D01*
X146197244Y-117019257D01*
X146193058Y-117054286D01*
X146192450Y-117056554D01*
X146175361Y-117199468D01*
X146175362Y-117199470D01*
X146199227Y-117341394D01*
X146223484Y-117396227D01*
X146238627Y-117422455D01*
X146255100Y-117490355D01*
X146232248Y-117556382D01*
X146177327Y-117599573D01*
X146107774Y-117606215D01*
X146076345Y-117595643D01*
X145958998Y-117537706D01*
X144728668Y-116972233D01*
X144728655Y-116972227D01*
X143483055Y-116441151D01*
X142302440Y-115976117D01*
X145092265Y-115976117D01*
X145110782Y-116017971D01*
X145110784Y-116017976D01*
X145508606Y-116707023D01*
X145535597Y-116743989D01*
X145697868Y-116138388D01*
X145092266Y-115976117D01*
X145092265Y-115976117D01*
X142302440Y-115976117D01*
X142223177Y-115944896D01*
X142223173Y-115944894D01*
X142223164Y-115944891D01*
X140949989Y-115483845D01*
X139664506Y-115058363D01*
X138367637Y-114668755D01*
X137060493Y-114315352D01*
X135744018Y-113998409D01*
X134419273Y-113718182D01*
X134419263Y-113718180D01*
X134419248Y-113718177D01*
X133087196Y-113474867D01*
X131748897Y-113268672D01*
X131748891Y-113268671D01*
X131748883Y-113268670D01*
X130405406Y-113099750D01*
X129954979Y-113055793D01*
X129057696Y-112968228D01*
X128572689Y-112934472D01*
X147347211Y-112934472D01*
X148025369Y-113116184D01*
X147528922Y-112256312D01*
X147347211Y-112934472D01*
X128572689Y-112934472D01*
X127706873Y-112874212D01*
X127706863Y-112874211D01*
X127706855Y-112874211D01*
X126353967Y-112817774D01*
X125000000Y-112798955D01*
X123646032Y-112817774D01*
X122293144Y-112874211D01*
X122293133Y-112874211D01*
X122293127Y-112874212D01*
X120942304Y-112968228D01*
X120344114Y-113026604D01*
X119594593Y-113099750D01*
X118251116Y-113268670D01*
X116912809Y-113474866D01*
X116797200Y-113495983D01*
X115580752Y-113718177D01*
X115580743Y-113718178D01*
X115580726Y-113718182D01*
X114255981Y-113998409D01*
X112939506Y-114315352D01*
X111632362Y-114668755D01*
X110335493Y-115058363D01*
X109050010Y-115483845D01*
X107776835Y-115944891D01*
X106516932Y-116441156D01*
X105271331Y-116972233D01*
X104040987Y-117537713D01*
X103923651Y-117595644D01*
X103854825Y-117607672D01*
X103790422Y-117580580D01*
X103750889Y-117522969D01*
X103748779Y-117453131D01*
X103761372Y-117422455D01*
X103776515Y-117396227D01*
X103800771Y-117341399D01*
X103824638Y-117199469D01*
X103807551Y-117056565D01*
X103807549Y-117056560D01*
X103806943Y-117054296D01*
X103806998Y-117051949D01*
X103806498Y-117047760D01*
X103807100Y-117047687D01*
X103808610Y-116984446D01*
X103847776Y-116926586D01*
X103912005Y-116899085D01*
X103947284Y-116899926D01*
X104070270Y-116920608D01*
X104213029Y-116903538D01*
X104213033Y-116903536D01*
X104244698Y-116889977D01*
X104244698Y-116889976D01*
X104043311Y-116138388D01*
X104302130Y-116138388D01*
X104464401Y-116743989D01*
X104491387Y-116707033D01*
X104491392Y-116707025D01*
X104889216Y-116017975D01*
X104889223Y-116017960D01*
X104907733Y-115976118D01*
X104907733Y-115976117D01*
X104302130Y-116138388D01*
X104043311Y-116138388D01*
X104028038Y-116081387D01*
X104029701Y-116011537D01*
X104068863Y-115953674D01*
X104115720Y-115929518D01*
X104237426Y-115896907D01*
X104924309Y-115712856D01*
X104920219Y-115678651D01*
X104863622Y-115546479D01*
X104784218Y-115450311D01*
X104756714Y-115386083D01*
X104768300Y-115317180D01*
X104815299Y-115265480D01*
X104847757Y-115251582D01*
X104849994Y-115250982D01*
X104850005Y-115250981D01*
X104850014Y-115250976D01*
X104850018Y-115250976D01*
X104952658Y-115207023D01*
X104982307Y-115194327D01*
X105093288Y-115102692D01*
X105128643Y-115054273D01*
X105278921Y-114793982D01*
X105329486Y-114745769D01*
X105398093Y-114732545D01*
X105452279Y-114750990D01*
X105589223Y-114837038D01*
X105589227Y-114837040D01*
X105732410Y-114887142D01*
X105759494Y-114896619D01*
X105759499Y-114896620D01*
X105938745Y-114916816D01*
X105938749Y-114916816D01*
X105938753Y-114916816D01*
X106117998Y-114896620D01*
X106118001Y-114896619D01*
X106118004Y-114896619D01*
X106288271Y-114837040D01*
X106441011Y-114741067D01*
X106568565Y-114613513D01*
X106664538Y-114460773D01*
X106724117Y-114290506D01*
X106726702Y-114267562D01*
X106744314Y-114111254D01*
X106744314Y-114111247D01*
X106724118Y-113932001D01*
X106724117Y-113931996D01*
X106710462Y-113892972D01*
X106664538Y-113761729D01*
X106637172Y-113718177D01*
X106612802Y-113679392D01*
X106568565Y-113608989D01*
X106441011Y-113481435D01*
X106368355Y-113435782D01*
X106288272Y-113385462D01*
X106118003Y-113325882D01*
X106117998Y-113325881D01*
X105938753Y-113305686D01*
X105938745Y-113305686D01*
X105759499Y-113325881D01*
X105759494Y-113325882D01*
X105609106Y-113378506D01*
X105539327Y-113382067D01*
X105506153Y-113368851D01*
X104871707Y-113002555D01*
X104871705Y-113002554D01*
X104871702Y-113002552D01*
X104816879Y-112978299D01*
X104816876Y-112978298D01*
X104674950Y-112954432D01*
X104674948Y-112954431D01*
X104532042Y-112971519D01*
X104532039Y-112971520D01*
X104399745Y-113028171D01*
X104288760Y-113119808D01*
X104288760Y-113119809D01*
X104253412Y-113168218D01*
X104253402Y-113168233D01*
X103655532Y-114203777D01*
X103631279Y-114258599D01*
X103631278Y-114258600D01*
X103625082Y-114295444D01*
X103594551Y-114358290D01*
X103590481Y-114362558D01*
X102372311Y-115580729D01*
X102260506Y-115692533D01*
X102260504Y-115692536D01*
X102248773Y-115712856D01*
X102210970Y-115778334D01*
X102210386Y-115779345D01*
X102210384Y-115779347D01*
X102181447Y-115829464D01*
X102179664Y-115833771D01*
X102135822Y-115888174D01*
X102069527Y-115910237D01*
X102001828Y-115892956D01*
X101969485Y-115865265D01*
X101926873Y-115813655D01*
X101926870Y-115813653D01*
X101878505Y-115778337D01*
X101878500Y-115778334D01*
X101608082Y-115622208D01*
X101559866Y-115571641D01*
X101546643Y-115503034D01*
X101572611Y-115438169D01*
X101621271Y-115400832D01*
X101646622Y-115389976D01*
X101462572Y-114703092D01*
X100775689Y-114887142D01*
X100779779Y-114921347D01*
X100836377Y-115053520D01*
X100836378Y-115053522D01*
X100927917Y-115164388D01*
X100930068Y-115165958D01*
X100931331Y-115167604D01*
X100933567Y-115169711D01*
X100933225Y-115170073D01*
X100972603Y-115221389D01*
X100978418Y-115291016D01*
X100959637Y-115335606D01*
X100959044Y-115336481D01*
X101185752Y-116182564D01*
X101496873Y-117343685D01*
X101909138Y-116629623D01*
X101959705Y-116581407D01*
X102028312Y-116568184D01*
X102093177Y-116594152D01*
X102133705Y-116651067D01*
X102140525Y-116691623D01*
X102140525Y-116794621D01*
X102123912Y-116856621D01*
X101705532Y-117581277D01*
X101681279Y-117636100D01*
X101681278Y-117636103D01*
X101657412Y-117778029D01*
X101657411Y-117778031D01*
X101674499Y-117920937D01*
X101674500Y-117920940D01*
X101731151Y-118053234D01*
X101822788Y-118164219D01*
X101871198Y-118199567D01*
X101871202Y-118199569D01*
X101871207Y-118199573D01*
X102022080Y-118286679D01*
X102077369Y-118318600D01*
X102125584Y-118369166D01*
X102138808Y-118437773D01*
X102112840Y-118502638D01*
X102073333Y-118535605D01*
X101629782Y-118770147D01*
X100450779Y-119436154D01*
X100438460Y-119443572D01*
X100370874Y-119461288D01*
X100304439Y-119439651D01*
X100260248Y-119385532D01*
X100250500Y-119337341D01*
X100250500Y-117478054D01*
X100270185Y-117411015D01*
X100322989Y-117365260D01*
X100392147Y-117355316D01*
X100436500Y-117370667D01*
X100828496Y-117596987D01*
X100883273Y-117621219D01*
X100883279Y-117621221D01*
X101025061Y-117645061D01*
X101058903Y-117641015D01*
X100832198Y-116794936D01*
X100521076Y-115633812D01*
X100481887Y-115701690D01*
X100431320Y-115749906D01*
X100362713Y-115763129D01*
X100297848Y-115737161D01*
X100257320Y-115680246D01*
X100250500Y-115639690D01*
X100250500Y-114638388D01*
X101704054Y-114638388D01*
X101866325Y-115243989D01*
X101893311Y-115207033D01*
X101893316Y-115207025D01*
X102291140Y-114517975D01*
X102291147Y-114517960D01*
X102309657Y-114476118D01*
X102309657Y-114476117D01*
X101704054Y-114638388D01*
X100250500Y-114638388D01*
X100250500Y-114623880D01*
X100792266Y-114623880D01*
X101397868Y-114461610D01*
X101235597Y-113856009D01*
X101208609Y-113892971D01*
X101208609Y-113892972D01*
X100810781Y-114582029D01*
X100792266Y-114623880D01*
X100250500Y-114623880D01*
X100250500Y-113710021D01*
X101455300Y-113710021D01*
X101639350Y-114396906D01*
X102326233Y-114212856D01*
X102322959Y-114185473D01*
X102334545Y-114116570D01*
X102381543Y-114064870D01*
X102449031Y-114046785D01*
X102508082Y-114063363D01*
X102778496Y-114219487D01*
X102833273Y-114243719D01*
X102833279Y-114243721D01*
X102975061Y-114267561D01*
X103008903Y-114263515D01*
X102782197Y-113417436D01*
X101936116Y-113644142D01*
X101935653Y-113645096D01*
X101888654Y-113696795D01*
X101821164Y-113714878D01*
X101778953Y-113705431D01*
X101778944Y-113705464D01*
X101778493Y-113705328D01*
X101773950Y-113704312D01*
X101771513Y-113703234D01*
X101629731Y-113679392D01*
X101629729Y-113679391D01*
X101486968Y-113696462D01*
X101455300Y-113710021D01*
X100250500Y-113710021D01*
X100250500Y-113288026D01*
X103265161Y-113288026D01*
X103446872Y-113966186D01*
X103943319Y-113106314D01*
X103265161Y-113288026D01*
X100250500Y-113288026D01*
X100250500Y-111479054D01*
X101899498Y-111479054D01*
X101940423Y-111631786D01*
X101952794Y-111653211D01*
X101952795Y-111653216D01*
X101952797Y-111653216D01*
X101998158Y-111731785D01*
X102019479Y-111768714D01*
X102019481Y-111768717D01*
X102138349Y-111887585D01*
X102138355Y-111887590D01*
X102416973Y-112166208D01*
X102450458Y-112227531D01*
X102445474Y-112297223D01*
X102436679Y-112315889D01*
X101974629Y-113116184D01*
X102652789Y-112934473D01*
X103510221Y-112704725D01*
X103542315Y-112700500D01*
X105613331Y-112700500D01*
X105613347Y-112700501D01*
X105620943Y-112700501D01*
X105779054Y-112700501D01*
X105779057Y-112700501D01*
X105931785Y-112659577D01*
X105981904Y-112630639D01*
X106068716Y-112580520D01*
X106180520Y-112468716D01*
X106180520Y-112468714D01*
X106190728Y-112458507D01*
X106190730Y-112458504D01*
X106283713Y-112365521D01*
X106283716Y-112365520D01*
X106395520Y-112253716D01*
X106445639Y-112166904D01*
X106474577Y-112116785D01*
X106515501Y-111964057D01*
X106515501Y-111805943D01*
X106515501Y-111798348D01*
X106515500Y-111798330D01*
X106515500Y-111399749D01*
X106535185Y-111332710D01*
X106565190Y-111300482D01*
X106585968Y-111284928D01*
X106622546Y-111257546D01*
X106676233Y-111185828D01*
X106732167Y-111143958D01*
X106801858Y-111138974D01*
X106863181Y-111172459D01*
X106896666Y-111233782D01*
X106899500Y-111260140D01*
X106899500Y-111413330D01*
X106899499Y-111413348D01*
X106899499Y-111579054D01*
X106899498Y-111579054D01*
X106899499Y-111579057D01*
X106940423Y-111731785D01*
X106964169Y-111772914D01*
X106969358Y-111781900D01*
X106969359Y-111781904D01*
X106969360Y-111781904D01*
X106996386Y-111828716D01*
X107019479Y-111868714D01*
X107019481Y-111868717D01*
X107138349Y-111987585D01*
X107138355Y-111987590D01*
X107465139Y-112314374D01*
X107465149Y-112314385D01*
X107469479Y-112318715D01*
X107469480Y-112318716D01*
X107581284Y-112430520D01*
X107647442Y-112468716D01*
X107703257Y-112500941D01*
X107718211Y-112509575D01*
X107718215Y-112509577D01*
X107870943Y-112550500D01*
X120338331Y-112550500D01*
X120338347Y-112550501D01*
X120345943Y-112550501D01*
X120504054Y-112550501D01*
X120504057Y-112550501D01*
X120656785Y-112509577D01*
X120727558Y-112468716D01*
X120793716Y-112430520D01*
X120905520Y-112318716D01*
X120905521Y-112318714D01*
X121395520Y-111828716D01*
X121474577Y-111691784D01*
X121515501Y-111539057D01*
X121515501Y-111399749D01*
X121535186Y-111332710D01*
X121565190Y-111300482D01*
X121622546Y-111257546D01*
X121708796Y-111142331D01*
X121759091Y-111007483D01*
X121765500Y-110947873D01*
X121765499Y-110333412D01*
X121785183Y-110266374D01*
X121837987Y-110220619D01*
X121848545Y-110216371D01*
X121928610Y-110188355D01*
X121964522Y-110175789D01*
X122117262Y-110079816D01*
X122244816Y-109952262D01*
X122332051Y-109813428D01*
X125085000Y-109813428D01*
X125085000Y-110786571D01*
X125112085Y-110957582D01*
X125127235Y-111004211D01*
X125831447Y-110300000D01*
X125831447Y-110299999D01*
X125127235Y-109595787D01*
X125112087Y-109642411D01*
X125112084Y-109642423D01*
X125085000Y-109813428D01*
X122332051Y-109813428D01*
X122340789Y-109799522D01*
X122400368Y-109629255D01*
X122420565Y-109450000D01*
X122400368Y-109270745D01*
X122356510Y-109145406D01*
X125383959Y-109145406D01*
X125974644Y-109736091D01*
X125944940Y-109765795D01*
X125905444Y-109834204D01*
X125885000Y-109910504D01*
X125885000Y-110689496D01*
X125905444Y-110765796D01*
X125944940Y-110834205D01*
X125974644Y-110863909D01*
X125383959Y-111454594D01*
X125468397Y-111539032D01*
X125608475Y-111640804D01*
X125762742Y-111719408D01*
X125927415Y-111772914D01*
X126098429Y-111800000D01*
X126271571Y-111800000D01*
X126442584Y-111772914D01*
X126607257Y-111719408D01*
X126761524Y-111640804D01*
X126901602Y-111539032D01*
X126986041Y-111454594D01*
X126395356Y-110863909D01*
X126425060Y-110834205D01*
X126464556Y-110765796D01*
X126485000Y-110689496D01*
X126485000Y-110299999D01*
X126538553Y-110299999D01*
X126538553Y-110300000D01*
X127242764Y-111004211D01*
X127257913Y-110957588D01*
X127257913Y-110957585D01*
X127285000Y-110786571D01*
X127285000Y-109813428D01*
X133735000Y-109813428D01*
X133735000Y-110786571D01*
X133762085Y-110957582D01*
X133777235Y-111004211D01*
X134481447Y-110300000D01*
X134481447Y-110299999D01*
X133777235Y-109595787D01*
X133762087Y-109642411D01*
X133762084Y-109642423D01*
X133735000Y-109813428D01*
X127285000Y-109813428D01*
X127257913Y-109642414D01*
X127242763Y-109595788D01*
X126538553Y-110299999D01*
X126485000Y-110299999D01*
X126485000Y-109910504D01*
X126464556Y-109834204D01*
X126425060Y-109765795D01*
X126395356Y-109736091D01*
X126986041Y-109145406D01*
X126901602Y-109060967D01*
X126761524Y-108959195D01*
X126607257Y-108880591D01*
X126442584Y-108827085D01*
X126271571Y-108800000D01*
X126098429Y-108800000D01*
X125927415Y-108827085D01*
X125762742Y-108880591D01*
X125608475Y-108959195D01*
X125468397Y-109060967D01*
X125383959Y-109145406D01*
X122356510Y-109145406D01*
X122340789Y-109100478D01*
X122244816Y-108947738D01*
X122117262Y-108820184D01*
X122107692Y-108814171D01*
X121964523Y-108724211D01*
X121794254Y-108664631D01*
X121794249Y-108664630D01*
X121615004Y-108644435D01*
X121615001Y-108644435D01*
X121615000Y-108644435D01*
X121537522Y-108653163D01*
X121480308Y-108646125D01*
X121372482Y-108605908D01*
X121372483Y-108605908D01*
X121312883Y-108599501D01*
X121312881Y-108599500D01*
X121312873Y-108599500D01*
X121312864Y-108599500D01*
X120517129Y-108599500D01*
X120517123Y-108599501D01*
X120457516Y-108605908D01*
X120322671Y-108656202D01*
X120322664Y-108656206D01*
X120207455Y-108742452D01*
X120207452Y-108742455D01*
X120121206Y-108857664D01*
X120121203Y-108857670D01*
X120116182Y-108871133D01*
X120074310Y-108927066D01*
X120008846Y-108951483D01*
X119940573Y-108936631D01*
X119891168Y-108887225D01*
X119883818Y-108871133D01*
X119881765Y-108865629D01*
X119878796Y-108857669D01*
X119878794Y-108857666D01*
X119878793Y-108857664D01*
X119792547Y-108742455D01*
X119792544Y-108742452D01*
X119677335Y-108656206D01*
X119677328Y-108656202D01*
X119542482Y-108605908D01*
X119542483Y-108605908D01*
X119482883Y-108599501D01*
X119482881Y-108599500D01*
X119482873Y-108599500D01*
X119482864Y-108599500D01*
X118687129Y-108599500D01*
X118687123Y-108599501D01*
X118627516Y-108605908D01*
X118492671Y-108656202D01*
X118492668Y-108656204D01*
X118377682Y-108742283D01*
X118312218Y-108766700D01*
X118243945Y-108751848D01*
X118237400Y-108748010D01*
X118199527Y-108724213D01*
X118199518Y-108724209D01*
X118029262Y-108664633D01*
X118029249Y-108664630D01*
X117850004Y-108644435D01*
X117849996Y-108644435D01*
X117670750Y-108664630D01*
X117670745Y-108664631D01*
X117500476Y-108724211D01*
X117347737Y-108820184D01*
X117220184Y-108947737D01*
X117124211Y-109100476D01*
X117064631Y-109270745D01*
X117064630Y-109270750D01*
X117044435Y-109449996D01*
X117044435Y-109450003D01*
X117064630Y-109629249D01*
X117064631Y-109629254D01*
X117124211Y-109799523D01*
X117192047Y-109907483D01*
X117220184Y-109952262D01*
X117347738Y-110079816D01*
X117500478Y-110175789D01*
X117536390Y-110188355D01*
X117670745Y-110235368D01*
X117670750Y-110235369D01*
X117849996Y-110255565D01*
X117850000Y-110255565D01*
X117850004Y-110255565D01*
X118029249Y-110235369D01*
X118029250Y-110235368D01*
X118029255Y-110235368D01*
X118070045Y-110221094D01*
X118139822Y-110217532D01*
X118200450Y-110252260D01*
X118232678Y-110314253D01*
X118235000Y-110338136D01*
X118235000Y-110947844D01*
X118241401Y-111007372D01*
X118241403Y-111007379D01*
X118291645Y-111142086D01*
X118291646Y-111142088D01*
X118298460Y-111151190D01*
X118322876Y-111216655D01*
X118308024Y-111284928D01*
X118258618Y-111334333D01*
X118199192Y-111349500D01*
X108250097Y-111349500D01*
X108183058Y-111329815D01*
X108162416Y-111313181D01*
X108136819Y-111287584D01*
X108103334Y-111226261D01*
X108100500Y-111199903D01*
X108100500Y-108089060D01*
X108100501Y-108089047D01*
X108100501Y-107920944D01*
X108077725Y-107835945D01*
X108059577Y-107768216D01*
X108010501Y-107683213D01*
X107980524Y-107631290D01*
X107980518Y-107631282D01*
X107368717Y-107019481D01*
X107368716Y-107019480D01*
X107281904Y-106969360D01*
X107281904Y-106969359D01*
X107281900Y-106969358D01*
X107231785Y-106940423D01*
X107079057Y-106899499D01*
X106920943Y-106899499D01*
X106913347Y-106899499D01*
X106913331Y-106899500D01*
X104586670Y-106899500D01*
X104586654Y-106899499D01*
X104579058Y-106899499D01*
X104420943Y-106899499D01*
X104344579Y-106919961D01*
X104268214Y-106940423D01*
X104268209Y-106940426D01*
X104131290Y-107019475D01*
X104131282Y-107019481D01*
X103709217Y-107441546D01*
X103709214Y-107441548D01*
X103709215Y-107441549D01*
X103604477Y-107546287D01*
X103585560Y-107579055D01*
X103585559Y-107579057D01*
X103525423Y-107683215D01*
X103484499Y-107835943D01*
X103484499Y-107835945D01*
X103484499Y-108004046D01*
X103484500Y-108004059D01*
X103484500Y-108600249D01*
X103464815Y-108667288D01*
X103434812Y-108699515D01*
X103377457Y-108742451D01*
X103377453Y-108742454D01*
X103323766Y-108814171D01*
X103267832Y-108856041D01*
X103198140Y-108861025D01*
X103136817Y-108827539D01*
X103103333Y-108766215D01*
X103100500Y-108739859D01*
X103100500Y-105483422D01*
X125085000Y-105483422D01*
X125085000Y-106756571D01*
X125100022Y-106851422D01*
X125100023Y-106851423D01*
X125831447Y-106120000D01*
X125100023Y-105388576D01*
X125100022Y-105388576D01*
X125085000Y-105483422D01*
X103100500Y-105483422D01*
X103100500Y-104896265D01*
X125314819Y-104896265D01*
X125314820Y-104896268D01*
X125898536Y-105479983D01*
X125885000Y-105530504D01*
X125885000Y-106709496D01*
X125898536Y-106760015D01*
X125314819Y-107343731D01*
X125345969Y-107386603D01*
X125345969Y-107386604D01*
X125468397Y-107509032D01*
X125608475Y-107610804D01*
X125762742Y-107689408D01*
X125927415Y-107742914D01*
X126098429Y-107770000D01*
X126271571Y-107770000D01*
X126442584Y-107742914D01*
X126607257Y-107689408D01*
X126761524Y-107610804D01*
X126901598Y-107509035D01*
X127024032Y-107386602D01*
X127055178Y-107343732D01*
X127055178Y-107343731D01*
X126471463Y-106760016D01*
X126485000Y-106709496D01*
X126485000Y-106119999D01*
X126538553Y-106119999D01*
X126538553Y-106120000D01*
X127038126Y-106619573D01*
X127070218Y-106675158D01*
X127092034Y-106756571D01*
X127107017Y-106812488D01*
X127179488Y-106938011D01*
X127179490Y-106938013D01*
X127179491Y-106938015D01*
X127281985Y-107040509D01*
X127281986Y-107040510D01*
X127281988Y-107040511D01*
X127407511Y-107112982D01*
X127407512Y-107112982D01*
X127407515Y-107112984D01*
X127547525Y-107150500D01*
X127547528Y-107150500D01*
X127692472Y-107150500D01*
X127692475Y-107150500D01*
X127832485Y-107112984D01*
X127958015Y-107040509D01*
X128060509Y-106938015D01*
X128132984Y-106812485D01*
X128170500Y-106672475D01*
X128170500Y-106527525D01*
X132849500Y-106527525D01*
X132849500Y-106672475D01*
X132872034Y-106756571D01*
X132887017Y-106812488D01*
X132959488Y-106938011D01*
X132959490Y-106938013D01*
X132959491Y-106938015D01*
X133061985Y-107040509D01*
X133061986Y-107040510D01*
X133061988Y-107040511D01*
X133187511Y-107112982D01*
X133187512Y-107112982D01*
X133187515Y-107112984D01*
X133327525Y-107150500D01*
X133327528Y-107150500D01*
X133472472Y-107150500D01*
X133472475Y-107150500D01*
X133612485Y-107112984D01*
X133738015Y-107040509D01*
X133840509Y-106938015D01*
X133912984Y-106812485D01*
X133949781Y-106675156D01*
X133981873Y-106619573D01*
X134481446Y-106119999D01*
X133750023Y-105388576D01*
X133750022Y-105388576D01*
X133735000Y-105483422D01*
X133735000Y-105958244D01*
X133715315Y-106025283D01*
X133662511Y-106071038D01*
X133593353Y-106080982D01*
X133578915Y-106078020D01*
X133472475Y-106049500D01*
X133327525Y-106049500D01*
X133221092Y-106078019D01*
X133187511Y-106087017D01*
X133061988Y-106159488D01*
X133061982Y-106159493D01*
X132959493Y-106261982D01*
X132959488Y-106261988D01*
X132887017Y-106387511D01*
X132887016Y-106387515D01*
X132849500Y-106527525D01*
X128170500Y-106527525D01*
X128132984Y-106387515D01*
X128126604Y-106376465D01*
X128060511Y-106261988D01*
X128060506Y-106261982D01*
X127958017Y-106159493D01*
X127958011Y-106159488D01*
X127832488Y-106087017D01*
X127832489Y-106087017D01*
X127798908Y-106078019D01*
X127692475Y-106049500D01*
X127547525Y-106049500D01*
X127441092Y-106078018D01*
X127371244Y-106076356D01*
X127313381Y-106037194D01*
X127285877Y-105972965D01*
X127285000Y-105958244D01*
X127285000Y-105483429D01*
X127269975Y-105388576D01*
X126538553Y-106119999D01*
X126485000Y-106119999D01*
X126485000Y-105530504D01*
X126471463Y-105479983D01*
X127055178Y-104896268D01*
X127055179Y-104896267D01*
X127055178Y-104896265D01*
X133964819Y-104896265D01*
X133964820Y-104896268D01*
X134548536Y-105479983D01*
X134535000Y-105530504D01*
X134535000Y-106709496D01*
X134548536Y-106760015D01*
X133964819Y-107343731D01*
X133995969Y-107386603D01*
X133995969Y-107386604D01*
X134118397Y-107509032D01*
X134258475Y-107610804D01*
X134412742Y-107689408D01*
X134577415Y-107742914D01*
X134748429Y-107770000D01*
X134921571Y-107770000D01*
X135092584Y-107742914D01*
X135257257Y-107689408D01*
X135411524Y-107610804D01*
X135551598Y-107509035D01*
X135674032Y-107386602D01*
X135705178Y-107343732D01*
X135705178Y-107343731D01*
X135121463Y-106760016D01*
X135135000Y-106709496D01*
X135135000Y-106119999D01*
X135188553Y-106119999D01*
X135188553Y-106120000D01*
X135919975Y-106851422D01*
X135935000Y-106756570D01*
X135935000Y-105483429D01*
X135919975Y-105388576D01*
X135188553Y-106119999D01*
X135135000Y-106119999D01*
X135135000Y-105530504D01*
X135121463Y-105479983D01*
X135705178Y-104896268D01*
X135705179Y-104896267D01*
X135674032Y-104853397D01*
X135551602Y-104730967D01*
X135411524Y-104629195D01*
X135257257Y-104550591D01*
X135092584Y-104497085D01*
X134921571Y-104470000D01*
X134748429Y-104470000D01*
X134577415Y-104497085D01*
X134412742Y-104550591D01*
X134258475Y-104629195D01*
X134118401Y-104730964D01*
X133995963Y-104853401D01*
X133995962Y-104853403D01*
X133964819Y-104896265D01*
X127055178Y-104896265D01*
X127024032Y-104853397D01*
X126901602Y-104730967D01*
X126761524Y-104629195D01*
X126607257Y-104550591D01*
X126442584Y-104497085D01*
X126271571Y-104470000D01*
X126098429Y-104470000D01*
X125927415Y-104497085D01*
X125762742Y-104550591D01*
X125608475Y-104629195D01*
X125468401Y-104730964D01*
X125345963Y-104853401D01*
X125345962Y-104853403D01*
X125314819Y-104896265D01*
X103100500Y-104896265D01*
X103100500Y-101384722D01*
X111103829Y-101384722D01*
X111103829Y-101384723D01*
X111127624Y-101393598D01*
X111187155Y-101399999D01*
X111187172Y-101400000D01*
X111982828Y-101400000D01*
X111982844Y-101399999D01*
X112042372Y-101393598D01*
X112042378Y-101393597D01*
X112066168Y-101384723D01*
X112066168Y-101384722D01*
X111585001Y-100903553D01*
X111585000Y-100903553D01*
X111103829Y-101384722D01*
X103100500Y-101384722D01*
X103100500Y-98800097D01*
X103120185Y-98733058D01*
X103136819Y-98712416D01*
X103712417Y-98136819D01*
X103773740Y-98103334D01*
X103800098Y-98100500D01*
X106199903Y-98100500D01*
X106266942Y-98120185D01*
X106287584Y-98136819D01*
X107965139Y-99814374D01*
X107965149Y-99814385D01*
X107969479Y-99818715D01*
X107969480Y-99818716D01*
X108081284Y-99930520D01*
X108081286Y-99930521D01*
X108081290Y-99930524D01*
X108167887Y-99980520D01*
X108218216Y-100009577D01*
X108330019Y-100039534D01*
X108370942Y-100050500D01*
X108370943Y-100050500D01*
X110611000Y-100050500D01*
X110678039Y-100070185D01*
X110723794Y-100122989D01*
X110735000Y-100174500D01*
X110735000Y-100947844D01*
X110741401Y-101007372D01*
X110741403Y-101007382D01*
X110750275Y-101031168D01*
X110750276Y-101031169D01*
X111444628Y-100336818D01*
X111505951Y-100303333D01*
X111532303Y-100300499D01*
X111637691Y-100300499D01*
X111704729Y-100320184D01*
X111725371Y-100336818D01*
X112419723Y-101031169D01*
X112462743Y-101021811D01*
X112532434Y-101026796D01*
X112588368Y-101068667D01*
X112605282Y-101099643D01*
X112621203Y-101142330D01*
X112621206Y-101142335D01*
X112707452Y-101257544D01*
X112707455Y-101257547D01*
X112822664Y-101343793D01*
X112822671Y-101343797D01*
X112957517Y-101394091D01*
X112957516Y-101394091D01*
X112964444Y-101394835D01*
X113017127Y-101400500D01*
X113812872Y-101400499D01*
X113872483Y-101394091D01*
X114007331Y-101343796D01*
X114063189Y-101301980D01*
X114128652Y-101277563D01*
X114196926Y-101292414D01*
X114203473Y-101296254D01*
X114250478Y-101325789D01*
X114250481Y-101325790D01*
X114420737Y-101385366D01*
X114420743Y-101385367D01*
X114420745Y-101385368D01*
X114420746Y-101385368D01*
X114420750Y-101385369D01*
X114599996Y-101405565D01*
X114600000Y-101405565D01*
X114600004Y-101405565D01*
X114779249Y-101385369D01*
X114779252Y-101385368D01*
X114779255Y-101385368D01*
X114781101Y-101384722D01*
X128603829Y-101384722D01*
X128603829Y-101384723D01*
X128627624Y-101393598D01*
X128687155Y-101399999D01*
X128687172Y-101400000D01*
X129482828Y-101400000D01*
X129482844Y-101399999D01*
X129542372Y-101393598D01*
X129542378Y-101393597D01*
X129566168Y-101384723D01*
X129566168Y-101384722D01*
X129085001Y-100903553D01*
X129085000Y-100903553D01*
X128603829Y-101384722D01*
X114781101Y-101384722D01*
X114949522Y-101325789D01*
X115102262Y-101229816D01*
X115229816Y-101102262D01*
X115325789Y-100949522D01*
X115385368Y-100779255D01*
X115405565Y-100600000D01*
X115385368Y-100420745D01*
X115325789Y-100250478D01*
X115321590Y-100243796D01*
X115267396Y-100157546D01*
X115229816Y-100097738D01*
X115229815Y-100097737D01*
X115226111Y-100091842D01*
X115228563Y-100090300D01*
X115207057Y-100037643D01*
X115219804Y-99968946D01*
X115226557Y-99958438D01*
X115226111Y-99958158D01*
X115243475Y-99930524D01*
X115325789Y-99799522D01*
X115385368Y-99629255D01*
X115393757Y-99554801D01*
X115405565Y-99450003D01*
X115405565Y-99449996D01*
X115385369Y-99270750D01*
X115385368Y-99270745D01*
X115325788Y-99100476D01*
X115295413Y-99052135D01*
X128234500Y-99052135D01*
X128234500Y-99847870D01*
X128234501Y-99847876D01*
X128240909Y-99907484D01*
X128259519Y-99957382D01*
X128264503Y-100027074D01*
X128259520Y-100044046D01*
X128241402Y-100092623D01*
X128241401Y-100092627D01*
X128235000Y-100152155D01*
X128235000Y-100947844D01*
X128241401Y-101007372D01*
X128241403Y-101007382D01*
X128250275Y-101031168D01*
X128250276Y-101031169D01*
X128944628Y-100336818D01*
X129005951Y-100303333D01*
X129032303Y-100300499D01*
X129137691Y-100300499D01*
X129204729Y-100320184D01*
X129225371Y-100336818D01*
X129919723Y-101031169D01*
X129962743Y-101021811D01*
X130032434Y-101026796D01*
X130088368Y-101068667D01*
X130105282Y-101099643D01*
X130121203Y-101142330D01*
X130121206Y-101142335D01*
X130207452Y-101257544D01*
X130207455Y-101257547D01*
X130322664Y-101343793D01*
X130322671Y-101343797D01*
X130457517Y-101394091D01*
X130457516Y-101394091D01*
X130464444Y-101394835D01*
X130517127Y-101400500D01*
X131312872Y-101400499D01*
X131372483Y-101394091D01*
X131507331Y-101343796D01*
X131570839Y-101296254D01*
X131629645Y-101252232D01*
X131631514Y-101254729D01*
X131679284Y-101228646D01*
X131748976Y-101233630D01*
X131771611Y-101244816D01*
X131900478Y-101325789D01*
X132068899Y-101384722D01*
X132070745Y-101385368D01*
X132070750Y-101385369D01*
X132249996Y-101405565D01*
X132250000Y-101405565D01*
X132250004Y-101405565D01*
X132429249Y-101385369D01*
X132429252Y-101385368D01*
X132429255Y-101385368D01*
X132599522Y-101325789D01*
X132752262Y-101229816D01*
X132879816Y-101102262D01*
X132975789Y-100949522D01*
X133035368Y-100779255D01*
X133055565Y-100600000D01*
X133035368Y-100420745D01*
X132975789Y-100250478D01*
X132971590Y-100243796D01*
X132917396Y-100157546D01*
X132879816Y-100097738D01*
X132752262Y-99970184D01*
X132731888Y-99957382D01*
X132599523Y-99874211D01*
X132429254Y-99814631D01*
X132429249Y-99814630D01*
X132250004Y-99794435D01*
X132249996Y-99794435D01*
X132070750Y-99814630D01*
X132070742Y-99814632D01*
X131930453Y-99863721D01*
X131860674Y-99867282D01*
X131800047Y-99832553D01*
X131767820Y-99770559D01*
X131765499Y-99746687D01*
X131765499Y-99052128D01*
X131759091Y-98992517D01*
X131749125Y-98965798D01*
X131708797Y-98857671D01*
X131708793Y-98857664D01*
X131622547Y-98742455D01*
X131622544Y-98742452D01*
X131507335Y-98656206D01*
X131507328Y-98656202D01*
X131372482Y-98605908D01*
X131372483Y-98605908D01*
X131312883Y-98599501D01*
X131312881Y-98599500D01*
X131312873Y-98599500D01*
X131312865Y-98599500D01*
X131071163Y-98599500D01*
X131004124Y-98579815D01*
X130983482Y-98563181D01*
X130836819Y-98416518D01*
X130803334Y-98355195D01*
X130800500Y-98328837D01*
X130800500Y-98240280D01*
X130819507Y-98174307D01*
X130850788Y-98124524D01*
X130850789Y-98124522D01*
X130910368Y-97954255D01*
X130930565Y-97775000D01*
X130910368Y-97595745D01*
X130850789Y-97425478D01*
X130842206Y-97411819D01*
X130765959Y-97290472D01*
X130746959Y-97223235D01*
X130767327Y-97156400D01*
X130820594Y-97111186D01*
X130870953Y-97100500D01*
X147699903Y-97100500D01*
X147766942Y-97120185D01*
X147787584Y-97136819D01*
X147863181Y-97212416D01*
X147896666Y-97273739D01*
X147899500Y-97300097D01*
X147899500Y-98843060D01*
X147879815Y-98910099D01*
X147827011Y-98955854D01*
X147757853Y-98965798D01*
X147694297Y-98936773D01*
X147687819Y-98930741D01*
X147577262Y-98820184D01*
X147424523Y-98724211D01*
X147254254Y-98664631D01*
X147254249Y-98664630D01*
X147075004Y-98644435D01*
X147074996Y-98644435D01*
X146895750Y-98664630D01*
X146895737Y-98664633D01*
X146725478Y-98724210D01*
X146719206Y-98727231D01*
X146718253Y-98725252D01*
X146661127Y-98741389D01*
X146594294Y-98721016D01*
X146588093Y-98716662D01*
X146507335Y-98656206D01*
X146507328Y-98656202D01*
X146372482Y-98605908D01*
X146372483Y-98605908D01*
X146312883Y-98599501D01*
X146312881Y-98599500D01*
X146312873Y-98599500D01*
X146312864Y-98599500D01*
X145517129Y-98599500D01*
X145517123Y-98599501D01*
X145457516Y-98605908D01*
X145322671Y-98656202D01*
X145322664Y-98656206D01*
X145207455Y-98742452D01*
X145207452Y-98742455D01*
X145121206Y-98857664D01*
X145121203Y-98857670D01*
X145116182Y-98871133D01*
X145074310Y-98927066D01*
X145008846Y-98951483D01*
X144940573Y-98936631D01*
X144891168Y-98887225D01*
X144883818Y-98871133D01*
X144881765Y-98865629D01*
X144878796Y-98857669D01*
X144878794Y-98857666D01*
X144878793Y-98857664D01*
X144792547Y-98742455D01*
X144792544Y-98742452D01*
X144677335Y-98656206D01*
X144677328Y-98656202D01*
X144542482Y-98605908D01*
X144542483Y-98605908D01*
X144482883Y-98599501D01*
X144482881Y-98599500D01*
X144482873Y-98599500D01*
X144482864Y-98599500D01*
X143687129Y-98599500D01*
X143687123Y-98599501D01*
X143627516Y-98605908D01*
X143492671Y-98656202D01*
X143492664Y-98656206D01*
X143377457Y-98742451D01*
X143377451Y-98742457D01*
X143334515Y-98799812D01*
X143278581Y-98841682D01*
X143235249Y-98849500D01*
X142470941Y-98849500D01*
X142442817Y-98857035D01*
X142442818Y-98857036D01*
X142318214Y-98890423D01*
X142318209Y-98890426D01*
X142181290Y-98969475D01*
X142181282Y-98969481D01*
X141899499Y-99251265D01*
X141631286Y-99519478D01*
X141631284Y-99519480D01*
X141595963Y-99554801D01*
X141519480Y-99631283D01*
X141515340Y-99638453D01*
X141510386Y-99647036D01*
X141440423Y-99768215D01*
X141399499Y-99920943D01*
X141399499Y-99920945D01*
X141399499Y-100089046D01*
X141399500Y-100089059D01*
X141399500Y-101913330D01*
X141399499Y-101913348D01*
X141399499Y-102079054D01*
X141399498Y-102079054D01*
X141413494Y-102131285D01*
X141440423Y-102231785D01*
X141450651Y-102249500D01*
X141519477Y-102368712D01*
X141519479Y-102368715D01*
X141519480Y-102368716D01*
X141631284Y-102480520D01*
X141631285Y-102480521D01*
X142131284Y-102980520D01*
X142131286Y-102980521D01*
X142131290Y-102980524D01*
X142268209Y-103059573D01*
X142268216Y-103059577D01*
X142420943Y-103100501D01*
X142420945Y-103100501D01*
X142586654Y-103100501D01*
X142586670Y-103100500D01*
X142616213Y-103100500D01*
X142683252Y-103120185D01*
X142729007Y-103172989D01*
X142738951Y-103242147D01*
X142721206Y-103290473D01*
X142699211Y-103325475D01*
X142639631Y-103495745D01*
X142639630Y-103495750D01*
X142619435Y-103674996D01*
X142619435Y-103675003D01*
X142639630Y-103854249D01*
X142639631Y-103854254D01*
X142699211Y-104024524D01*
X142755493Y-104114094D01*
X142774500Y-104180067D01*
X142774500Y-104879192D01*
X142754815Y-104946231D01*
X142738181Y-104966873D01*
X142591873Y-105113181D01*
X142530550Y-105146666D01*
X142504192Y-105149500D01*
X139980068Y-105149500D01*
X139914096Y-105130494D01*
X139824522Y-105074210D01*
X139824518Y-105074209D01*
X139654262Y-105014633D01*
X139654249Y-105014630D01*
X139475004Y-104994435D01*
X139474996Y-104994435D01*
X139295750Y-105014630D01*
X139295745Y-105014631D01*
X139125476Y-105074211D01*
X138972737Y-105170184D01*
X138845184Y-105297737D01*
X138749211Y-105450476D01*
X138689631Y-105620745D01*
X138689630Y-105620750D01*
X138669435Y-105799996D01*
X138669435Y-105800003D01*
X138689630Y-105979249D01*
X138689631Y-105979254D01*
X138749211Y-106149523D01*
X138755476Y-106159493D01*
X138845184Y-106302262D01*
X138972738Y-106429816D01*
X139125478Y-106525789D01*
X139295739Y-106585366D01*
X139295745Y-106585368D01*
X139295750Y-106585369D01*
X139474996Y-106605565D01*
X139475000Y-106605565D01*
X139475004Y-106605565D01*
X139654249Y-106585369D01*
X139654251Y-106585368D01*
X139654255Y-106585368D01*
X139654258Y-106585366D01*
X139654262Y-106585366D01*
X139744377Y-106553832D01*
X139824522Y-106525789D01*
X139914096Y-106469505D01*
X139980068Y-106450500D01*
X142889071Y-106450500D01*
X142973615Y-106433682D01*
X143014744Y-106425501D01*
X143133127Y-106376465D01*
X143239669Y-106305277D01*
X143930276Y-105614669D01*
X144001465Y-105508127D01*
X144050501Y-105389744D01*
X144051379Y-105385331D01*
X144062398Y-105329940D01*
X144075500Y-105264071D01*
X144075500Y-104180067D01*
X144094507Y-104114094D01*
X144150788Y-104024524D01*
X144210368Y-103854254D01*
X144210369Y-103854249D01*
X144230565Y-103675003D01*
X144230565Y-103674996D01*
X144210369Y-103495750D01*
X144210368Y-103495745D01*
X144150788Y-103325475D01*
X144128794Y-103290473D01*
X144109793Y-103223236D01*
X144130160Y-103156401D01*
X144183428Y-103111187D01*
X144233787Y-103100500D01*
X147125500Y-103100500D01*
X147192539Y-103120185D01*
X147238294Y-103172989D01*
X147249500Y-103224500D01*
X147249500Y-109749903D01*
X147229815Y-109816942D01*
X147213181Y-109837584D01*
X145687584Y-111363181D01*
X145626261Y-111396666D01*
X145599903Y-111399500D01*
X144250098Y-111399500D01*
X144183059Y-111379815D01*
X144162417Y-111363181D01*
X142987590Y-110188355D01*
X142987588Y-110188352D01*
X142868717Y-110069481D01*
X142868716Y-110069480D01*
X142764960Y-110009577D01*
X142764959Y-110009576D01*
X142731783Y-109990422D01*
X142675881Y-109975443D01*
X142579057Y-109949499D01*
X142420943Y-109949499D01*
X142413347Y-109949499D01*
X142413331Y-109949500D01*
X140648072Y-109949500D01*
X140581033Y-109929815D01*
X140535278Y-109877011D01*
X140525334Y-109807853D01*
X140531030Y-109784546D01*
X140580763Y-109642414D01*
X140585368Y-109629255D01*
X140605565Y-109450000D01*
X140585368Y-109270745D01*
X140525789Y-109100478D01*
X140429816Y-108947738D01*
X140302262Y-108820184D01*
X140292692Y-108814171D01*
X140149523Y-108724211D01*
X139979254Y-108664631D01*
X139979249Y-108664630D01*
X139800004Y-108644435D01*
X139799996Y-108644435D01*
X139620750Y-108664630D01*
X139620737Y-108664633D01*
X139450481Y-108724209D01*
X139450477Y-108724210D01*
X139360904Y-108780494D01*
X139294932Y-108799500D01*
X139227320Y-108799500D01*
X139160281Y-108779815D01*
X139128052Y-108749809D01*
X139122548Y-108742457D01*
X139122546Y-108742454D01*
X139098166Y-108724203D01*
X139007335Y-108656206D01*
X139007328Y-108656202D01*
X138872482Y-108605908D01*
X138872483Y-108605908D01*
X138812883Y-108599501D01*
X138812881Y-108599500D01*
X138812873Y-108599500D01*
X138812864Y-108599500D01*
X138017129Y-108599500D01*
X138017123Y-108599501D01*
X137957516Y-108605908D01*
X137822671Y-108656202D01*
X137822664Y-108656206D01*
X137707455Y-108742452D01*
X137707452Y-108742455D01*
X137621206Y-108857664D01*
X137621203Y-108857670D01*
X137616182Y-108871133D01*
X137574310Y-108927066D01*
X137508846Y-108951483D01*
X137440573Y-108936631D01*
X137391168Y-108887225D01*
X137383818Y-108871133D01*
X137381765Y-108865629D01*
X137378796Y-108857669D01*
X137378794Y-108857666D01*
X137378793Y-108857664D01*
X137292547Y-108742455D01*
X137292544Y-108742452D01*
X137177335Y-108656206D01*
X137177328Y-108656202D01*
X137042482Y-108605908D01*
X137042483Y-108605908D01*
X136982883Y-108599501D01*
X136982881Y-108599500D01*
X136982873Y-108599500D01*
X136982864Y-108599500D01*
X136187129Y-108599500D01*
X136187123Y-108599501D01*
X136127516Y-108605908D01*
X135992671Y-108656202D01*
X135992664Y-108656206D01*
X135877455Y-108742452D01*
X135877452Y-108742455D01*
X135791206Y-108857664D01*
X135791202Y-108857671D01*
X135738198Y-108999785D01*
X135735516Y-108998784D01*
X135707600Y-109047765D01*
X135645677Y-109080127D01*
X135576087Y-109073874D01*
X135548646Y-109058819D01*
X135411528Y-108959198D01*
X135257257Y-108880591D01*
X135092584Y-108827085D01*
X134921571Y-108800000D01*
X134748429Y-108800000D01*
X134577415Y-108827085D01*
X134412742Y-108880591D01*
X134258475Y-108959195D01*
X134118397Y-109060967D01*
X134033959Y-109145406D01*
X134624644Y-109736091D01*
X134594940Y-109765795D01*
X134555444Y-109834204D01*
X134535000Y-109910504D01*
X134535000Y-110689496D01*
X134555444Y-110765796D01*
X134594940Y-110834205D01*
X134624644Y-110863909D01*
X134033959Y-111454594D01*
X134118397Y-111539032D01*
X134258475Y-111640804D01*
X134412742Y-111719408D01*
X134577415Y-111772914D01*
X134748429Y-111800000D01*
X134921571Y-111800000D01*
X135092584Y-111772914D01*
X135257257Y-111719408D01*
X135411524Y-111640804D01*
X135551602Y-111539032D01*
X135636041Y-111454594D01*
X135566169Y-111384722D01*
X136103829Y-111384722D01*
X136103829Y-111384723D01*
X136127624Y-111393598D01*
X136187155Y-111399999D01*
X136187172Y-111400000D01*
X136982828Y-111400000D01*
X136982844Y-111399999D01*
X137042372Y-111393598D01*
X137042378Y-111393597D01*
X137066168Y-111384723D01*
X137066168Y-111384722D01*
X136585001Y-110903553D01*
X136585000Y-110903553D01*
X136103829Y-111384722D01*
X135566169Y-111384722D01*
X135045356Y-110863909D01*
X135075060Y-110834205D01*
X135114556Y-110765796D01*
X135135000Y-110689496D01*
X135135000Y-110246447D01*
X135834998Y-110946446D01*
X135834999Y-110946446D01*
X136444628Y-110336818D01*
X136505951Y-110303333D01*
X136532303Y-110300499D01*
X136637691Y-110300499D01*
X136704729Y-110320184D01*
X136725371Y-110336818D01*
X137419723Y-111031169D01*
X137462743Y-111021811D01*
X137532434Y-111026796D01*
X137588368Y-111068667D01*
X137605282Y-111099643D01*
X137621203Y-111142330D01*
X137621206Y-111142335D01*
X137707452Y-111257544D01*
X137707455Y-111257547D01*
X137822664Y-111343793D01*
X137822671Y-111343797D01*
X137957517Y-111394091D01*
X137957516Y-111394091D01*
X137964444Y-111394835D01*
X138017127Y-111400500D01*
X138812872Y-111400499D01*
X138872483Y-111394091D01*
X139007331Y-111343796D01*
X139122546Y-111257546D01*
X139153157Y-111216655D01*
X139165485Y-111200188D01*
X139221419Y-111158318D01*
X139264751Y-111150500D01*
X142199903Y-111150500D01*
X142266942Y-111170185D01*
X142287583Y-111186818D01*
X143581284Y-112480520D01*
X143581286Y-112480521D01*
X143581290Y-112480524D01*
X143702492Y-112550499D01*
X143718216Y-112559577D01*
X143870943Y-112600501D01*
X143870945Y-112600501D01*
X144036654Y-112600501D01*
X144036670Y-112600500D01*
X145813331Y-112600500D01*
X145813347Y-112600501D01*
X145820943Y-112600501D01*
X145979056Y-112600501D01*
X145979057Y-112600501D01*
X146007838Y-112592788D01*
X146072026Y-112592788D01*
X146864247Y-112805062D01*
X147090953Y-111958982D01*
X147075821Y-111957173D01*
X147011593Y-111929668D01*
X146972431Y-111871805D01*
X146970770Y-111801955D01*
X147002860Y-111746373D01*
X148208506Y-110540728D01*
X148208511Y-110540724D01*
X148218714Y-110530520D01*
X148218716Y-110530520D01*
X148330520Y-110418716D01*
X148409577Y-110281784D01*
X148444318Y-110152128D01*
X148450500Y-110129058D01*
X148450500Y-109970943D01*
X148450500Y-102939060D01*
X148450501Y-102939047D01*
X148450501Y-102770944D01*
X148409576Y-102618214D01*
X148409573Y-102618209D01*
X148330524Y-102481290D01*
X148330518Y-102481282D01*
X147868717Y-102019481D01*
X147868716Y-102019480D01*
X147781904Y-101969360D01*
X147781904Y-101969359D01*
X147781900Y-101969358D01*
X147731785Y-101940423D01*
X147579057Y-101899499D01*
X147420943Y-101899499D01*
X147413347Y-101899499D01*
X147413331Y-101899500D01*
X142800098Y-101899500D01*
X142733059Y-101879815D01*
X142712417Y-101863181D01*
X142636819Y-101787583D01*
X142603334Y-101726260D01*
X142600500Y-101699902D01*
X142600500Y-101384722D01*
X143603829Y-101384722D01*
X143603829Y-101384723D01*
X143627624Y-101393598D01*
X143687155Y-101399999D01*
X143687172Y-101400000D01*
X144482828Y-101400000D01*
X144482844Y-101399999D01*
X144542372Y-101393598D01*
X144542378Y-101393597D01*
X144566168Y-101384723D01*
X144566168Y-101384722D01*
X144085001Y-100903553D01*
X144085000Y-100903553D01*
X143603829Y-101384722D01*
X142600500Y-101384722D01*
X142600500Y-100300097D01*
X142620185Y-100233058D01*
X142636819Y-100212416D01*
X142762416Y-100086819D01*
X142823739Y-100053334D01*
X142850097Y-100050500D01*
X143111000Y-100050500D01*
X143178039Y-100070185D01*
X143223794Y-100122989D01*
X143235000Y-100174500D01*
X143235000Y-100947844D01*
X143241401Y-101007372D01*
X143241403Y-101007382D01*
X143250275Y-101031168D01*
X143250276Y-101031169D01*
X143944628Y-100336818D01*
X144005951Y-100303333D01*
X144032303Y-100300499D01*
X144137691Y-100300499D01*
X144204729Y-100320184D01*
X144225371Y-100336818D01*
X144919723Y-101031169D01*
X144962743Y-101021811D01*
X145032434Y-101026796D01*
X145088368Y-101068667D01*
X145105282Y-101099643D01*
X145121203Y-101142330D01*
X145121206Y-101142335D01*
X145207452Y-101257544D01*
X145207455Y-101257547D01*
X145322664Y-101343793D01*
X145322671Y-101343797D01*
X145457517Y-101394091D01*
X145457516Y-101394091D01*
X145464444Y-101394835D01*
X145517127Y-101400500D01*
X146312872Y-101400499D01*
X146372483Y-101394091D01*
X146507331Y-101343796D01*
X146622546Y-101257546D01*
X146665251Y-101200500D01*
X146665485Y-101200188D01*
X146721419Y-101158318D01*
X146764751Y-101150500D01*
X147363331Y-101150500D01*
X147363347Y-101150501D01*
X147370943Y-101150501D01*
X147529054Y-101150501D01*
X147529057Y-101150501D01*
X147681785Y-101109577D01*
X147732113Y-101080520D01*
X147732114Y-101080520D01*
X147818709Y-101030524D01*
X147818708Y-101030524D01*
X147818716Y-101030520D01*
X147930520Y-100918716D01*
X147930520Y-100918714D01*
X147940724Y-100908511D01*
X147940728Y-100908506D01*
X148858506Y-99990728D01*
X148858511Y-99990724D01*
X148868714Y-99980520D01*
X148868716Y-99980520D01*
X148980520Y-99868716D01*
X149001399Y-99832553D01*
X149038544Y-99768216D01*
X149038545Y-99768214D01*
X149059574Y-99731790D01*
X149059573Y-99731790D01*
X149059577Y-99731785D01*
X149100500Y-99579058D01*
X149100500Y-99420943D01*
X149100500Y-97089060D01*
X149100501Y-97089047D01*
X149100501Y-96920944D01*
X149077725Y-96835945D01*
X149059577Y-96768216D01*
X149010501Y-96683213D01*
X148980524Y-96631290D01*
X148980518Y-96631282D01*
X148368717Y-96019481D01*
X148368716Y-96019480D01*
X148281904Y-95969360D01*
X148281904Y-95969359D01*
X148281900Y-95969358D01*
X148231785Y-95940423D01*
X148079057Y-95899499D01*
X147920943Y-95899499D01*
X147913347Y-95899499D01*
X147913331Y-95899500D01*
X129586670Y-95899500D01*
X129586654Y-95899499D01*
X129579058Y-95899499D01*
X129420943Y-95899499D01*
X129344579Y-95919961D01*
X129268214Y-95940423D01*
X129268209Y-95940426D01*
X129131290Y-96019475D01*
X129131282Y-96019481D01*
X128709217Y-96441546D01*
X128709214Y-96441548D01*
X128709215Y-96441549D01*
X128604477Y-96546287D01*
X128585560Y-96579055D01*
X128585559Y-96579057D01*
X128525423Y-96683215D01*
X128484499Y-96835943D01*
X128484499Y-96835945D01*
X128484499Y-97004046D01*
X128484500Y-97004059D01*
X128484500Y-98600249D01*
X128464815Y-98667288D01*
X128434812Y-98699515D01*
X128377457Y-98742451D01*
X128377451Y-98742457D01*
X128291206Y-98857664D01*
X128291202Y-98857671D01*
X128240908Y-98992517D01*
X128234501Y-99052116D01*
X128234501Y-99052123D01*
X128234500Y-99052135D01*
X115295413Y-99052135D01*
X115286582Y-99038080D01*
X115229816Y-98947738D01*
X115102262Y-98820184D01*
X115069840Y-98799812D01*
X114949523Y-98724211D01*
X114779254Y-98664631D01*
X114779249Y-98664630D01*
X114600004Y-98644435D01*
X114599996Y-98644435D01*
X114420750Y-98664630D01*
X114420745Y-98664631D01*
X114250474Y-98724212D01*
X114239783Y-98730930D01*
X114172546Y-98749930D01*
X114105711Y-98729562D01*
X114099501Y-98725202D01*
X114007335Y-98656206D01*
X114007328Y-98656202D01*
X113872482Y-98605908D01*
X113872483Y-98605908D01*
X113812883Y-98599501D01*
X113812881Y-98599500D01*
X113812873Y-98599500D01*
X113812865Y-98599500D01*
X113571163Y-98599500D01*
X113504124Y-98579815D01*
X113483482Y-98563181D01*
X112507482Y-97587181D01*
X112473997Y-97525858D01*
X112478981Y-97456166D01*
X112520853Y-97400233D01*
X112586317Y-97375816D01*
X112595163Y-97375500D01*
X119284720Y-97375500D01*
X119350693Y-97394507D01*
X119400475Y-97425788D01*
X119570745Y-97485368D01*
X119570750Y-97485369D01*
X119749996Y-97505565D01*
X119750000Y-97505565D01*
X119750004Y-97505565D01*
X119929249Y-97485369D01*
X119929252Y-97485368D01*
X119929255Y-97485368D01*
X120099522Y-97425789D01*
X120252262Y-97329816D01*
X120379816Y-97202262D01*
X120475789Y-97049522D01*
X120535368Y-96879255D01*
X120540248Y-96835943D01*
X120555565Y-96700003D01*
X120555565Y-96699996D01*
X120535369Y-96520750D01*
X120535368Y-96520745D01*
X120507655Y-96441546D01*
X120475789Y-96350478D01*
X120379816Y-96197738D01*
X120252262Y-96070184D01*
X120099523Y-95974211D01*
X119929254Y-95914631D01*
X119929249Y-95914630D01*
X119750004Y-95894435D01*
X119749996Y-95894435D01*
X119570750Y-95914630D01*
X119570745Y-95914631D01*
X119400475Y-95974211D01*
X119350693Y-96005493D01*
X119284720Y-96024500D01*
X105990280Y-96024500D01*
X105924307Y-96005493D01*
X105874524Y-95974211D01*
X105704254Y-95914631D01*
X105704249Y-95914630D01*
X105525004Y-95894435D01*
X105524996Y-95894435D01*
X105345750Y-95914630D01*
X105345745Y-95914631D01*
X105175476Y-95974211D01*
X105022737Y-96070184D01*
X104895184Y-96197737D01*
X104799211Y-96350476D01*
X104739631Y-96520745D01*
X104739630Y-96520750D01*
X104719435Y-96699996D01*
X104719435Y-96700003D01*
X104726377Y-96761617D01*
X104714322Y-96830439D01*
X104666973Y-96881818D01*
X104603157Y-96899500D01*
X103586670Y-96899500D01*
X103586654Y-96899499D01*
X103579058Y-96899499D01*
X103420943Y-96899499D01*
X103344579Y-96919961D01*
X103268214Y-96940423D01*
X103268209Y-96940426D01*
X103131290Y-97019475D01*
X103131282Y-97019481D01*
X102019481Y-98131282D01*
X102019480Y-98131284D01*
X101974305Y-98209530D01*
X101940423Y-98268215D01*
X101899499Y-98420943D01*
X101899499Y-98420945D01*
X101899499Y-98589046D01*
X101899500Y-98589059D01*
X101899500Y-111313330D01*
X101899499Y-111313348D01*
X101899499Y-111479054D01*
X101899498Y-111479054D01*
X100250500Y-111479054D01*
X100250500Y-91384722D01*
X111103829Y-91384722D01*
X111103829Y-91384723D01*
X111127624Y-91393598D01*
X111187155Y-91399999D01*
X111187172Y-91400000D01*
X111982828Y-91400000D01*
X111982844Y-91399999D01*
X112042372Y-91393598D01*
X112042378Y-91393597D01*
X112066168Y-91384723D01*
X112066168Y-91384722D01*
X111585001Y-90903553D01*
X111585000Y-90903553D01*
X111103829Y-91384722D01*
X100250500Y-91384722D01*
X100250500Y-82384722D01*
X103603829Y-82384722D01*
X103603829Y-82384723D01*
X103627624Y-82393598D01*
X103687155Y-82399999D01*
X103687172Y-82400000D01*
X104482828Y-82400000D01*
X104482844Y-82399999D01*
X104542372Y-82393598D01*
X104542378Y-82393597D01*
X104566168Y-82384723D01*
X104566168Y-82384722D01*
X104085001Y-81903553D01*
X104085000Y-81903553D01*
X103603829Y-82384722D01*
X100250500Y-82384722D01*
X100250500Y-80052135D01*
X103234500Y-80052135D01*
X103234500Y-80847870D01*
X103234501Y-80847876D01*
X103240909Y-80907484D01*
X103259519Y-80957382D01*
X103264503Y-81027074D01*
X103259520Y-81044046D01*
X103241402Y-81092623D01*
X103241401Y-81092627D01*
X103235000Y-81152155D01*
X103235000Y-81947844D01*
X103241401Y-82007372D01*
X103241403Y-82007382D01*
X103250275Y-82031168D01*
X103250276Y-82031169D01*
X103944628Y-81336818D01*
X104005951Y-81303333D01*
X104032303Y-81300499D01*
X104137691Y-81300499D01*
X104204729Y-81320184D01*
X104225371Y-81336818D01*
X104919723Y-82031169D01*
X104962743Y-82021811D01*
X105032434Y-82026796D01*
X105088368Y-82068667D01*
X105105282Y-82099643D01*
X105121203Y-82142330D01*
X105121206Y-82142335D01*
X105207452Y-82257544D01*
X105207455Y-82257547D01*
X105322664Y-82343793D01*
X105322671Y-82343797D01*
X105457517Y-82394091D01*
X105457516Y-82394091D01*
X105464444Y-82394835D01*
X105517127Y-82400500D01*
X106312872Y-82400499D01*
X106372483Y-82394091D01*
X106507331Y-82343796D01*
X106622546Y-82257546D01*
X106664736Y-82201188D01*
X106665485Y-82200188D01*
X106721419Y-82158318D01*
X106764751Y-82150500D01*
X107817588Y-82150500D01*
X107884627Y-82170185D01*
X107894903Y-82177555D01*
X107897736Y-82179814D01*
X107897738Y-82179816D01*
X108011270Y-82251152D01*
X108035936Y-82266652D01*
X108050478Y-82275789D01*
X108135573Y-82305565D01*
X108220745Y-82335368D01*
X108220750Y-82335369D01*
X108399996Y-82355565D01*
X108400000Y-82355565D01*
X108400004Y-82355565D01*
X108579249Y-82335369D01*
X108579252Y-82335368D01*
X108579255Y-82335368D01*
X108749522Y-82275789D01*
X108902262Y-82179816D01*
X109029816Y-82052262D01*
X109125789Y-81899522D01*
X109185368Y-81729255D01*
X109185369Y-81729249D01*
X109205565Y-81550003D01*
X109205565Y-81549996D01*
X109185369Y-81370750D01*
X109185368Y-81370745D01*
X109167676Y-81320184D01*
X109125789Y-81200478D01*
X109029816Y-81047738D01*
X108902262Y-80920184D01*
X108882050Y-80907484D01*
X108749523Y-80824211D01*
X108579254Y-80764631D01*
X108579249Y-80764630D01*
X108400004Y-80744435D01*
X108399996Y-80744435D01*
X108220750Y-80764630D01*
X108220742Y-80764632D01*
X108141587Y-80792330D01*
X108071808Y-80795891D01*
X108011181Y-80761162D01*
X107978954Y-80699169D01*
X107983592Y-80634332D01*
X107985367Y-80629259D01*
X107985369Y-80629249D01*
X108005565Y-80450003D01*
X108005565Y-80449996D01*
X107985369Y-80270750D01*
X107985368Y-80270745D01*
X107925788Y-80100476D01*
X107886582Y-80038080D01*
X107829816Y-79947738D01*
X107761759Y-79879681D01*
X107728274Y-79818358D01*
X107733258Y-79748666D01*
X107775130Y-79692733D01*
X107840594Y-79668316D01*
X107849440Y-79668000D01*
X118064219Y-79668000D01*
X118131258Y-79687685D01*
X118177013Y-79740489D01*
X118186957Y-79809647D01*
X118157932Y-79873203D01*
X118126220Y-79899386D01*
X118056777Y-79939478D01*
X118004814Y-79969479D01*
X118004811Y-79969481D01*
X117169481Y-80804811D01*
X117169477Y-80804816D01*
X117137562Y-80860097D01*
X117125721Y-80880606D01*
X117090423Y-80941744D01*
X117049499Y-81094472D01*
X117049499Y-81094474D01*
X117049499Y-81262575D01*
X117049500Y-81262588D01*
X117049500Y-81711859D01*
X117049499Y-81711877D01*
X117049499Y-81877583D01*
X117049498Y-81877583D01*
X117049499Y-81877586D01*
X117090423Y-82030314D01*
X117090542Y-82030520D01*
X117103094Y-82052260D01*
X117103095Y-82052263D01*
X117169475Y-82167238D01*
X117169481Y-82167246D01*
X117288349Y-82286114D01*
X117288354Y-82286118D01*
X118482755Y-83480520D01*
X118482757Y-83480521D01*
X118482761Y-83480524D01*
X118619680Y-83559573D01*
X118619687Y-83559577D01*
X118772414Y-83600501D01*
X118772416Y-83600501D01*
X118938125Y-83600501D01*
X118938141Y-83600500D01*
X122699903Y-83600500D01*
X122766942Y-83620185D01*
X122787584Y-83636819D01*
X122863181Y-83712416D01*
X122896666Y-83773739D01*
X122899500Y-83800097D01*
X122899500Y-91199903D01*
X122879815Y-91266942D01*
X122863181Y-91287584D01*
X121787584Y-92363181D01*
X121726261Y-92396666D01*
X121699903Y-92399500D01*
X114800098Y-92399500D01*
X114733059Y-92379815D01*
X114712417Y-92363181D01*
X114051819Y-91702583D01*
X114018334Y-91641260D01*
X114015500Y-91614902D01*
X114015500Y-91399749D01*
X114035185Y-91332710D01*
X114065190Y-91300482D01*
X114098176Y-91275789D01*
X114122546Y-91257546D01*
X114208796Y-91142331D01*
X114259091Y-91007483D01*
X114265500Y-90947873D01*
X114265499Y-90373081D01*
X114285183Y-90306043D01*
X114337987Y-90260288D01*
X114375616Y-90249862D01*
X114504249Y-90235369D01*
X114504252Y-90235368D01*
X114504255Y-90235368D01*
X114674522Y-90175789D01*
X114827262Y-90079816D01*
X114954816Y-89952262D01*
X115050789Y-89799522D01*
X115110368Y-89629255D01*
X115110369Y-89629249D01*
X115130565Y-89450003D01*
X115130565Y-89449996D01*
X115110369Y-89270750D01*
X115110368Y-89270745D01*
X115050788Y-89100476D01*
X114991203Y-89005647D01*
X114954816Y-88947738D01*
X114827262Y-88820184D01*
X114820344Y-88815837D01*
X114674523Y-88724211D01*
X114504254Y-88664631D01*
X114504249Y-88664630D01*
X114325004Y-88644435D01*
X114324996Y-88644435D01*
X114145746Y-88664631D01*
X114145742Y-88664632D01*
X114121458Y-88673129D01*
X114051679Y-88676690D01*
X114015512Y-88659723D01*
X114015114Y-88660454D01*
X114007328Y-88656202D01*
X113872482Y-88605908D01*
X113872483Y-88605908D01*
X113812883Y-88599501D01*
X113812881Y-88599500D01*
X113812873Y-88599500D01*
X113812865Y-88599500D01*
X113527476Y-88599500D01*
X113460437Y-88579815D01*
X113414682Y-88527011D01*
X113404256Y-88461613D01*
X113404857Y-88456287D01*
X113405565Y-88450000D01*
X113401621Y-88415000D01*
X113385369Y-88270750D01*
X113385368Y-88270745D01*
X113352000Y-88175385D01*
X113325789Y-88100478D01*
X113229816Y-87947738D01*
X113211819Y-87929741D01*
X113178334Y-87868418D01*
X113175500Y-87842060D01*
X113175500Y-86607412D01*
X113195185Y-86540373D01*
X113202555Y-86530097D01*
X113204810Y-86527267D01*
X113204816Y-86527262D01*
X113300789Y-86374522D01*
X113360368Y-86204255D01*
X113363706Y-86174630D01*
X113380565Y-86025003D01*
X113380565Y-86024996D01*
X113360369Y-85845750D01*
X113360368Y-85845745D01*
X113300788Y-85675476D01*
X113204815Y-85522737D01*
X113077262Y-85395184D01*
X112924523Y-85299211D01*
X112754254Y-85239631D01*
X112754249Y-85239630D01*
X112575004Y-85219435D01*
X112574996Y-85219435D01*
X112395750Y-85239630D01*
X112395745Y-85239631D01*
X112225476Y-85299211D01*
X112072737Y-85395184D01*
X111945184Y-85522737D01*
X111849211Y-85675476D01*
X111789631Y-85845745D01*
X111789630Y-85845750D01*
X111769435Y-86024996D01*
X111769435Y-86025003D01*
X111789630Y-86204249D01*
X111789631Y-86204254D01*
X111849211Y-86374523D01*
X111945185Y-86527263D01*
X111947445Y-86530097D01*
X111948334Y-86532275D01*
X111948889Y-86533158D01*
X111948734Y-86533255D01*
X111973855Y-86594783D01*
X111974500Y-86607412D01*
X111974500Y-87905145D01*
X111955494Y-87971117D01*
X111874211Y-88100476D01*
X111814631Y-88270745D01*
X111814630Y-88270750D01*
X111794435Y-88449996D01*
X111794435Y-88449998D01*
X111795744Y-88461620D01*
X111783687Y-88530442D01*
X111736336Y-88581820D01*
X111672523Y-88599500D01*
X111187129Y-88599500D01*
X111187123Y-88599501D01*
X111127516Y-88605908D01*
X110992671Y-88656202D01*
X110992664Y-88656206D01*
X110877455Y-88742452D01*
X110877452Y-88742455D01*
X110791206Y-88857664D01*
X110791202Y-88857671D01*
X110740908Y-88992517D01*
X110734501Y-89052116D01*
X110734500Y-89052135D01*
X110734500Y-89847870D01*
X110734501Y-89847876D01*
X110740909Y-89907484D01*
X110759519Y-89957382D01*
X110764503Y-90027074D01*
X110759520Y-90044046D01*
X110741402Y-90092623D01*
X110741401Y-90092627D01*
X110735000Y-90152155D01*
X110735000Y-90947844D01*
X110741401Y-91007372D01*
X110741403Y-91007382D01*
X110750275Y-91031168D01*
X110750276Y-91031169D01*
X111444628Y-90336818D01*
X111505951Y-90303333D01*
X111532303Y-90300499D01*
X111637691Y-90300499D01*
X111704729Y-90320184D01*
X111725371Y-90336818D01*
X112419723Y-91031169D01*
X112462743Y-91021811D01*
X112532434Y-91026796D01*
X112588368Y-91068667D01*
X112605282Y-91099643D01*
X112621203Y-91142330D01*
X112707452Y-91257543D01*
X112707455Y-91257547D01*
X112764810Y-91300482D01*
X112806682Y-91356415D01*
X112814500Y-91399749D01*
X112814500Y-91828330D01*
X112814499Y-91828348D01*
X112814499Y-91994054D01*
X112814498Y-91994054D01*
X112855423Y-92146785D01*
X112865674Y-92164540D01*
X112934477Y-92283712D01*
X112934481Y-92283717D01*
X113053349Y-92402585D01*
X113053354Y-92402589D01*
X114131284Y-93480520D01*
X114131286Y-93480521D01*
X114131290Y-93480524D01*
X114268209Y-93559573D01*
X114268216Y-93559577D01*
X114420943Y-93600501D01*
X114420945Y-93600501D01*
X114586654Y-93600501D01*
X114586670Y-93600500D01*
X121913331Y-93600500D01*
X121913347Y-93600501D01*
X121920943Y-93600501D01*
X122079054Y-93600501D01*
X122079057Y-93600501D01*
X122231785Y-93559577D01*
X122281904Y-93530639D01*
X122368716Y-93480520D01*
X122480520Y-93368716D01*
X122480520Y-93368714D01*
X122490728Y-93358507D01*
X122490730Y-93358504D01*
X123858506Y-91990728D01*
X123858511Y-91990724D01*
X123868714Y-91980520D01*
X123868716Y-91980520D01*
X123980520Y-91868716D01*
X124059577Y-91731784D01*
X124100500Y-91579057D01*
X124100500Y-86959996D01*
X125024435Y-86959996D01*
X125024435Y-86960003D01*
X125044630Y-87139249D01*
X125044631Y-87139254D01*
X125104211Y-87309523D01*
X125180719Y-87431284D01*
X125200184Y-87462262D01*
X125327738Y-87589816D01*
X125480478Y-87685789D01*
X125650745Y-87745368D01*
X125737669Y-87755161D01*
X125802080Y-87782226D01*
X125811465Y-87790700D01*
X125953181Y-87932416D01*
X125986666Y-87993739D01*
X125989500Y-88020097D01*
X125989500Y-89623537D01*
X125969815Y-89690576D01*
X125917011Y-89736331D01*
X125879384Y-89746757D01*
X125720749Y-89764630D01*
X125720745Y-89764631D01*
X125550476Y-89824211D01*
X125397737Y-89920184D01*
X125270184Y-90047737D01*
X125174211Y-90200476D01*
X125114631Y-90370745D01*
X125114630Y-90370750D01*
X125094435Y-90549996D01*
X125094435Y-90550003D01*
X125114630Y-90729249D01*
X125114631Y-90729254D01*
X125174211Y-90899523D01*
X125256930Y-91031168D01*
X125270184Y-91052262D01*
X125397738Y-91179816D01*
X125485879Y-91235199D01*
X125521439Y-91257543D01*
X125550478Y-91275789D01*
X125621047Y-91300482D01*
X125720745Y-91335368D01*
X125720750Y-91335369D01*
X125899996Y-91355565D01*
X125900000Y-91355565D01*
X125900004Y-91355565D01*
X126079249Y-91335369D01*
X126079252Y-91335368D01*
X126079255Y-91335368D01*
X126249522Y-91275789D01*
X126402262Y-91179816D01*
X126529816Y-91052262D01*
X126577911Y-90975717D01*
X126595216Y-90954019D01*
X126630520Y-90918716D01*
X126630520Y-90918715D01*
X126637581Y-90911655D01*
X126637587Y-90911648D01*
X126899853Y-90649381D01*
X126925529Y-90629679D01*
X126958716Y-90610520D01*
X127070520Y-90498716D01*
X127149577Y-90361784D01*
X127155725Y-90338836D01*
X127192090Y-90279177D01*
X127254937Y-90248648D01*
X127324313Y-90256943D01*
X127378190Y-90301428D01*
X127399465Y-90367980D01*
X127399500Y-90370931D01*
X127399500Y-93413330D01*
X127399499Y-93413348D01*
X127399499Y-93579054D01*
X127399498Y-93579054D01*
X127405244Y-93600500D01*
X127440423Y-93731785D01*
X127456441Y-93759529D01*
X127456442Y-93759531D01*
X127456443Y-93759531D01*
X127519480Y-93868716D01*
X127631284Y-93980520D01*
X127631285Y-93980521D01*
X128131284Y-94480520D01*
X128131286Y-94480521D01*
X128131290Y-94480524D01*
X128268209Y-94559573D01*
X128268216Y-94559577D01*
X128420943Y-94600501D01*
X128420945Y-94600501D01*
X128586654Y-94600501D01*
X128586670Y-94600500D01*
X144913331Y-94600500D01*
X144913347Y-94600501D01*
X144920943Y-94600501D01*
X145079054Y-94600501D01*
X145079057Y-94600501D01*
X145231785Y-94559577D01*
X145281904Y-94530639D01*
X145368716Y-94480520D01*
X145480520Y-94368716D01*
X145480520Y-94368714D01*
X145490728Y-94358507D01*
X145490730Y-94358504D01*
X146273506Y-93575728D01*
X146273511Y-93575724D01*
X146283714Y-93565520D01*
X146283716Y-93565520D01*
X146395520Y-93453716D01*
X146474577Y-93316784D01*
X146515500Y-93164057D01*
X146515500Y-91399749D01*
X146535185Y-91332710D01*
X146565190Y-91300482D01*
X146598176Y-91275789D01*
X146622546Y-91257546D01*
X146708796Y-91142331D01*
X146759091Y-91007483D01*
X146765500Y-90947873D01*
X146765499Y-90338310D01*
X146785183Y-90271272D01*
X146837987Y-90225517D01*
X146907146Y-90215573D01*
X146930455Y-90221270D01*
X146970740Y-90235367D01*
X146970750Y-90235369D01*
X147149996Y-90255565D01*
X147150000Y-90255565D01*
X147150004Y-90255565D01*
X147329249Y-90235369D01*
X147329252Y-90235368D01*
X147329255Y-90235368D01*
X147499522Y-90175789D01*
X147652262Y-90079816D01*
X147779816Y-89952262D01*
X147875789Y-89799522D01*
X147935368Y-89629255D01*
X147935369Y-89629249D01*
X147955565Y-89450003D01*
X147955565Y-89449996D01*
X147935369Y-89270750D01*
X147935368Y-89270745D01*
X147875788Y-89100476D01*
X147816203Y-89005647D01*
X147779816Y-88947738D01*
X147663870Y-88831792D01*
X147630385Y-88770469D01*
X147635369Y-88700777D01*
X147663870Y-88656430D01*
X147883482Y-88436819D01*
X148199695Y-88120606D01*
X148273620Y-88009969D01*
X148324541Y-87887036D01*
X148350500Y-87756531D01*
X148350500Y-87623469D01*
X148350500Y-79283469D01*
X148341666Y-79239057D01*
X148324541Y-79152964D01*
X148275944Y-79035643D01*
X148274300Y-79031048D01*
X148199698Y-78919398D01*
X148199697Y-78919397D01*
X148199695Y-78919394D01*
X148105606Y-78825305D01*
X147780297Y-78499996D01*
X147255608Y-77975306D01*
X147255605Y-77975304D01*
X147144975Y-77901383D01*
X147144965Y-77901378D01*
X147022036Y-77850459D01*
X147022028Y-77850457D01*
X146891535Y-77824500D01*
X146891531Y-77824500D01*
X137241531Y-77824500D01*
X126940280Y-77824500D01*
X126874307Y-77805493D01*
X126824524Y-77774211D01*
X126654254Y-77714631D01*
X126654249Y-77714630D01*
X126475004Y-77694435D01*
X126474996Y-77694435D01*
X126295750Y-77714630D01*
X126295745Y-77714631D01*
X126125476Y-77774211D01*
X125972737Y-77870184D01*
X125845184Y-77997737D01*
X125749211Y-78150476D01*
X125689631Y-78320745D01*
X125689630Y-78320750D01*
X125669435Y-78499996D01*
X125669435Y-78500003D01*
X125689630Y-78679249D01*
X125689631Y-78679254D01*
X125749211Y-78849523D01*
X125793117Y-78919398D01*
X125845184Y-79002262D01*
X125972738Y-79129816D01*
X126125478Y-79225789D01*
X126290312Y-79283467D01*
X126295745Y-79285368D01*
X126295750Y-79285369D01*
X126474996Y-79305565D01*
X126475000Y-79305565D01*
X126475004Y-79305565D01*
X126654249Y-79285369D01*
X126654252Y-79285368D01*
X126654255Y-79285368D01*
X126824522Y-79225789D01*
X126874307Y-79194507D01*
X126940280Y-79175500D01*
X127185903Y-79175500D01*
X127252942Y-79195185D01*
X127298697Y-79247989D01*
X127308641Y-79317147D01*
X127279616Y-79380703D01*
X127273587Y-79387177D01*
X126926984Y-79733780D01*
X126581286Y-80079478D01*
X126469481Y-80191282D01*
X126469480Y-80191284D01*
X126427209Y-80264500D01*
X126423601Y-80270750D01*
X126395320Y-80319734D01*
X126390423Y-80328215D01*
X126349499Y-80480943D01*
X126349499Y-80480945D01*
X126349499Y-80649046D01*
X126349500Y-80649059D01*
X126349500Y-86118926D01*
X126329815Y-86185965D01*
X126277011Y-86231720D01*
X126207853Y-86241664D01*
X126184546Y-86235968D01*
X126009257Y-86174632D01*
X126009249Y-86174630D01*
X125830004Y-86154435D01*
X125829996Y-86154435D01*
X125650750Y-86174630D01*
X125650745Y-86174631D01*
X125480476Y-86234211D01*
X125327737Y-86330184D01*
X125200184Y-86457737D01*
X125104211Y-86610476D01*
X125044631Y-86780745D01*
X125044630Y-86780750D01*
X125024435Y-86959996D01*
X124100500Y-86959996D01*
X124100500Y-83589060D01*
X124100501Y-83589047D01*
X124100501Y-83420944D01*
X124059576Y-83268214D01*
X124059573Y-83268209D01*
X123980524Y-83131290D01*
X123980518Y-83131282D01*
X123368717Y-82519481D01*
X123368716Y-82519480D01*
X123281904Y-82469360D01*
X123281904Y-82469359D01*
X123281900Y-82469358D01*
X123231785Y-82440423D01*
X123079057Y-82399499D01*
X122920943Y-82399499D01*
X122913347Y-82399499D01*
X122913331Y-82399500D01*
X121764001Y-82399500D01*
X121696962Y-82379815D01*
X121651207Y-82327011D01*
X121641263Y-82257853D01*
X121664734Y-82201189D01*
X121708796Y-82142331D01*
X121712083Y-82133516D01*
X121753952Y-82077582D01*
X121766260Y-82069463D01*
X121833716Y-82030520D01*
X121945520Y-81918716D01*
X121945520Y-81918714D01*
X121955728Y-81908507D01*
X121955730Y-81908504D01*
X122508506Y-81355728D01*
X122508511Y-81355724D01*
X122518714Y-81345520D01*
X122518716Y-81345520D01*
X122630520Y-81233716D01*
X122664708Y-81174500D01*
X122707986Y-81099541D01*
X122707987Y-81099541D01*
X122707995Y-81099523D01*
X122709577Y-81096785D01*
X122750500Y-80944058D01*
X122750500Y-80785943D01*
X122750500Y-79070943D01*
X122742017Y-79039283D01*
X122709577Y-78918215D01*
X122655935Y-78825305D01*
X122630520Y-78781284D01*
X122518716Y-78669480D01*
X122518715Y-78669479D01*
X122514385Y-78665149D01*
X122514374Y-78665139D01*
X122005090Y-78155855D01*
X122005088Y-78155852D01*
X121886217Y-78036981D01*
X121886209Y-78036975D01*
X121779393Y-77975305D01*
X121779393Y-77975306D01*
X121749283Y-77957922D01*
X121693381Y-77942943D01*
X121596557Y-77916999D01*
X121438443Y-77916999D01*
X121430847Y-77916999D01*
X121430831Y-77917000D01*
X117973927Y-77917000D01*
X117906888Y-77897315D01*
X117861133Y-77844511D01*
X117850707Y-77806883D01*
X117835369Y-77670750D01*
X117835368Y-77670745D01*
X117775788Y-77500476D01*
X117736582Y-77438080D01*
X117679816Y-77347738D01*
X117552262Y-77220184D01*
X117489096Y-77180494D01*
X117399523Y-77124211D01*
X117229254Y-77064631D01*
X117229249Y-77064630D01*
X117050004Y-77044435D01*
X117049996Y-77044435D01*
X116870750Y-77064630D01*
X116870737Y-77064633D01*
X116700481Y-77124209D01*
X116700477Y-77124210D01*
X116610904Y-77180494D01*
X116544932Y-77199500D01*
X111970808Y-77199500D01*
X111903769Y-77179815D01*
X111883127Y-77163181D01*
X111621722Y-76901776D01*
X111588237Y-76840453D01*
X111586182Y-76827973D01*
X111585368Y-76820745D01*
X111525789Y-76650478D01*
X111524767Y-76648852D01*
X111454105Y-76536394D01*
X111429816Y-76497738D01*
X111302262Y-76370184D01*
X111298732Y-76367966D01*
X111149523Y-76274211D01*
X110979254Y-76214631D01*
X110979249Y-76214630D01*
X110800004Y-76194435D01*
X110799996Y-76194435D01*
X110620750Y-76214630D01*
X110620745Y-76214631D01*
X110450476Y-76274211D01*
X110297737Y-76370184D01*
X110170184Y-76497737D01*
X110074211Y-76650476D01*
X110014631Y-76820745D01*
X110014630Y-76820750D01*
X109994435Y-76999996D01*
X109994435Y-77000003D01*
X110014630Y-77179249D01*
X110014631Y-77179254D01*
X110074211Y-77349523D01*
X110169062Y-77500476D01*
X110170184Y-77502262D01*
X110297738Y-77629816D01*
X110362876Y-77670745D01*
X110390347Y-77688006D01*
X110436638Y-77740341D01*
X110447286Y-77809394D01*
X110418911Y-77873243D01*
X110360521Y-77911615D01*
X110324375Y-77917000D01*
X106104170Y-77917000D01*
X106104154Y-77916999D01*
X106096558Y-77916999D01*
X105938443Y-77916999D01*
X105862079Y-77937461D01*
X105785714Y-77957923D01*
X105785709Y-77957926D01*
X105648790Y-78036975D01*
X105648782Y-78036981D01*
X104122582Y-79563181D01*
X104061259Y-79596666D01*
X104034901Y-79599500D01*
X103687130Y-79599500D01*
X103687123Y-79599501D01*
X103627516Y-79605908D01*
X103492671Y-79656202D01*
X103492664Y-79656206D01*
X103377455Y-79742452D01*
X103377452Y-79742455D01*
X103291206Y-79857664D01*
X103291202Y-79857671D01*
X103240908Y-79992517D01*
X103234501Y-80052116D01*
X103234501Y-80052123D01*
X103234500Y-80052135D01*
X100250500Y-80052135D01*
X100250500Y-70645873D01*
X100270185Y-70578834D01*
X100322989Y-70533079D01*
X100392147Y-70523135D01*
X100436098Y-70538254D01*
X100453328Y-70548117D01*
X100461891Y-70553018D01*
X101651695Y-71193265D01*
X102774445Y-71759991D01*
X102857892Y-71802112D01*
X104079634Y-72379130D01*
X105316082Y-72923923D01*
X106566386Y-73436117D01*
X107829687Y-73915359D01*
X109105117Y-74361321D01*
X110391799Y-74773695D01*
X111069164Y-74971362D01*
X111688844Y-75152197D01*
X112085023Y-75256621D01*
X112995375Y-75496570D01*
X114310480Y-75806574D01*
X115633259Y-76081998D01*
X116962804Y-76322652D01*
X118298200Y-76528370D01*
X118931959Y-76609067D01*
X118955535Y-76614448D01*
X118962618Y-76616812D01*
X118977954Y-76616397D01*
X118996964Y-76617345D01*
X118999251Y-76617636D01*
X119012180Y-76619282D01*
X119019460Y-76617635D01*
X119043463Y-76614625D01*
X119050926Y-76614424D01*
X119065198Y-76608787D01*
X119083378Y-76603178D01*
X119098343Y-76599794D01*
X119104626Y-76595752D01*
X119126146Y-76584719D01*
X119133091Y-76581977D01*
X119144564Y-76571807D01*
X119159740Y-76560309D01*
X119172645Y-76552012D01*
X119177164Y-76546069D01*
X119193615Y-76528335D01*
X119199203Y-76523384D01*
X119206512Y-76509893D01*
X119216832Y-76493912D01*
X119226123Y-76481698D01*
X119228335Y-76474573D01*
X119237734Y-76452272D01*
X119241289Y-76445714D01*
X119243543Y-76430542D01*
X119247776Y-76411984D01*
X119252327Y-76397335D01*
X119251969Y-76389876D01*
X119253174Y-76365712D01*
X119254271Y-76358333D01*
X119251199Y-76343304D01*
X119248831Y-76324411D01*
X119248097Y-76309099D01*
X119248096Y-76309093D01*
X119245213Y-76302216D01*
X119238080Y-76279097D01*
X119236585Y-76271784D01*
X119236585Y-76271782D01*
X119236583Y-76271778D01*
X119228557Y-76258706D01*
X119219868Y-76241761D01*
X119213943Y-76227626D01*
X119208876Y-76222143D01*
X119194268Y-76202860D01*
X119190363Y-76196500D01*
X119178343Y-76186955D01*
X119164389Y-76174008D01*
X119153984Y-76162749D01*
X119153982Y-76162748D01*
X119151298Y-76161365D01*
X119128538Y-76146251D01*
X118627348Y-75727019D01*
X118622604Y-75722841D01*
X118119716Y-75256621D01*
X118115190Y-75252206D01*
X117713647Y-74839942D01*
X117636699Y-74760939D01*
X117632409Y-74756304D01*
X117179576Y-74241285D01*
X117175556Y-74236470D01*
X116758885Y-73710803D01*
X116749570Y-73699051D01*
X116745770Y-73693998D01*
X116450719Y-73280056D01*
X116347719Y-73135552D01*
X116344208Y-73130350D01*
X115975130Y-72552330D01*
X115971870Y-72546924D01*
X115883534Y-72391661D01*
X115632754Y-71950880D01*
X115629791Y-71945351D01*
X115321477Y-71332759D01*
X115318780Y-71327042D01*
X115285030Y-71250500D01*
X115042100Y-70699558D01*
X115039707Y-70693731D01*
X114995894Y-70578834D01*
X114795378Y-70052987D01*
X114793276Y-70047024D01*
X114779985Y-70006001D01*
X114581908Y-69394616D01*
X114580118Y-69388565D01*
X114422085Y-68800000D01*
X114422083Y-68799994D01*
X121144655Y-68799994D01*
X121144655Y-68800005D01*
X121164014Y-69107725D01*
X121164015Y-69107732D01*
X121164016Y-69107736D01*
X121218743Y-69394627D01*
X121221795Y-69410623D01*
X121317078Y-69703874D01*
X121317080Y-69703879D01*
X121448362Y-69982867D01*
X121448366Y-69982873D01*
X121613577Y-70243206D01*
X121613579Y-70243209D01*
X121613584Y-70243216D01*
X121810131Y-70480799D01*
X121810132Y-70480800D01*
X122034902Y-70691874D01*
X122034912Y-70691882D01*
X122284348Y-70873108D01*
X122284353Y-70873110D01*
X122284360Y-70873116D01*
X122554565Y-71021663D01*
X122554570Y-71021665D01*
X122554572Y-71021666D01*
X122554573Y-71021667D01*
X122841253Y-71135171D01*
X122841256Y-71135172D01*
X123139910Y-71211853D01*
X123139914Y-71211854D01*
X123197098Y-71219078D01*
X123445816Y-71250499D01*
X123445825Y-71250499D01*
X123445828Y-71250500D01*
X123445830Y-71250500D01*
X123754170Y-71250500D01*
X123754172Y-71250500D01*
X123754175Y-71250499D01*
X123754183Y-71250499D01*
X123936722Y-71227438D01*
X124060086Y-71211854D01*
X124358743Y-71135172D01*
X124358746Y-71135171D01*
X124645426Y-71021667D01*
X124645427Y-71021666D01*
X124645425Y-71021666D01*
X124645435Y-71021663D01*
X124915640Y-70873116D01*
X125165096Y-70691876D01*
X125389869Y-70480799D01*
X125586416Y-70243216D01*
X125751635Y-69982871D01*
X125882922Y-69703873D01*
X125978206Y-69410619D01*
X126035984Y-69107736D01*
X126055345Y-68800000D01*
X126050706Y-68726268D01*
X126035985Y-68492274D01*
X126035984Y-68492267D01*
X126035984Y-68492264D01*
X125978206Y-68189381D01*
X125882922Y-67896127D01*
X125831266Y-67786353D01*
X125751637Y-67617132D01*
X125751633Y-67617126D01*
X125586422Y-67356793D01*
X125586420Y-67356791D01*
X125586416Y-67356784D01*
X125389869Y-67119201D01*
X125342807Y-67075007D01*
X125165097Y-66908125D01*
X125165087Y-66908117D01*
X124915651Y-66726891D01*
X124915644Y-66726886D01*
X124915640Y-66726884D01*
X124645435Y-66578337D01*
X124645432Y-66578335D01*
X124645427Y-66578333D01*
X124645426Y-66578332D01*
X124358746Y-66464828D01*
X124358743Y-66464827D01*
X124060089Y-66388146D01*
X124060076Y-66388144D01*
X123754183Y-66349500D01*
X123754172Y-66349500D01*
X123445828Y-66349500D01*
X123445816Y-66349500D01*
X123139923Y-66388144D01*
X123139910Y-66388146D01*
X122841256Y-66464827D01*
X122841253Y-66464828D01*
X122554573Y-66578332D01*
X122554572Y-66578333D01*
X122284360Y-66726884D01*
X122284348Y-66726891D01*
X122034912Y-66908117D01*
X122034902Y-66908125D01*
X121810132Y-67119199D01*
X121613577Y-67356793D01*
X121448366Y-67617126D01*
X121448362Y-67617132D01*
X121317080Y-67896120D01*
X121317078Y-67896125D01*
X121221795Y-68189376D01*
X121164015Y-68492267D01*
X121164014Y-68492274D01*
X121144655Y-68799994D01*
X114422083Y-68799994D01*
X114402286Y-68726263D01*
X114400805Y-68720122D01*
X114358421Y-68522557D01*
X114256967Y-68049642D01*
X114255799Y-68043429D01*
X114146310Y-67366430D01*
X114145464Y-67360198D01*
X114070627Y-66678526D01*
X114070098Y-66672228D01*
X114064613Y-66578337D01*
X114030101Y-65987604D01*
X114029894Y-65981343D01*
X114024844Y-65295551D01*
X114024959Y-65289239D01*
X114054867Y-64604116D01*
X114055303Y-64597825D01*
X114062972Y-64517023D01*
X114120089Y-63915142D01*
X114120846Y-63908874D01*
X114122846Y-63895240D01*
X114220350Y-63230339D01*
X114221426Y-63224118D01*
X114253879Y-63061180D01*
X114355374Y-62551585D01*
X114356765Y-62545425D01*
X114371237Y-62488173D01*
X114524828Y-61880550D01*
X114526529Y-61874480D01*
X114700348Y-61309731D01*
X114729983Y-61259743D01*
X114983766Y-60998902D01*
X114991634Y-60991493D01*
X115308768Y-60718022D01*
X115317266Y-60711319D01*
X115657087Y-60466611D01*
X115666135Y-60460679D01*
X116026044Y-60246606D01*
X116035567Y-60241491D01*
X116412802Y-60059695D01*
X116422754Y-60055424D01*
X116814456Y-59907286D01*
X116824719Y-59903910D01*
X117227831Y-59790582D01*
X117238380Y-59788107D01*
X117649879Y-59710439D01*
X117660597Y-59708899D01*
X118077282Y-59667494D01*
X118088092Y-59666895D01*
X118506831Y-59662066D01*
X118517649Y-59662415D01*
G37*
%TD.AperFunction*%
%TD*%
M02*
