%TF.GenerationSoftware,KiCad,Pcbnew,8.0.6*%
%TF.CreationDate,2024-12-09T18:11:45+01:00*%
%TF.ProjectId,Xmas,586d6173-2e6b-4696-9361-645f70636258,rev?*%
%TF.SameCoordinates,Original*%
%TF.FileFunction,Soldermask,Bot*%
%TF.FilePolarity,Negative*%
%FSLAX46Y46*%
G04 Gerber Fmt 4.6, Leading zero omitted, Abs format (unit mm)*
G04 Created by KiCad (PCBNEW 8.0.6) date 2024-12-09 18:11:45*
%MOMM*%
%LPD*%
G01*
G04 APERTURE LIST*
G04 Aperture macros list*
%AMRoundRect*
0 Rectangle with rounded corners*
0 $1 Rounding radius*
0 $2 $3 $4 $5 $6 $7 $8 $9 X,Y pos of 4 corners*
0 Add a 4 corners polygon primitive as box body*
4,1,4,$2,$3,$4,$5,$6,$7,$8,$9,$2,$3,0*
0 Add four circle primitives for the rounded corners*
1,1,$1+$1,$2,$3*
1,1,$1+$1,$4,$5*
1,1,$1+$1,$6,$7*
1,1,$1+$1,$8,$9*
0 Add four rect primitives between the rounded corners*
20,1,$1+$1,$2,$3,$4,$5,0*
20,1,$1+$1,$4,$5,$6,$7,0*
20,1,$1+$1,$6,$7,$8,$9,0*
20,1,$1+$1,$8,$9,$2,$3,0*%
G04 Aperture macros list end*
%ADD10R,0.950000X0.800000*%
%ADD11R,1.350000X0.400000*%
%ADD12R,0.800000X0.950000*%
%ADD13R,0.450000X0.300000*%
%ADD14R,1.000000X1.600000*%
%ADD15R,1.750000X1.125000*%
%ADD16R,0.450000X0.590000*%
%ADD17R,0.800000X0.900000*%
%ADD18C,0.100000*%
%ADD19R,0.300000X1.140000*%
%ADD20O,1.200000X2.000000*%
%ADD21O,1.200000X2.300000*%
%ADD22C,1.500000*%
%ADD23RoundRect,0.102000X0.500000X1.750000X-0.500000X1.750000X-0.500000X-1.750000X0.500000X-1.750000X0*%
%ADD24RoundRect,0.102000X0.750000X1.700000X-0.750000X1.700000X-0.750000X-1.700000X0.750000X-1.700000X0*%
%ADD25R,0.450000X1.400000*%
%ADD26R,2.000000X1.880000*%
%ADD27R,0.900000X0.800000*%
%ADD28R,1.800000X1.800000*%
G04 APERTURE END LIST*
D10*
%TO.C,R4*%
X145200000Y-111225000D03*
X145200000Y-109575000D03*
%TD*%
D11*
%TO.C,IC1*%
X119575000Y-80825000D03*
X119575000Y-81475000D03*
X119575000Y-82125000D03*
X119575000Y-82775000D03*
X119575000Y-83425000D03*
X119575000Y-84075000D03*
X119575000Y-84725000D03*
X119575000Y-85375000D03*
X119575000Y-86025000D03*
X119575000Y-86675000D03*
X113825000Y-86675000D03*
X113825000Y-86025000D03*
X113825000Y-85375000D03*
X113825000Y-84725000D03*
X113825000Y-84075000D03*
X113825000Y-83425000D03*
X113825000Y-82775000D03*
X113825000Y-82125000D03*
X113825000Y-81475000D03*
X113825000Y-80825000D03*
%TD*%
D12*
%TO.C,C2*%
X142500000Y-110825000D03*
X140850000Y-110825000D03*
%TD*%
D10*
%TO.C,C5*%
X107450000Y-102685000D03*
X107450000Y-101035000D03*
%TD*%
%TO.C,R11*%
X108250000Y-86375000D03*
X108250000Y-88025000D03*
%TD*%
D12*
%TO.C,C10*%
X106025000Y-111950000D03*
X104375000Y-111950000D03*
%TD*%
D10*
%TO.C,R2*%
X128750000Y-104025000D03*
X128750000Y-102375000D03*
%TD*%
D12*
%TO.C,R10*%
X102325000Y-109750000D03*
X103975000Y-109750000D03*
%TD*%
%TO.C,R7*%
X123205000Y-84370000D03*
X121555000Y-84370000D03*
%TD*%
%TO.C,R8*%
X109825000Y-81300000D03*
X111475000Y-81300000D03*
%TD*%
D13*
%TO.C,U1*%
X126300000Y-83300000D03*
X126300000Y-82650000D03*
X126300000Y-82000000D03*
X128250000Y-82000000D03*
X128250000Y-82650000D03*
X128250000Y-83300000D03*
D14*
X127275000Y-82650000D03*
%TD*%
D15*
%TO.C,C8*%
X123900000Y-79437500D03*
X123900000Y-82362500D03*
%TD*%
D10*
%TO.C,C4*%
X147200000Y-92425000D03*
X147200000Y-90775000D03*
%TD*%
D12*
%TO.C,R3*%
X142375000Y-101600000D03*
X144025000Y-101600000D03*
%TD*%
D10*
%TO.C,C7*%
X121850000Y-80825000D03*
X121850000Y-82475000D03*
%TD*%
D16*
%TO.C,D1*%
X139450000Y-78595000D03*
X139450000Y-76485000D03*
%TD*%
D17*
%TO.C,Q2*%
X143350000Y-87375000D03*
X142400000Y-85175000D03*
X141450000Y-87375000D03*
%TD*%
D12*
%TO.C,LED13*%
X144737000Y-103600000D03*
X146387000Y-103600000D03*
%TD*%
D18*
%TO.C,CONN2*%
X133400000Y-106600000D03*
X127620000Y-106600000D03*
D19*
X133860000Y-105530000D03*
X133060000Y-105530000D03*
X131760000Y-105530000D03*
X130760000Y-105530000D03*
X130260000Y-105530000D03*
X129260000Y-105530000D03*
X127960000Y-105530000D03*
X127160000Y-105530000D03*
X127460000Y-105530000D03*
X128260000Y-105530000D03*
X128760000Y-105530000D03*
X129760000Y-105530000D03*
X131260000Y-105530000D03*
X132260000Y-105530000D03*
X132760000Y-105530000D03*
X133560000Y-105530000D03*
D20*
X134835000Y-110300000D03*
D21*
X134835000Y-106120000D03*
D20*
X126185000Y-110300000D03*
D21*
X126185000Y-106120000D03*
%TD*%
D12*
%TO.C,R6*%
X104025000Y-84700000D03*
X105675000Y-84700000D03*
%TD*%
D10*
%TO.C,R9*%
X147650000Y-110800000D03*
X147650000Y-109150000D03*
%TD*%
D22*
%TO.C,TP2*%
X107250000Y-77800000D03*
%TD*%
D12*
%TO.C,C6*%
X136775000Y-111800000D03*
X138425000Y-111800000D03*
%TD*%
D23*
%TO.C,CONN1*%
X112000000Y-110100000D03*
X114000000Y-110100000D03*
D24*
X116350000Y-104350000D03*
X109650000Y-104350000D03*
%TD*%
D25*
%TO.C,IC2*%
X142575000Y-108075000D03*
X141925000Y-108075000D03*
X141275000Y-108075000D03*
X140625000Y-108075000D03*
X140625000Y-103675000D03*
X141275000Y-103675000D03*
X141925000Y-103675000D03*
X142575000Y-103675000D03*
D26*
X141600000Y-105875000D03*
%TD*%
D10*
%TO.C,R5*%
X145525000Y-105875000D03*
X145525000Y-107525000D03*
%TD*%
D22*
%TO.C,TP5*%
X114750000Y-77800000D03*
%TD*%
D12*
%TO.C,C9*%
X141775000Y-112750000D03*
X143425000Y-112750000D03*
%TD*%
D22*
%TO.C,TP3*%
X109750000Y-77800000D03*
%TD*%
D10*
%TO.C,C13*%
X136930000Y-78485000D03*
X136930000Y-76835000D03*
%TD*%
%TO.C,C11*%
X137225000Y-83950000D03*
X137225000Y-85600000D03*
%TD*%
D12*
%TO.C,R12*%
X133475000Y-85600000D03*
X135125000Y-85600000D03*
%TD*%
D15*
%TO.C,C3*%
X137700000Y-106062500D03*
X137700000Y-103137500D03*
%TD*%
D22*
%TO.C,TP1*%
X104750000Y-77800000D03*
%TD*%
D27*
%TO.C,Q1*%
X106250000Y-86250000D03*
X104050000Y-87200000D03*
X106250000Y-88150000D03*
%TD*%
D22*
%TO.C,TP4*%
X112250000Y-77800000D03*
%TD*%
D28*
%TO.C,SPK1*%
X147975000Y-76725000D03*
X147975000Y-82875000D03*
X141825000Y-82875000D03*
X141825000Y-76725000D03*
%TD*%
D12*
%TO.C,R14*%
X133450000Y-79450000D03*
X131800000Y-79450000D03*
%TD*%
D10*
%TO.C,R13*%
X139230000Y-84055000D03*
X139230000Y-85705000D03*
%TD*%
D12*
%TO.C,R1*%
X131475000Y-103250000D03*
X133125000Y-103250000D03*
%TD*%
%TO.C,C1*%
X104125000Y-83050000D03*
X105775000Y-83050000D03*
%TD*%
D10*
%TO.C,C12*%
X145875000Y-86850000D03*
X145875000Y-85200000D03*
%TD*%
M02*
