M48
; DRILL file {KiCad 8.0.6} date 2024-12-09T18:12:00+0100
; FORMAT={-:-/ absolute / metric / decimal}
; #@! TF.CreationDate,2024-12-09T18:12:00+01:00
; #@! TF.GenerationSoftware,Kicad,Pcbnew,8.0.6
; #@! TF.FileFunction,Plated,1,2,PTH
FMAT,2
METRIC
; #@! TA.AperFunction,Plated,PTH,ViaDrill
T1C0.300
; #@! TA.AperFunction,Plated,PTH,ComponentDrill
T2C0.600
%
G90
G05
T1
X101.5Y-117.4
X102.15Y-78.5
X102.55Y-75.8
X103.0Y-92.2
X103.0Y-93.8
X103.0Y-96.4
X103.4Y-81.6
X104.75Y-75.8
X104.8Y-103.2
X104.8Y-104.4
X104.8Y-105.6
X104.9Y-110.3
X105.525Y-96.7
X105.939Y-114.111
X106.55Y-109.45
X107.2Y-80.45
X107.4Y-84.2
X107.4Y-85.1
X108.4Y-80.1
X108.4Y-81.55
X108.525Y-107.3
X108.525Y-108.8
X109.8Y-90.6
X109.9Y-83.1
X109.9Y-84.0
X110.0Y-86.1
X110.375Y-111.25
X110.4Y-100.55
X110.6Y-90.6
X110.8Y-77.0
X110.8Y-84.7
X111.2Y-86.0
X111.6Y-83.625
X111.65Y-82.8
X112.5Y-89.45
X112.525Y-83.65
X112.55Y-82.825
X112.575Y-86.025
X112.6Y-80.8
X112.6Y-88.45
X113.2Y-76.8
X114.325Y-89.45
X114.6Y-99.45
X114.6Y-100.6
X115.4Y-87.0
X115.8Y-99.4
X116.175Y-110.8
X116.275Y-79.95
X116.5Y-87.0
X116.6Y-99.4
X116.6Y-99.4
X117.05Y-77.85
X117.1Y-79.95
X117.4Y-87.0
X117.85Y-109.45
X117.9Y-110.5
X118.025Y-79.95
X118.25Y-81.55
X119.75Y-96.7
X121.35Y-85.775
X121.4Y-87.1
X121.525Y-79.525
X121.6Y-96.0
X121.615Y-109.45
X122.175Y-85.775
X122.2Y-87.1
X122.2Y-111.4
X122.6Y-96.0
X123.8Y-96.0
X123.9Y-80.85
X125.83Y-86.96
X125.9Y-90.55
X126.1Y-103.65
X126.475Y-78.5
X127.15Y-103.65
X127.25Y-108.05
X128.8Y-101.3
X129.1Y-91.45
X129.2Y-82.7
X130.125Y-97.775
X130.775Y-77.475
X131.225Y-85.575
X131.5Y-88.05
X131.7Y-97.7
X132.0Y-107.2
X132.175Y-85.575
X132.25Y-100.6
X135.55Y-77.5
X136.7Y-82.8
X137.4Y-93.325
X137.68Y-107.26
X137.7Y-82.8
X138.3Y-76.9
X138.8Y-82.8
X139.47Y-107.01
X139.475Y-105.8
X139.5Y-104.6
X139.8Y-109.45
X139.9Y-82.8
X140.05Y-94.9
X140.25Y-100.75
X140.3Y-81.5
X140.3Y-87.5
X140.5Y-79.2
X140.5Y-79.9
X141.0Y-100.75
X143.0Y-91.15
X143.0Y-97.6
X143.0Y-98.5
X143.2Y-84.3
X143.425Y-103.675
X143.6Y-108.8
X143.711Y-114.111
X144.085Y-88.415
X144.1Y-84.3
X145.0Y-84.3
X145.575Y-97.925
X146.1Y-74.9
X147.0Y-84.3
X147.075Y-99.45
X147.1Y-74.9
X147.15Y-89.45
X147.475Y-97.475
X148.1Y-74.9
T2
X126.185Y-106.67G85X126.185Y-105.57
G05
X126.185Y-110.65G85X126.185Y-109.95
G05
X134.835Y-106.67G85X134.835Y-105.57
G05
X134.835Y-110.65G85X134.835Y-109.95
G05
M30
