%TF.GenerationSoftware,KiCad,Pcbnew,8.0.6*%
%TF.CreationDate,2024-12-09T18:11:45+01:00*%
%TF.ProjectId,Xmas,586d6173-2e6b-4696-9361-645f70636258,rev?*%
%TF.SameCoordinates,Original*%
%TF.FileFunction,Legend,Top*%
%TF.FilePolarity,Positive*%
%FSLAX46Y46*%
G04 Gerber Fmt 4.6, Leading zero omitted, Abs format (unit mm)*
G04 Created by KiCad (PCBNEW 8.0.6) date 2024-12-09 18:11:45*
%MOMM*%
%LPD*%
G01*
G04 APERTURE LIST*
G04 Aperture macros list*
%AMRotRect*
0 Rectangle, with rotation*
0 The origin of the aperture is its center*
0 $1 length*
0 $2 width*
0 $3 Rotation angle, in degrees counterclockwise*
0 Add horizontal line*
21,1,$1,$2,0,0,$3*%
G04 Aperture macros list end*
%ADD10C,0.850000*%
%ADD11C,1.000000*%
%ADD12C,0.300000*%
%ADD13C,0.100000*%
%ADD14C,0.200000*%
%ADD15RotRect,1.100000X0.700000X300.000000*%
%ADD16RotRect,0.700000X0.250000X300.000000*%
%ADD17R,0.700000X0.700000*%
%ADD18RotRect,1.100000X0.700000X60.000000*%
%ADD19RotRect,0.700000X0.250000X60.000000*%
%ADD20C,0.100000*%
%ADD21O,1.200000X2.000000*%
%ADD22O,1.200000X2.300000*%
G04 APERTURE END LIST*
D10*
X129199998Y-65233913D02*
G75*
G02*
X124900000Y-77000001I-10087808J-2982117D01*
G01*
D11*
X146118034Y-81000000D02*
G75*
G02*
X143881966Y-81000000I-1118034J0D01*
G01*
X143881966Y-81000000D02*
G75*
G02*
X146118034Y-81000000I1118034J0D01*
G01*
X146118034Y-110000000D02*
G75*
G02*
X143881966Y-110000000I-1118034J0D01*
G01*
X143881966Y-110000000D02*
G75*
G02*
X146118034Y-110000000I1118034J0D01*
G01*
X131118034Y-110000000D02*
G75*
G02*
X128881966Y-110000000I-1118034J0D01*
G01*
X128881966Y-110000000D02*
G75*
G02*
X131118034Y-110000000I1118034J0D01*
G01*
X121118034Y-90000000D02*
G75*
G02*
X118881966Y-90000000I-1118034J0D01*
G01*
X118881966Y-90000000D02*
G75*
G02*
X121118034Y-90000000I1118034J0D01*
G01*
D10*
X125000000Y-120000000D02*
X125000000Y-77000000D01*
D11*
X138618034Y-90000000D02*
G75*
G02*
X136381966Y-90000000I-1118034J0D01*
G01*
X136381966Y-90000000D02*
G75*
G02*
X138618034Y-90000000I1118034J0D01*
G01*
X113618034Y-81000000D02*
G75*
G02*
X111381966Y-81000000I-1118034J0D01*
G01*
X111381966Y-81000000D02*
G75*
G02*
X113618034Y-81000000I1118034J0D01*
G01*
X106118034Y-90000000D02*
G75*
G02*
X103881966Y-90000000I-1118034J0D01*
G01*
X103881966Y-90000000D02*
G75*
G02*
X106118034Y-90000000I1118034J0D01*
G01*
D10*
X95000000Y-95000000D02*
X150500000Y-95000000D01*
X118400982Y-65662130D02*
G75*
G02*
X123555745Y-65505425I2648418J-2258370D01*
G01*
D11*
X113618034Y-110000000D02*
G75*
G02*
X111381966Y-110000000I-1118034J0D01*
G01*
X111381966Y-110000000D02*
G75*
G02*
X113618034Y-110000000I1118034J0D01*
G01*
X138618034Y-100000000D02*
G75*
G02*
X136381966Y-100000000I-1118034J0D01*
G01*
X136381966Y-100000000D02*
G75*
G02*
X138618034Y-100000000I1118034J0D01*
G01*
D10*
X123857893Y-65306745D02*
G75*
G02*
X129199999Y-65150001I2742107J-2343255D01*
G01*
D11*
X121118034Y-100000000D02*
G75*
G02*
X118881966Y-100000000I-1118034J0D01*
G01*
X118881966Y-100000000D02*
G75*
G02*
X121118034Y-100000000I1118034J0D01*
G01*
X106118034Y-100000000D02*
G75*
G02*
X103881966Y-100000000I-1118034J0D01*
G01*
X103881966Y-100000000D02*
G75*
G02*
X106118034Y-100000000I1118034J0D01*
G01*
D10*
X124909270Y-77052473D02*
G75*
G02*
X118400984Y-65823529I2860430J9158473D01*
G01*
D11*
X131118034Y-81000000D02*
G75*
G02*
X128881966Y-81000000I-1118034J0D01*
G01*
X128881966Y-81000000D02*
G75*
G02*
X131118034Y-81000000I1118034J0D01*
G01*
D12*
G36*
X107513287Y-75406589D02*
G01*
X107488767Y-74411819D01*
X107282841Y-75437011D01*
X107258013Y-75509292D01*
X107212837Y-75563711D01*
X107143033Y-75590074D01*
X107094863Y-75586577D01*
X107025986Y-75553648D01*
X106997235Y-75519007D01*
X106977408Y-75447005D01*
X106984306Y-75375428D01*
X107230797Y-74215781D01*
X107255053Y-74145579D01*
X107306742Y-74092345D01*
X107314311Y-74088956D01*
X107388100Y-74075123D01*
X107466064Y-74083383D01*
X107558521Y-74103035D01*
X107632381Y-74122948D01*
X107681952Y-74146126D01*
X107726980Y-74205266D01*
X107729969Y-74216260D01*
X107741085Y-74291163D01*
X107745626Y-74354051D01*
X107789366Y-75149152D01*
X108152721Y-74440582D01*
X108189174Y-74373082D01*
X108222711Y-74320996D01*
X108284285Y-74278779D01*
X108295103Y-74276455D01*
X108371352Y-74277799D01*
X108425389Y-74287294D01*
X108518204Y-74307022D01*
X108588087Y-74329117D01*
X108650911Y-74370732D01*
X108653854Y-74373685D01*
X108684809Y-74444628D01*
X108678923Y-74523589D01*
X108432432Y-75683237D01*
X108407747Y-75754845D01*
X108362733Y-75808503D01*
X108292574Y-75834469D01*
X108243760Y-75830782D01*
X108176204Y-75797696D01*
X108147794Y-75762442D01*
X108128127Y-75689684D01*
X108135017Y-75618147D01*
X108363878Y-74597829D01*
X107936867Y-75496624D01*
X107902806Y-75564404D01*
X107869349Y-75625725D01*
X107818056Y-75680696D01*
X107794492Y-75695960D01*
X107722443Y-75714442D01*
X107670386Y-75708908D01*
X107601731Y-75681157D01*
X107580959Y-75664430D01*
X107538493Y-75602825D01*
X107533857Y-75589996D01*
X107519155Y-75516338D01*
X107518102Y-75501999D01*
X107514298Y-75427963D01*
X107513287Y-75406589D01*
G37*
G36*
X109308315Y-74863549D02*
G01*
X109385567Y-74874966D01*
X109393438Y-74876597D01*
X109471822Y-74897916D01*
X109542488Y-74926912D01*
X109612762Y-74968708D01*
X109660666Y-75007933D01*
X109713292Y-75064301D01*
X109755097Y-75125302D01*
X109788856Y-75198514D01*
X109798619Y-75229400D01*
X109814755Y-75306810D01*
X109819149Y-75382676D01*
X109811801Y-75456997D01*
X109808922Y-75471676D01*
X109784324Y-75543294D01*
X109730984Y-75598205D01*
X109713981Y-75604686D01*
X109638725Y-75613961D01*
X109559362Y-75606478D01*
X109532300Y-75601276D01*
X109005513Y-75489304D01*
X108999465Y-75564895D01*
X109011467Y-75639266D01*
X109042539Y-75709767D01*
X109083823Y-75758770D01*
X109147664Y-75800506D01*
X109205748Y-75819519D01*
X109279029Y-75827678D01*
X109294756Y-75827202D01*
X109368076Y-75813373D01*
X109378605Y-75809817D01*
X109446567Y-75780513D01*
X109458432Y-75774348D01*
X109524653Y-75737400D01*
X109557186Y-75718556D01*
X109629616Y-75712602D01*
X109695717Y-75748801D01*
X109700462Y-75754628D01*
X109716147Y-75828278D01*
X109715025Y-75834132D01*
X109681470Y-75899504D01*
X109664783Y-75918963D01*
X109605114Y-75968166D01*
X109552607Y-75997371D01*
X109480661Y-76023754D01*
X109408671Y-76038713D01*
X109384720Y-76041839D01*
X109308993Y-76044915D01*
X109234428Y-76038867D01*
X109169757Y-76027609D01*
X109089045Y-76006503D01*
X109015783Y-75979080D01*
X108949973Y-75945340D01*
X108880835Y-75896513D01*
X108822428Y-75838591D01*
X108781951Y-75783373D01*
X108744108Y-75710496D01*
X108718456Y-75632177D01*
X108704995Y-75548418D01*
X108703090Y-75474462D01*
X108709651Y-75396728D01*
X108720995Y-75331820D01*
X108727766Y-75306053D01*
X109045588Y-75306053D01*
X109519696Y-75406828D01*
X109523482Y-75327288D01*
X109509805Y-75252581D01*
X109487351Y-75204813D01*
X109438626Y-75150077D01*
X109372287Y-75114222D01*
X109335729Y-75104042D01*
X109259652Y-75099307D01*
X109185353Y-75121408D01*
X109160735Y-75136137D01*
X109104506Y-75189695D01*
X109064081Y-75257923D01*
X109045588Y-75306053D01*
X108727766Y-75306053D01*
X108740715Y-75256771D01*
X108766930Y-75186614D01*
X108803268Y-75115091D01*
X108806961Y-75108883D01*
X108851447Y-75045365D01*
X108902448Y-74990755D01*
X108954467Y-74948841D01*
X109017655Y-74911593D01*
X109086749Y-74884451D01*
X109154688Y-74868548D01*
X109233705Y-74861033D01*
X109308315Y-74863549D01*
G37*
G36*
X110254406Y-75825180D02*
G01*
X110204895Y-76058113D01*
X110179714Y-76130505D01*
X110133457Y-76184508D01*
X110063122Y-76210758D01*
X110015841Y-76207450D01*
X109947978Y-76174298D01*
X109919517Y-76139033D01*
X109899730Y-76066842D01*
X109906360Y-75996530D01*
X110069900Y-75227134D01*
X110093245Y-75151536D01*
X110137808Y-75086505D01*
X110206517Y-75056691D01*
X110257440Y-75060246D01*
X110324768Y-75089727D01*
X110354839Y-75128891D01*
X110372207Y-75201736D01*
X110369948Y-75228736D01*
X110427000Y-75180659D01*
X110474912Y-75152541D01*
X110550312Y-75132621D01*
X110623775Y-75138158D01*
X110629416Y-75139312D01*
X110699998Y-75161980D01*
X110766161Y-75199039D01*
X110795208Y-75220996D01*
X110844439Y-75278480D01*
X110856467Y-75355287D01*
X110855544Y-75360044D01*
X110818993Y-75425944D01*
X110798233Y-75441125D01*
X110727494Y-75461039D01*
X110707987Y-75458649D01*
X110640396Y-75426003D01*
X110637051Y-75424094D01*
X110568085Y-75391860D01*
X110540314Y-75384055D01*
X110467014Y-75384728D01*
X110442176Y-75394658D01*
X110386401Y-75444518D01*
X110366924Y-75473798D01*
X110333655Y-75541884D01*
X110307307Y-75615066D01*
X110285917Y-75690598D01*
X110267710Y-75765013D01*
X110254406Y-75825180D01*
G37*
G36*
X111140268Y-76013475D02*
G01*
X111090757Y-76246408D01*
X111065576Y-76318801D01*
X111019319Y-76372803D01*
X110948983Y-76399053D01*
X110901703Y-76395746D01*
X110833840Y-76362593D01*
X110805379Y-76327329D01*
X110785592Y-76255138D01*
X110792222Y-76184826D01*
X110955762Y-75415430D01*
X110979107Y-75339832D01*
X111023670Y-75274801D01*
X111092378Y-75244986D01*
X111143302Y-75248542D01*
X111210630Y-75278022D01*
X111240701Y-75317187D01*
X111258069Y-75390031D01*
X111255809Y-75417032D01*
X111312862Y-75368954D01*
X111360773Y-75340837D01*
X111436174Y-75320917D01*
X111509637Y-75326454D01*
X111515278Y-75327608D01*
X111585860Y-75350276D01*
X111652023Y-75387334D01*
X111681070Y-75409292D01*
X111730301Y-75466776D01*
X111742329Y-75543583D01*
X111741406Y-75548340D01*
X111704855Y-75614240D01*
X111684095Y-75629421D01*
X111613356Y-75649334D01*
X111593849Y-75646944D01*
X111526258Y-75614299D01*
X111522913Y-75612390D01*
X111453946Y-75580156D01*
X111426175Y-75572351D01*
X111352875Y-75573024D01*
X111328037Y-75582953D01*
X111272263Y-75632814D01*
X111252786Y-75662094D01*
X111219516Y-75730180D01*
X111193169Y-75803361D01*
X111171779Y-75878894D01*
X111153572Y-75953309D01*
X111140268Y-76013475D01*
G37*
G36*
X111891403Y-76631208D02*
G01*
X111927752Y-76578257D01*
X111772434Y-75650820D01*
X111762116Y-75575620D01*
X111764024Y-75531798D01*
X111797392Y-75465767D01*
X111799044Y-75463958D01*
X111862029Y-75423214D01*
X111864429Y-75422423D01*
X111937960Y-75417472D01*
X111940291Y-75417947D01*
X112007761Y-75450838D01*
X112029004Y-75479877D01*
X112053103Y-75551248D01*
X112061555Y-75605153D01*
X112146095Y-76299933D01*
X112483680Y-75744319D01*
X112523505Y-75680309D01*
X112557751Y-75631968D01*
X112614007Y-75582689D01*
X112619665Y-75580331D01*
X112693531Y-75578071D01*
X112696427Y-75578669D01*
X112758480Y-75610961D01*
X112796347Y-75670697D01*
X112799380Y-75741008D01*
X112773727Y-75794734D01*
X112737025Y-75860556D01*
X112735688Y-75862682D01*
X112176031Y-76731784D01*
X112131410Y-76799053D01*
X112085113Y-76861136D01*
X112041734Y-76910738D01*
X111983855Y-76958554D01*
X111917056Y-76990996D01*
X111896333Y-76997441D01*
X111821014Y-77008107D01*
X111746232Y-77004161D01*
X111685481Y-76993823D01*
X111608291Y-76973964D01*
X111536566Y-76945737D01*
X111502926Y-76925805D01*
X111459449Y-76864045D01*
X111460229Y-76807736D01*
X111496200Y-76743201D01*
X111509620Y-76733961D01*
X111583314Y-76721095D01*
X111608887Y-76725097D01*
X111653744Y-76741373D01*
X111694812Y-76756095D01*
X111766717Y-76757895D01*
X111821338Y-76721189D01*
X111868801Y-76663016D01*
X111891403Y-76631208D01*
G37*
G36*
X134738478Y-76965780D02*
G01*
X134745573Y-77043208D01*
X134738050Y-77118638D01*
X134735929Y-77129999D01*
X134714740Y-77204915D01*
X134683139Y-77275751D01*
X134659366Y-77317817D01*
X134613113Y-77381611D01*
X134561081Y-77435276D01*
X134499540Y-77484817D01*
X134492863Y-77489544D01*
X134428427Y-77528407D01*
X134356251Y-77560679D01*
X134285595Y-77583832D01*
X134228590Y-77597779D01*
X134156289Y-77610916D01*
X134080480Y-77619421D01*
X134008570Y-77621699D01*
X133933986Y-77617063D01*
X133856977Y-77603033D01*
X133817144Y-77591597D01*
X133745633Y-77562533D01*
X133681594Y-77526397D01*
X133645112Y-77501192D01*
X133586649Y-77449849D01*
X133532681Y-77391740D01*
X133509290Y-77362638D01*
X133466353Y-77300642D01*
X133428655Y-77234055D01*
X133406435Y-77187114D01*
X133377419Y-77112888D01*
X133355336Y-77040834D01*
X133340480Y-76979025D01*
X133326374Y-76900352D01*
X133318049Y-76824250D01*
X133315503Y-76750719D01*
X133319671Y-76669831D01*
X133323180Y-76640364D01*
X133337552Y-76564366D01*
X133358762Y-76492345D01*
X133386810Y-76424302D01*
X133421697Y-76360236D01*
X133468250Y-76293572D01*
X133521807Y-76233655D01*
X133582368Y-76180485D01*
X133619040Y-76153862D01*
X133689222Y-76111605D01*
X133763946Y-76077330D01*
X133834179Y-76053565D01*
X133889208Y-76039880D01*
X133967707Y-76026833D01*
X134043913Y-76021549D01*
X134117826Y-76024030D01*
X134199491Y-76036372D01*
X134229343Y-76043615D01*
X134304716Y-76067928D01*
X134372744Y-76098438D01*
X134440497Y-76140167D01*
X134486767Y-76178045D01*
X134541315Y-76235816D01*
X134583502Y-76300615D01*
X134607025Y-76366726D01*
X134603300Y-76441646D01*
X134588271Y-76474088D01*
X134534288Y-76525781D01*
X134501654Y-76537070D01*
X134427628Y-76537934D01*
X134401724Y-76526849D01*
X134344150Y-76476014D01*
X134313817Y-76441034D01*
X134262490Y-76385820D01*
X134204524Y-76338670D01*
X134144981Y-76305753D01*
X134069542Y-76285169D01*
X133992672Y-76284276D01*
X133944624Y-76291783D01*
X133871398Y-76314338D01*
X133799591Y-76354707D01*
X133740457Y-76410642D01*
X133699109Y-76472354D01*
X133689078Y-76492175D01*
X133661832Y-76567914D01*
X133648540Y-76640309D01*
X133644537Y-76719604D01*
X133649823Y-76805800D01*
X133661323Y-76882902D01*
X133667729Y-76915084D01*
X133685583Y-76987953D01*
X133710050Y-77063081D01*
X133742753Y-77137210D01*
X133776426Y-77193867D01*
X133823710Y-77252530D01*
X133881570Y-77302044D01*
X133945559Y-77335827D01*
X134021437Y-77355304D01*
X134095316Y-77357803D01*
X134158839Y-77348923D01*
X134232064Y-77326884D01*
X134300677Y-77290223D01*
X134356788Y-77240552D01*
X134400437Y-77178305D01*
X134431171Y-77104021D01*
X134447903Y-77026045D01*
X134461781Y-76951053D01*
X134475930Y-76912967D01*
X134531489Y-76861836D01*
X134566154Y-76851091D01*
X134642363Y-76855428D01*
X134674613Y-76871484D01*
X134725021Y-76926828D01*
X134738478Y-76965780D01*
G37*
G36*
X135062062Y-75977107D02*
G01*
X135142194Y-76354100D01*
X135185643Y-76292367D01*
X135211022Y-76263812D01*
X135268243Y-76214531D01*
X135313424Y-76186987D01*
X135383276Y-76157299D01*
X135443001Y-76141091D01*
X135521634Y-76130908D01*
X135596271Y-76134637D01*
X135643810Y-76144852D01*
X135715136Y-76174474D01*
X135777499Y-76220095D01*
X135803260Y-76246547D01*
X135848019Y-76309133D01*
X135868129Y-76352614D01*
X135891600Y-76423163D01*
X135909295Y-76495182D01*
X136022485Y-77027702D01*
X136029001Y-77102882D01*
X136009838Y-77170846D01*
X135956858Y-77223630D01*
X135911440Y-77240078D01*
X135837027Y-77240934D01*
X135774603Y-77202482D01*
X135736653Y-77132415D01*
X135725330Y-77090490D01*
X135625393Y-76620324D01*
X135605721Y-76545499D01*
X135576055Y-76473992D01*
X135546283Y-76429639D01*
X135482001Y-76390210D01*
X135404467Y-76389270D01*
X135391769Y-76391692D01*
X135320186Y-76420299D01*
X135274234Y-76458999D01*
X135233675Y-76520965D01*
X135214121Y-76586763D01*
X135214609Y-76661331D01*
X135224799Y-76736116D01*
X135238856Y-76808857D01*
X135317160Y-77177249D01*
X135323898Y-77251927D01*
X135305870Y-77319730D01*
X135252545Y-77373231D01*
X135205116Y-77390212D01*
X135130721Y-77391153D01*
X135063298Y-77346910D01*
X135027366Y-77273573D01*
X135019234Y-77241699D01*
X134764213Y-76041915D01*
X134757087Y-75966574D01*
X134774427Y-75899663D01*
X134826913Y-75847306D01*
X134873618Y-75830637D01*
X134950323Y-75831234D01*
X134994101Y-75852970D01*
X135039981Y-75910663D01*
X135062062Y-75977107D01*
G37*
G36*
X136511434Y-76679567D02*
G01*
X136560946Y-76912500D01*
X136567386Y-76988875D01*
X136547094Y-77057024D01*
X136493516Y-77109613D01*
X136448978Y-77125821D01*
X136373498Y-77123138D01*
X136333154Y-77102498D01*
X136285715Y-77044597D01*
X136263172Y-76977666D01*
X136099632Y-76208271D01*
X136090211Y-76129713D01*
X136104471Y-76052179D01*
X136155112Y-75996996D01*
X136203079Y-75979532D01*
X136276577Y-75979078D01*
X136319978Y-76002626D01*
X136365473Y-76062109D01*
X136374391Y-76087694D01*
X136406957Y-76020567D01*
X136439289Y-75975393D01*
X136500069Y-75926527D01*
X136569433Y-75901706D01*
X136575055Y-75900466D01*
X136648755Y-75892465D01*
X136724271Y-75899409D01*
X136759738Y-75907654D01*
X136828093Y-75940144D01*
X136870322Y-76005418D01*
X136871413Y-76010140D01*
X136864827Y-76085209D01*
X136852036Y-76107521D01*
X136795512Y-76154485D01*
X136776720Y-76160236D01*
X136701694Y-76157905D01*
X136697862Y-76157521D01*
X136621747Y-76156126D01*
X136593202Y-76160291D01*
X136526513Y-76190720D01*
X136507861Y-76209893D01*
X136477189Y-76278128D01*
X136471305Y-76312799D01*
X136468605Y-76388531D01*
X136474301Y-76466101D01*
X136485482Y-76543804D01*
X136499116Y-76619191D01*
X136511434Y-76679567D01*
G37*
G36*
X137292095Y-75924092D02*
G01*
X137461881Y-76722873D01*
X137468048Y-76797962D01*
X137447648Y-76865605D01*
X137394070Y-76918194D01*
X137349532Y-76934402D01*
X137273319Y-76931436D01*
X137233121Y-76910080D01*
X137186222Y-76851867D01*
X137164085Y-76786171D01*
X136996051Y-75995633D01*
X136989742Y-75921814D01*
X137008949Y-75855432D01*
X137061594Y-75803685D01*
X137105784Y-75787656D01*
X137182408Y-75789804D01*
X137223247Y-75809881D01*
X137272685Y-75867382D01*
X137292095Y-75924092D01*
G37*
G36*
X137084634Y-75672296D02*
G01*
X137007991Y-75672295D01*
X136970867Y-75658648D01*
X136918894Y-75606817D01*
X136904798Y-75566320D01*
X136909449Y-75492583D01*
X136929004Y-75458174D01*
X136987656Y-75410035D01*
X137026135Y-75397076D01*
X137102573Y-75398178D01*
X137135732Y-75410487D01*
X137188232Y-75461691D01*
X137202594Y-75503021D01*
X137200259Y-75576701D01*
X137180072Y-75613806D01*
X137122751Y-75659679D01*
X137084634Y-75672296D01*
G37*
G36*
X138587617Y-76279836D02*
G01*
X138597320Y-76358802D01*
X138591763Y-76432603D01*
X138573469Y-76495212D01*
X138535157Y-76563594D01*
X138484593Y-76618918D01*
X138432233Y-76658947D01*
X138363147Y-76697531D01*
X138291711Y-76726657D01*
X138220848Y-76748092D01*
X138173040Y-76759361D01*
X138099629Y-76771921D01*
X138021881Y-76777748D01*
X137941503Y-76773911D01*
X137903686Y-76767922D01*
X137828425Y-76747221D01*
X137760013Y-76714964D01*
X137718081Y-76684147D01*
X137668994Y-76629076D01*
X137637276Y-76560252D01*
X137635140Y-76551208D01*
X137641918Y-76476622D01*
X137652260Y-76457303D01*
X137709153Y-76410096D01*
X137734591Y-76402348D01*
X137808780Y-76407976D01*
X137812647Y-76410102D01*
X137869739Y-76458056D01*
X137873563Y-76462326D01*
X137931293Y-76514103D01*
X137992920Y-76546324D01*
X138070380Y-76557623D01*
X138149178Y-76548658D01*
X138155325Y-76547386D01*
X138224938Y-76523787D01*
X138276099Y-76486507D01*
X138310727Y-76419562D01*
X138309350Y-76401533D01*
X138272080Y-76335470D01*
X138237333Y-76316461D01*
X138161337Y-76300778D01*
X138087975Y-76294919D01*
X138048941Y-76293581D01*
X137968271Y-76289334D01*
X137888124Y-76281834D01*
X137811495Y-76270203D01*
X137798860Y-76267708D01*
X137722959Y-76245487D01*
X137656908Y-76212024D01*
X137629745Y-76192788D01*
X137578176Y-76136882D01*
X137547058Y-76070235D01*
X137539389Y-76040824D01*
X137533529Y-75965023D01*
X137548073Y-75888755D01*
X137555976Y-75866879D01*
X137593341Y-75799252D01*
X137643759Y-75743098D01*
X137680230Y-75713121D01*
X137747422Y-75671757D01*
X137818646Y-75641753D01*
X137891006Y-75620938D01*
X137908148Y-75617108D01*
X137980597Y-75604585D01*
X138055171Y-75598434D01*
X138108046Y-75598964D01*
X138183515Y-75607195D01*
X138258304Y-75627115D01*
X138266794Y-75630393D01*
X138334195Y-75665314D01*
X138375480Y-75699430D01*
X138418072Y-75759886D01*
X138427505Y-75789125D01*
X138422433Y-75862398D01*
X138410972Y-75884029D01*
X138352597Y-75929550D01*
X138319736Y-75939379D01*
X138245554Y-75934213D01*
X138236053Y-75929824D01*
X138172984Y-75888171D01*
X138148950Y-75868934D01*
X138085516Y-75830213D01*
X138066197Y-75823225D01*
X137992876Y-75817180D01*
X137951665Y-75823599D01*
X137881666Y-75848076D01*
X137841368Y-75877381D01*
X137809390Y-75943542D01*
X137810916Y-75956142D01*
X137857139Y-76011489D01*
X137929346Y-76031044D01*
X137959735Y-76034253D01*
X138035935Y-76038562D01*
X138109182Y-76041200D01*
X138136663Y-76041966D01*
X138217413Y-76046485D01*
X138296428Y-76056582D01*
X138365166Y-76072051D01*
X138434364Y-76097437D01*
X138499540Y-76137220D01*
X138514266Y-76149727D01*
X138560938Y-76208068D01*
X138587617Y-76279836D01*
G37*
G36*
X138663283Y-75504541D02*
G01*
X138681918Y-75500580D01*
X138647946Y-75340753D01*
X138633809Y-75268034D01*
X138628068Y-75229617D01*
X138633470Y-75156285D01*
X138634130Y-75154167D01*
X138673689Y-75091824D01*
X138740368Y-75056696D01*
X138742887Y-75056140D01*
X138816769Y-75060277D01*
X138854747Y-75078434D01*
X138905648Y-75134112D01*
X138908966Y-75141444D01*
X138931365Y-75211842D01*
X138941225Y-75254443D01*
X138980072Y-75437206D01*
X139069303Y-75418239D01*
X139145547Y-75417966D01*
X139173274Y-75429849D01*
X139220048Y-75486686D01*
X139225120Y-75504601D01*
X139217113Y-75579369D01*
X139195784Y-75604473D01*
X139130390Y-75640577D01*
X139068600Y-75658100D01*
X139028822Y-75666555D01*
X139131044Y-76147472D01*
X139148718Y-76220608D01*
X139154943Y-76240524D01*
X139186598Y-76285483D01*
X139246668Y-76291442D01*
X139308986Y-76269207D01*
X139373096Y-76246591D01*
X139447072Y-76261580D01*
X139491303Y-76322231D01*
X139492561Y-76327570D01*
X139482959Y-76402270D01*
X139438517Y-76452171D01*
X139370834Y-76491293D01*
X139295761Y-76518331D01*
X139230914Y-76534503D01*
X139153407Y-76546478D01*
X139080021Y-76546735D01*
X139019072Y-76533461D01*
X138953795Y-76496224D01*
X138906698Y-76439979D01*
X138901792Y-76431043D01*
X138873025Y-76363018D01*
X138851464Y-76291734D01*
X138837384Y-76231990D01*
X138730668Y-75729930D01*
X138705941Y-75735186D01*
X138631419Y-75736347D01*
X138600103Y-75723598D01*
X138553232Y-75666306D01*
X138548181Y-75648488D01*
X138557310Y-75573948D01*
X138566932Y-75558731D01*
X138628714Y-75514556D01*
X138663283Y-75504541D01*
G37*
G36*
X140416587Y-75698558D02*
G01*
X140495500Y-76069817D01*
X140502711Y-76143878D01*
X140484620Y-76215419D01*
X140482639Y-76219000D01*
X140431217Y-76271210D01*
X140380886Y-76290068D01*
X140306008Y-76288555D01*
X140261173Y-76266074D01*
X140212861Y-76205487D01*
X140189462Y-76134868D01*
X140094934Y-75690145D01*
X140078741Y-75618671D01*
X140058670Y-75545172D01*
X140053924Y-75530689D01*
X140018061Y-75465626D01*
X139999251Y-75447924D01*
X139927566Y-75429282D01*
X139901709Y-75433075D01*
X139832302Y-75456972D01*
X139772957Y-75508815D01*
X139752323Y-75558465D01*
X139744262Y-75634911D01*
X139747981Y-75710671D01*
X139759080Y-75787997D01*
X139767380Y-75830184D01*
X139847588Y-76207535D01*
X139854795Y-76280900D01*
X139837224Y-76352257D01*
X139835291Y-76355849D01*
X139781322Y-76410452D01*
X139734765Y-76427406D01*
X139659781Y-76425782D01*
X139614260Y-76403205D01*
X139565199Y-76343370D01*
X139541855Y-76274019D01*
X139373440Y-75481689D01*
X139367724Y-75406777D01*
X139385613Y-75346885D01*
X139439113Y-75294888D01*
X139478734Y-75281022D01*
X139553879Y-75283116D01*
X139589397Y-75299450D01*
X139639559Y-75356743D01*
X139653841Y-75399989D01*
X139651691Y-75400446D01*
X139694097Y-75335524D01*
X139745259Y-75282363D01*
X139767959Y-75263743D01*
X139833643Y-75222620D01*
X139902234Y-75195259D01*
X139945774Y-75183997D01*
X140022927Y-75173708D01*
X140099873Y-75177761D01*
X140138447Y-75186491D01*
X140208270Y-75215330D01*
X140270565Y-75261459D01*
X140281470Y-75272575D01*
X140322882Y-75208287D01*
X140373461Y-75152805D01*
X140399897Y-75130169D01*
X140463617Y-75088979D01*
X140536119Y-75060017D01*
X140572542Y-75050774D01*
X140649552Y-75039893D01*
X140727706Y-75041786D01*
X140782310Y-75052630D01*
X140853044Y-75082131D01*
X140912468Y-75127635D01*
X140936080Y-75154034D01*
X140973400Y-75220086D01*
X141000608Y-75295431D01*
X141019826Y-75368995D01*
X141024277Y-75389231D01*
X141139905Y-75933219D01*
X141147063Y-76007035D01*
X141128948Y-76078464D01*
X141126967Y-76082044D01*
X141075546Y-76134254D01*
X141025214Y-76153112D01*
X140949904Y-76151426D01*
X140904274Y-76128629D01*
X140855103Y-76068278D01*
X140831640Y-75998368D01*
X140731856Y-75528919D01*
X140714240Y-75453789D01*
X140694677Y-75389249D01*
X140656413Y-75326522D01*
X140638845Y-75311600D01*
X140564747Y-75293827D01*
X140538511Y-75297718D01*
X140471192Y-75328862D01*
X140448023Y-75349538D01*
X140406679Y-75410120D01*
X140393589Y-75447629D01*
X140390400Y-75525039D01*
X140398238Y-75598294D01*
X140412105Y-75676916D01*
X140416587Y-75698558D01*
G37*
G36*
X141953783Y-74803626D02*
G01*
X142027751Y-74826038D01*
X142094441Y-74868203D01*
X142134870Y-74911958D01*
X142175759Y-74979926D01*
X142203639Y-75047716D01*
X142226501Y-75126469D01*
X142233007Y-75155155D01*
X142248689Y-75229224D01*
X142264075Y-75302667D01*
X142267687Y-75320076D01*
X142283325Y-75396512D01*
X142298322Y-75471250D01*
X142319437Y-75543096D01*
X142349926Y-75611277D01*
X142357814Y-75626028D01*
X142391924Y-75691347D01*
X142407001Y-75730560D01*
X142395109Y-75804751D01*
X142381844Y-75825424D01*
X142324019Y-75873202D01*
X142291652Y-75883923D01*
X142217950Y-75874517D01*
X142191923Y-75860549D01*
X142132236Y-75815153D01*
X142084835Y-75769074D01*
X142031634Y-75827988D01*
X141975748Y-75879683D01*
X141922612Y-75920415D01*
X141859471Y-75957719D01*
X141788893Y-75986691D01*
X141718279Y-76005797D01*
X141645597Y-76015935D01*
X141570799Y-76013926D01*
X141517775Y-76003469D01*
X141448230Y-75976479D01*
X141384836Y-75933215D01*
X141365085Y-75914196D01*
X141320224Y-75853710D01*
X141291489Y-75784778D01*
X141286242Y-75763531D01*
X141278852Y-75685663D01*
X141283946Y-75654131D01*
X141577226Y-75654131D01*
X141580238Y-75677069D01*
X141615725Y-75742416D01*
X141644448Y-75764175D01*
X141717730Y-75784327D01*
X141769011Y-75779273D01*
X141842924Y-75754760D01*
X141906986Y-75714738D01*
X141958844Y-75660705D01*
X141985743Y-75607731D01*
X141996017Y-75529586D01*
X141988884Y-75452488D01*
X141979761Y-75403375D01*
X141975039Y-75381157D01*
X141905797Y-75417865D01*
X141835657Y-75450331D01*
X141822103Y-75456363D01*
X141754305Y-75486433D01*
X141685224Y-75518206D01*
X141670815Y-75525226D01*
X141611323Y-75570339D01*
X141599454Y-75584217D01*
X141577226Y-75654131D01*
X141283946Y-75654131D01*
X141290721Y-75612198D01*
X141318223Y-75549233D01*
X141365034Y-75487042D01*
X141421135Y-75439302D01*
X141490136Y-75399938D01*
X141497745Y-75396463D01*
X141567319Y-75366176D01*
X141622269Y-75342652D01*
X141692772Y-75311900D01*
X141759839Y-75281753D01*
X141791941Y-75266885D01*
X141858369Y-75234841D01*
X141926095Y-75200381D01*
X141935223Y-75195604D01*
X141909833Y-75124670D01*
X141864946Y-75064093D01*
X141790997Y-75040743D01*
X141717057Y-75047400D01*
X141702818Y-75050238D01*
X141629307Y-75070561D01*
X141561763Y-75105238D01*
X141555946Y-75109922D01*
X141507919Y-75167563D01*
X141486254Y-75212005D01*
X141457358Y-75281477D01*
X141447802Y-75300706D01*
X141381460Y-75336136D01*
X141377964Y-75336900D01*
X141302517Y-75331448D01*
X141282648Y-75321953D01*
X141233510Y-75265269D01*
X141227021Y-75243510D01*
X141223420Y-75168879D01*
X141241653Y-75096713D01*
X141248272Y-75080934D01*
X141289542Y-75014654D01*
X141340883Y-74962227D01*
X141387676Y-74926203D01*
X141457289Y-74885729D01*
X141530452Y-74855200D01*
X141603844Y-74832752D01*
X141653709Y-74820964D01*
X141730904Y-74806779D01*
X141811204Y-74797693D01*
X141891440Y-74796558D01*
X141953783Y-74803626D01*
G37*
G36*
X143462724Y-75243600D02*
G01*
X143472427Y-75322566D01*
X143466870Y-75396367D01*
X143448575Y-75458976D01*
X143410264Y-75527358D01*
X143359700Y-75582682D01*
X143307340Y-75622711D01*
X143238254Y-75661295D01*
X143166818Y-75690421D01*
X143095955Y-75711856D01*
X143048147Y-75723125D01*
X142974736Y-75735685D01*
X142896988Y-75741512D01*
X142816610Y-75737675D01*
X142778793Y-75731686D01*
X142703531Y-75710985D01*
X142635120Y-75678728D01*
X142593188Y-75647911D01*
X142544100Y-75592840D01*
X142512383Y-75524016D01*
X142510247Y-75514972D01*
X142517025Y-75440386D01*
X142527367Y-75421067D01*
X142584260Y-75373860D01*
X142609698Y-75366112D01*
X142683887Y-75371740D01*
X142687754Y-75373866D01*
X142744846Y-75421820D01*
X142748669Y-75426090D01*
X142806400Y-75477867D01*
X142868027Y-75510088D01*
X142945487Y-75521387D01*
X143024285Y-75512422D01*
X143030432Y-75511150D01*
X143100045Y-75487551D01*
X143151206Y-75450271D01*
X143185834Y-75383326D01*
X143184457Y-75365297D01*
X143147187Y-75299234D01*
X143112440Y-75280225D01*
X143036444Y-75264542D01*
X142963081Y-75258683D01*
X142924047Y-75257345D01*
X142843378Y-75253098D01*
X142763231Y-75245598D01*
X142686602Y-75233967D01*
X142673967Y-75231472D01*
X142598066Y-75209251D01*
X142532015Y-75175788D01*
X142504852Y-75156552D01*
X142453283Y-75100646D01*
X142422165Y-75034000D01*
X142414496Y-75004588D01*
X142408636Y-74928787D01*
X142423180Y-74852519D01*
X142431083Y-74830643D01*
X142468448Y-74763016D01*
X142518866Y-74706862D01*
X142555337Y-74676885D01*
X142622528Y-74635521D01*
X142693753Y-74605517D01*
X142766112Y-74584702D01*
X142783255Y-74580872D01*
X142855703Y-74568349D01*
X142930277Y-74562199D01*
X142983153Y-74562728D01*
X143058621Y-74570959D01*
X143133411Y-74590879D01*
X143141900Y-74594157D01*
X143209302Y-74629078D01*
X143250586Y-74663194D01*
X143293178Y-74723650D01*
X143302612Y-74752889D01*
X143297540Y-74826162D01*
X143286079Y-74847794D01*
X143227704Y-74893314D01*
X143194843Y-74903143D01*
X143120661Y-74897977D01*
X143111160Y-74893588D01*
X143048090Y-74851935D01*
X143024057Y-74832698D01*
X142960622Y-74793977D01*
X142941304Y-74786989D01*
X142867983Y-74780944D01*
X142826771Y-74787363D01*
X142756773Y-74811840D01*
X142716475Y-74841145D01*
X142684497Y-74907306D01*
X142686023Y-74919906D01*
X142732245Y-74975253D01*
X142804453Y-74994808D01*
X142834841Y-74998017D01*
X142911042Y-75002326D01*
X142984288Y-75004964D01*
X143011770Y-75005730D01*
X143092520Y-75010249D01*
X143171534Y-75020347D01*
X143240272Y-75035815D01*
X143309471Y-75061201D01*
X143374647Y-75100984D01*
X143389373Y-75113491D01*
X143436045Y-75171832D01*
X143462724Y-75243600D01*
G37*
D13*
%TO.C,SW1*%
X144861907Y-114686907D02*
X146536907Y-117588093D01*
X145446475Y-114349407D02*
X147121475Y-117250593D01*
X146536907Y-117588093D02*
X149438093Y-115913093D01*
X146976795Y-115400000D02*
X146283975Y-115800000D01*
X146976795Y-115400000D02*
X147423205Y-115373205D01*
X147178525Y-113349407D02*
X148853525Y-116250593D01*
X147323205Y-115200000D02*
X148016025Y-114800000D01*
X147763093Y-113011907D02*
X144861907Y-114686907D01*
X149438093Y-115913093D02*
X147763093Y-113011907D01*
%TO.C,LED6*%
X143900000Y-88750000D02*
X144100000Y-88750000D01*
X143900000Y-89000000D02*
X143900000Y-91000000D01*
X143900000Y-91000000D02*
X146100000Y-91000000D01*
X144000000Y-88850000D02*
X143900000Y-88750000D01*
X144100000Y-88750000D02*
X144000000Y-88850000D01*
X146100000Y-89000000D02*
X143900000Y-89000000D01*
X146100000Y-91000000D02*
X146100000Y-89000000D01*
D14*
X144800000Y-89450000D02*
G75*
G02*
X144600000Y-89450000I-100000J0D01*
G01*
X144600000Y-89450000D02*
G75*
G02*
X144800000Y-89450000I100000J0D01*
G01*
D13*
%TO.C,LED5*%
X128900000Y-88750000D02*
X129100000Y-88750000D01*
X128900000Y-89000000D02*
X128900000Y-91000000D01*
X128900000Y-91000000D02*
X131100000Y-91000000D01*
X129000000Y-88850000D02*
X128900000Y-88750000D01*
X129100000Y-88750000D02*
X129000000Y-88850000D01*
X131100000Y-89000000D02*
X128900000Y-89000000D01*
X131100000Y-91000000D02*
X131100000Y-89000000D01*
D14*
X129800000Y-89450000D02*
G75*
G02*
X129600000Y-89450000I-100000J0D01*
G01*
X129600000Y-89450000D02*
G75*
G02*
X129800000Y-89450000I100000J0D01*
G01*
D13*
%TO.C,LED8*%
X103900000Y-108750000D02*
X104100000Y-108750000D01*
X103900000Y-109000000D02*
X103900000Y-111000000D01*
X103900000Y-111000000D02*
X106100000Y-111000000D01*
X104000000Y-108850000D02*
X103900000Y-108750000D01*
X104100000Y-108750000D02*
X104000000Y-108850000D01*
X106100000Y-109000000D02*
X103900000Y-109000000D01*
X106100000Y-111000000D02*
X106100000Y-109000000D01*
D14*
X104800000Y-109450000D02*
G75*
G02*
X104600000Y-109450000I-100000J0D01*
G01*
X104600000Y-109450000D02*
G75*
G02*
X104800000Y-109450000I100000J0D01*
G01*
D13*
%TO.C,LED11*%
X143900000Y-98750000D02*
X144100000Y-98750000D01*
X143900000Y-99000000D02*
X143900000Y-101000000D01*
X143900000Y-101000000D02*
X146100000Y-101000000D01*
X144000000Y-98850000D02*
X143900000Y-98750000D01*
X144100000Y-98750000D02*
X144000000Y-98850000D01*
X146100000Y-99000000D02*
X143900000Y-99000000D01*
X146100000Y-101000000D02*
X146100000Y-99000000D01*
D14*
X144800000Y-99450000D02*
G75*
G02*
X144600000Y-99450000I-100000J0D01*
G01*
X144600000Y-99450000D02*
G75*
G02*
X144800000Y-99450000I100000J0D01*
G01*
D13*
%TO.C,LED12*%
X136400000Y-108750000D02*
X136600000Y-108750000D01*
X136400000Y-109000000D02*
X136400000Y-111000000D01*
X136400000Y-111000000D02*
X138600000Y-111000000D01*
X136500000Y-108850000D02*
X136400000Y-108750000D01*
X136600000Y-108750000D02*
X136500000Y-108850000D01*
X138600000Y-109000000D02*
X136400000Y-109000000D01*
X138600000Y-111000000D02*
X138600000Y-109000000D01*
D14*
X137300000Y-109450000D02*
G75*
G02*
X137100000Y-109450000I-100000J0D01*
G01*
X137100000Y-109450000D02*
G75*
G02*
X137300000Y-109450000I100000J0D01*
G01*
D13*
%TO.C,LED2*%
X118900000Y-79750000D02*
X119100000Y-79750000D01*
X118900000Y-80000000D02*
X118900000Y-82000000D01*
X118900000Y-82000000D02*
X121100000Y-82000000D01*
X119000000Y-79850000D02*
X118900000Y-79750000D01*
X119100000Y-79750000D02*
X119000000Y-79850000D01*
X121100000Y-80000000D02*
X118900000Y-80000000D01*
X121100000Y-82000000D02*
X121100000Y-80000000D01*
D14*
X119800000Y-80450000D02*
G75*
G02*
X119600000Y-80450000I-100000J0D01*
G01*
X119600000Y-80450000D02*
G75*
G02*
X119800000Y-80450000I100000J0D01*
G01*
D13*
%TO.C,LED9*%
X118900000Y-108750000D02*
X119100000Y-108750000D01*
X118900000Y-109000000D02*
X118900000Y-111000000D01*
X118900000Y-111000000D02*
X121100000Y-111000000D01*
X119000000Y-108850000D02*
X118900000Y-108750000D01*
X119100000Y-108750000D02*
X119000000Y-108850000D01*
X121100000Y-109000000D02*
X118900000Y-109000000D01*
X121100000Y-111000000D02*
X121100000Y-109000000D01*
D14*
X119800000Y-109450000D02*
G75*
G02*
X119600000Y-109450000I-100000J0D01*
G01*
X119600000Y-109450000D02*
G75*
G02*
X119800000Y-109450000I100000J0D01*
G01*
D13*
%TO.C,LED7*%
X111400000Y-98750000D02*
X111600000Y-98750000D01*
X111400000Y-99000000D02*
X111400000Y-101000000D01*
X111400000Y-101000000D02*
X113600000Y-101000000D01*
X111500000Y-98850000D02*
X111400000Y-98750000D01*
X111600000Y-98750000D02*
X111500000Y-98850000D01*
X113600000Y-99000000D02*
X111400000Y-99000000D01*
X113600000Y-101000000D02*
X113600000Y-99000000D01*
D14*
X112300000Y-99450000D02*
G75*
G02*
X112100000Y-99450000I-100000J0D01*
G01*
X112100000Y-99450000D02*
G75*
G02*
X112300000Y-99450000I100000J0D01*
G01*
D13*
%TO.C,LED1*%
X103900000Y-79750000D02*
X104100000Y-79750000D01*
X103900000Y-80000000D02*
X103900000Y-82000000D01*
X103900000Y-82000000D02*
X106100000Y-82000000D01*
X104000000Y-79850000D02*
X103900000Y-79750000D01*
X104100000Y-79750000D02*
X104000000Y-79850000D01*
X106100000Y-80000000D02*
X103900000Y-80000000D01*
X106100000Y-82000000D02*
X106100000Y-80000000D01*
D14*
X104800000Y-80450000D02*
G75*
G02*
X104600000Y-80450000I-100000J0D01*
G01*
X104600000Y-80450000D02*
G75*
G02*
X104800000Y-80450000I100000J0D01*
G01*
D13*
%TO.C,SW2*%
X100561907Y-115913093D02*
X103463093Y-117588093D01*
X101146475Y-116250593D02*
X102821475Y-113349407D01*
X102236907Y-113011907D02*
X100561907Y-115913093D01*
X102676795Y-115200000D02*
X101983975Y-114800000D01*
X102878525Y-117250593D02*
X104553525Y-114349407D01*
X103023205Y-115400000D02*
X102776795Y-115026795D01*
X103023205Y-115400000D02*
X103716025Y-115800000D01*
X103463093Y-117588093D02*
X105138093Y-114686907D01*
X105138093Y-114686907D02*
X102236907Y-113011907D01*
%TO.C,LED10*%
X128900000Y-98750000D02*
X129100000Y-98750000D01*
X128900000Y-99000000D02*
X128900000Y-101000000D01*
X128900000Y-101000000D02*
X131100000Y-101000000D01*
X129000000Y-98850000D02*
X128900000Y-98750000D01*
X129100000Y-98750000D02*
X129000000Y-98850000D01*
X131100000Y-99000000D02*
X128900000Y-99000000D01*
X131100000Y-101000000D02*
X131100000Y-99000000D01*
D14*
X129800000Y-99450000D02*
G75*
G02*
X129600000Y-99450000I-100000J0D01*
G01*
X129600000Y-99450000D02*
G75*
G02*
X129800000Y-99450000I100000J0D01*
G01*
D13*
%TO.C,LED3*%
X111400000Y-88750000D02*
X111600000Y-88750000D01*
X111400000Y-89000000D02*
X111400000Y-91000000D01*
X111400000Y-91000000D02*
X113600000Y-91000000D01*
X111500000Y-88850000D02*
X111400000Y-88750000D01*
X111600000Y-88750000D02*
X111500000Y-88850000D01*
X113600000Y-89000000D02*
X111400000Y-89000000D01*
X113600000Y-91000000D02*
X113600000Y-89000000D01*
D14*
X112300000Y-89450000D02*
G75*
G02*
X112100000Y-89450000I-100000J0D01*
G01*
X112100000Y-89450000D02*
G75*
G02*
X112300000Y-89450000I100000J0D01*
G01*
D13*
%TO.C,LED4*%
X136400000Y-79750000D02*
X136600000Y-79750000D01*
X136400000Y-80000000D02*
X136400000Y-82000000D01*
X136400000Y-82000000D02*
X138600000Y-82000000D01*
X136500000Y-79850000D02*
X136400000Y-79750000D01*
X136600000Y-79750000D02*
X136500000Y-79850000D01*
X138600000Y-80000000D02*
X136400000Y-80000000D01*
X138600000Y-82000000D02*
X138600000Y-80000000D01*
D14*
X137300000Y-80450000D02*
G75*
G02*
X137100000Y-80450000I-100000J0D01*
G01*
X137100000Y-80450000D02*
G75*
G02*
X137300000Y-80450000I100000J0D01*
G01*
%TD*%
%LPC*%
D15*
%TO.C,SW1*%
X147041025Y-113111250D03*
X148991025Y-116488750D03*
X145308975Y-114111250D03*
X147258975Y-117488750D03*
D16*
X148449038Y-114550000D03*
X145850962Y-116050000D03*
%TD*%
D17*
%TO.C,LED6*%
X144085000Y-89450000D03*
X144085000Y-90550000D03*
X145915000Y-90550000D03*
X145915000Y-89450000D03*
%TD*%
%TO.C,LED5*%
X129085000Y-89450000D03*
X129085000Y-90550000D03*
X130915000Y-90550000D03*
X130915000Y-89450000D03*
%TD*%
%TO.C,LED8*%
X104085000Y-109450000D03*
X104085000Y-110550000D03*
X105915000Y-110550000D03*
X105915000Y-109450000D03*
%TD*%
%TO.C,LED11*%
X144085000Y-99450000D03*
X144085000Y-100550000D03*
X145915000Y-100550000D03*
X145915000Y-99450000D03*
%TD*%
%TO.C,LED12*%
X136585000Y-109450000D03*
X136585000Y-110550000D03*
X138415000Y-110550000D03*
X138415000Y-109450000D03*
%TD*%
%TO.C,LED2*%
X119085000Y-80450000D03*
X119085000Y-81550000D03*
X120915000Y-81550000D03*
X120915000Y-80450000D03*
%TD*%
%TO.C,LED9*%
X119085000Y-109450000D03*
X119085000Y-110550000D03*
X120915000Y-110550000D03*
X120915000Y-109450000D03*
%TD*%
%TO.C,LED7*%
X111585000Y-99450000D03*
X111585000Y-100550000D03*
X113415000Y-100550000D03*
X113415000Y-99450000D03*
%TD*%
%TO.C,LED1*%
X104085000Y-80450000D03*
X104085000Y-81550000D03*
X105915000Y-81550000D03*
X105915000Y-80450000D03*
%TD*%
D18*
%TO.C,SW2*%
X101008975Y-116488750D03*
X102958975Y-113111250D03*
X102741025Y-117488750D03*
X104691025Y-114111250D03*
D19*
X101550962Y-114550000D03*
X104149038Y-116050000D03*
%TD*%
D17*
%TO.C,LED10*%
X129085000Y-99450000D03*
X129085000Y-100550000D03*
X130915000Y-100550000D03*
X130915000Y-99450000D03*
%TD*%
%TO.C,LED3*%
X111585000Y-89450000D03*
X111585000Y-90550000D03*
X113415000Y-90550000D03*
X113415000Y-89450000D03*
%TD*%
%TO.C,LED4*%
X136585000Y-80450000D03*
X136585000Y-81550000D03*
X138415000Y-81550000D03*
X138415000Y-80450000D03*
%TD*%
D20*
%TO.C,CONN2*%
X133400000Y-106600000D03*
X127620000Y-106600000D03*
D21*
X134835000Y-110300000D03*
D22*
X134835000Y-106120000D03*
D21*
X126185000Y-110300000D03*
D22*
X126185000Y-106120000D03*
%TD*%
%LPD*%
M02*
