%TF.GenerationSoftware,KiCad,Pcbnew,8.0.6*%
%TF.CreationDate,2024-12-09T18:11:45+01:00*%
%TF.ProjectId,Xmas,586d6173-2e6b-4696-9361-645f70636258,rev?*%
%TF.SameCoordinates,Original*%
%TF.FileFunction,Legend,Bot*%
%TF.FilePolarity,Positive*%
%FSLAX46Y46*%
G04 Gerber Fmt 4.6, Leading zero omitted, Abs format (unit mm)*
G04 Created by KiCad (PCBNEW 8.0.6) date 2024-12-09 18:11:45*
%MOMM*%
%LPD*%
G01*
G04 APERTURE LIST*
G04 Aperture macros list*
%AMRoundRect*
0 Rectangle with rounded corners*
0 $1 Rounding radius*
0 $2 $3 $4 $5 $6 $7 $8 $9 X,Y pos of 4 corners*
0 Add a 4 corners polygon primitive as box body*
4,1,4,$2,$3,$4,$5,$6,$7,$8,$9,$2,$3,0*
0 Add four circle primitives for the rounded corners*
1,1,$1+$1,$2,$3*
1,1,$1+$1,$4,$5*
1,1,$1+$1,$6,$7*
1,1,$1+$1,$8,$9*
0 Add four rect primitives between the rounded corners*
20,1,$1+$1,$2,$3,$4,$5,0*
20,1,$1+$1,$4,$5,$6,$7,0*
20,1,$1+$1,$6,$7,$8,$9,0*
20,1,$1+$1,$8,$9,$2,$3,0*%
G04 Aperture macros list end*
%ADD10C,1.000000*%
%ADD11C,0.250000*%
%ADD12C,0.100000*%
%ADD13C,0.200000*%
%ADD14C,0.127000*%
%ADD15R,0.950000X0.800000*%
%ADD16R,1.350000X0.400000*%
%ADD17R,0.800000X0.950000*%
%ADD18R,0.450000X0.300000*%
%ADD19R,1.000000X1.600000*%
%ADD20R,1.750000X1.125000*%
%ADD21R,0.450000X0.590000*%
%ADD22R,0.800000X0.900000*%
%ADD23C,0.100000*%
%ADD24R,0.300000X1.140000*%
%ADD25O,1.200000X2.000000*%
%ADD26O,1.200000X2.300000*%
%ADD27C,1.500000*%
%ADD28RoundRect,0.102000X0.500000X1.750000X-0.500000X1.750000X-0.500000X-1.750000X0.500000X-1.750000X0*%
%ADD29RoundRect,0.102000X0.750000X1.700000X-0.750000X1.700000X-0.750000X-1.700000X0.750000X-1.700000X0*%
%ADD30R,0.450000X1.400000*%
%ADD31R,2.000000X1.880000*%
%ADD32R,0.900000X0.800000*%
%ADD33R,1.800000X1.800000*%
G04 APERTURE END LIST*
D10*
X103150000Y-114750000D02*
G75*
G02*
X100913932Y-114750000I-1118034J0D01*
G01*
X100913932Y-114750000D02*
G75*
G02*
X103150000Y-114750000I1118034J0D01*
G01*
X133568034Y-82031966D02*
G75*
G02*
X131331966Y-82031966I-1118034J0D01*
G01*
X131331966Y-82031966D02*
G75*
G02*
X133568034Y-82031966I1118034J0D01*
G01*
X124586068Y-89550000D02*
G75*
G02*
X122350000Y-89550000I-1118034J0D01*
G01*
X122350000Y-89550000D02*
G75*
G02*
X124586068Y-89550000I1118034J0D01*
G01*
X143500000Y-88800000D02*
G75*
G02*
X141263932Y-88800000I-1118034J0D01*
G01*
X141263932Y-88800000D02*
G75*
G02*
X143500000Y-88800000I1118034J0D01*
G01*
X102868034Y-86531966D02*
G75*
G02*
X100631966Y-86531966I-1118034J0D01*
G01*
X100631966Y-86531966D02*
G75*
G02*
X102868034Y-86531966I1118034J0D01*
G01*
X109868034Y-92500000D02*
G75*
G02*
X107631966Y-92500000I-1118034J0D01*
G01*
X107631966Y-92500000D02*
G75*
G02*
X109868034Y-92500000I1118034J0D01*
G01*
X118668034Y-62000000D02*
G75*
G02*
X116431966Y-62000000I-1118034J0D01*
G01*
X116431966Y-62000000D02*
G75*
G02*
X118668034Y-62000000I1118034J0D01*
G01*
X148850000Y-73350000D02*
G75*
G02*
X146613932Y-73350000I-1118034J0D01*
G01*
X146613932Y-73350000D02*
G75*
G02*
X148850000Y-73350000I1118034J0D01*
G01*
X136368034Y-101731966D02*
G75*
G02*
X134131966Y-101731966I-1118034J0D01*
G01*
X134131966Y-101731966D02*
G75*
G02*
X136368034Y-101731966I1118034J0D01*
G01*
X148768034Y-115300000D02*
G75*
G02*
X146531966Y-115300000I-1118034J0D01*
G01*
X146531966Y-115300000D02*
G75*
G02*
X148768034Y-115300000I1118034J0D01*
G01*
X103468034Y-73700000D02*
G75*
G02*
X101231966Y-73700000I-1118034J0D01*
G01*
X101231966Y-73700000D02*
G75*
G02*
X103468034Y-73700000I1118034J0D01*
G01*
X123668034Y-106950000D02*
G75*
G02*
X121431966Y-106950000I-1118034J0D01*
G01*
X121431966Y-106950000D02*
G75*
G02*
X123668034Y-106950000I1118034J0D01*
G01*
X148018034Y-94850000D02*
G75*
G02*
X145781966Y-94850000I-1118034J0D01*
G01*
X145781966Y-94850000D02*
G75*
G02*
X148018034Y-94850000I1118034J0D01*
G01*
X103918034Y-105731966D02*
G75*
G02*
X101681966Y-105731966I-1118034J0D01*
G01*
X101681966Y-105731966D02*
G75*
G02*
X103918034Y-105731966I1118034J0D01*
G01*
X127518034Y-73850000D02*
G75*
G02*
X125281966Y-73850000I-1118034J0D01*
G01*
X125281966Y-73850000D02*
G75*
G02*
X127518034Y-73850000I1118034J0D01*
G01*
D11*
G36*
X144001142Y-116113729D02*
G01*
X143677758Y-115996027D01*
X143628839Y-115984395D01*
X143588115Y-115988092D01*
X143547055Y-116018041D01*
X143537477Y-116037240D01*
X143534290Y-116086568D01*
X143539941Y-116102596D01*
X143574724Y-116138944D01*
X143600129Y-116150754D01*
X144075221Y-116323674D01*
X144123692Y-116333323D01*
X144166284Y-116324848D01*
X144205646Y-116294643D01*
X144219742Y-116268669D01*
X144225863Y-116217854D01*
X144224812Y-116199037D01*
X144216711Y-116150524D01*
X144207327Y-116123535D01*
X144184389Y-116071889D01*
X144162160Y-116023288D01*
X144140638Y-115977730D01*
X144116909Y-115929391D01*
X144108250Y-115912289D01*
X144084301Y-115866436D01*
X144060016Y-115822931D01*
X144039779Y-115791198D01*
X144013262Y-115749772D01*
X143988689Y-115703757D01*
X143980255Y-115684800D01*
X143963701Y-115636018D01*
X143955660Y-115589555D01*
X143957312Y-115538510D01*
X143965409Y-115507071D01*
X143989618Y-115463432D01*
X144010041Y-115443001D01*
X144052990Y-115419066D01*
X144078390Y-115413035D01*
X144128830Y-115413975D01*
X144155199Y-115421238D01*
X144199633Y-115445355D01*
X144234846Y-115485263D01*
X144254435Y-115533706D01*
X144255744Y-115539187D01*
X144257969Y-115590773D01*
X144257875Y-115599744D01*
X144260824Y-115650088D01*
X144268451Y-115682089D01*
X144299668Y-115719780D01*
X144320083Y-115729472D01*
X144369079Y-115733475D01*
X144387443Y-115727218D01*
X144424477Y-115692545D01*
X144434076Y-115671934D01*
X144446199Y-115622738D01*
X144448933Y-115571469D01*
X144448818Y-115567874D01*
X144442274Y-115517725D01*
X144426775Y-115468396D01*
X144420702Y-115454453D01*
X144395078Y-115410496D01*
X144363416Y-115372259D01*
X144341396Y-115350992D01*
X144301193Y-115320229D01*
X144258495Y-115295835D01*
X144209938Y-115274842D01*
X144204761Y-115272929D01*
X144155708Y-115257334D01*
X144103144Y-115246140D01*
X144053354Y-115241673D01*
X144021703Y-115242430D01*
X143971898Y-115251206D01*
X143924568Y-115268878D01*
X143918444Y-115271906D01*
X143875068Y-115298807D01*
X143836742Y-115333485D01*
X143832013Y-115338697D01*
X143800958Y-115380453D01*
X143777887Y-115426944D01*
X143775415Y-115433500D01*
X143761073Y-115485249D01*
X143755742Y-115536927D01*
X143759422Y-115588534D01*
X143761239Y-115598847D01*
X143772323Y-115647366D01*
X143787256Y-115694172D01*
X143805062Y-115734099D01*
X143828996Y-115777946D01*
X143855559Y-115824768D01*
X143880563Y-115867997D01*
X143900750Y-115902525D01*
X143928090Y-115950197D01*
X143953756Y-115997835D01*
X143975513Y-116042703D01*
X143988529Y-116074829D01*
X144001142Y-116113729D01*
G37*
G36*
X143334335Y-114970302D02*
G01*
X143383477Y-114977552D01*
X143433826Y-114992332D01*
X143470748Y-115007772D01*
X143514890Y-115032732D01*
X143557598Y-115066787D01*
X143592945Y-115107169D01*
X143614996Y-115142548D01*
X143636062Y-115192585D01*
X143647908Y-115241359D01*
X143653279Y-115294176D01*
X143652021Y-115340952D01*
X143646121Y-115391874D01*
X143636730Y-115441764D01*
X143629251Y-115473233D01*
X143615758Y-115522451D01*
X143599533Y-115574088D01*
X143582819Y-115622019D01*
X143565029Y-115668035D01*
X143544168Y-115715603D01*
X143521951Y-115759974D01*
X143507004Y-115786346D01*
X143479923Y-115828245D01*
X143448508Y-115868920D01*
X143443669Y-115874242D01*
X143408528Y-115908334D01*
X143365655Y-115940522D01*
X143319889Y-115965484D01*
X143271229Y-115983220D01*
X143221040Y-115993153D01*
X143170829Y-115995022D01*
X143120597Y-115988825D01*
X143070345Y-115974563D01*
X143043856Y-115963742D01*
X143000037Y-115939720D01*
X142961181Y-115909856D01*
X142927289Y-115874150D01*
X142910738Y-115852035D01*
X142885845Y-115809053D01*
X142867249Y-115761990D01*
X142854949Y-115710844D01*
X142854350Y-115707101D01*
X143042381Y-115707101D01*
X143051712Y-115757248D01*
X143052855Y-115760383D01*
X143081264Y-115802481D01*
X143125185Y-115828176D01*
X143128562Y-115829364D01*
X143177188Y-115836512D01*
X143224869Y-115822091D01*
X143247322Y-115806238D01*
X143282817Y-115768542D01*
X143311892Y-115725106D01*
X143314502Y-115720614D01*
X143338183Y-115675843D01*
X143359514Y-115629488D01*
X143378397Y-115583862D01*
X143397483Y-115533509D01*
X143401448Y-115522516D01*
X143419327Y-115469978D01*
X143433956Y-115421486D01*
X143447221Y-115368637D01*
X143456784Y-115314344D01*
X143459913Y-115262005D01*
X143459714Y-115256159D01*
X143449324Y-115204730D01*
X143420271Y-115162909D01*
X143377838Y-115138302D01*
X143374349Y-115137072D01*
X143324598Y-115129256D01*
X143276882Y-115142883D01*
X143254599Y-115157955D01*
X143219532Y-115194156D01*
X143190965Y-115236113D01*
X143170441Y-115273446D01*
X143147071Y-115322723D01*
X143126049Y-115372992D01*
X143107463Y-115421972D01*
X143104679Y-115429662D01*
X143086879Y-115481117D01*
X143072031Y-115528422D01*
X143058678Y-115577406D01*
X143048266Y-115626035D01*
X143044069Y-115655131D01*
X143042381Y-115707101D01*
X142854350Y-115707101D01*
X142854188Y-115706085D01*
X142849397Y-115653023D01*
X142850730Y-115603656D01*
X142857479Y-115553215D01*
X142865140Y-115516305D01*
X142878345Y-115465355D01*
X142893252Y-115416767D01*
X142911142Y-115365073D01*
X142915633Y-115352883D01*
X142933942Y-115306211D01*
X142957600Y-115252561D01*
X142982116Y-115204122D01*
X143007489Y-115160894D01*
X143039068Y-115115898D01*
X143071882Y-115078406D01*
X143094678Y-115056843D01*
X143135173Y-115025369D01*
X143181061Y-114999102D01*
X143202852Y-114989717D01*
X143251541Y-114975500D01*
X143302245Y-114969652D01*
X143334335Y-114970302D01*
G37*
G36*
X142438616Y-115545016D02*
G01*
X142115232Y-115427314D01*
X142066313Y-115415682D01*
X142025589Y-115419379D01*
X141984530Y-115449328D01*
X141974951Y-115468527D01*
X141971764Y-115517856D01*
X141977415Y-115533883D01*
X142012198Y-115570231D01*
X142037603Y-115582041D01*
X142512695Y-115754961D01*
X142561166Y-115764610D01*
X142603759Y-115756135D01*
X142643120Y-115725930D01*
X142657216Y-115699956D01*
X142663337Y-115649141D01*
X142662286Y-115630324D01*
X142654185Y-115581811D01*
X142644801Y-115554822D01*
X142621863Y-115503177D01*
X142599634Y-115454575D01*
X142578113Y-115409017D01*
X142554384Y-115360678D01*
X142545724Y-115343576D01*
X142521775Y-115297724D01*
X142497490Y-115254218D01*
X142477253Y-115222485D01*
X142450736Y-115181059D01*
X142426163Y-115135044D01*
X142417730Y-115116087D01*
X142401175Y-115067305D01*
X142393134Y-115020843D01*
X142394786Y-114969797D01*
X142402883Y-114938358D01*
X142427092Y-114894719D01*
X142447516Y-114874288D01*
X142490464Y-114850353D01*
X142515864Y-114844322D01*
X142566304Y-114845262D01*
X142592673Y-114852525D01*
X142637107Y-114876642D01*
X142672320Y-114916550D01*
X142691910Y-114964993D01*
X142693218Y-114970474D01*
X142695443Y-115022060D01*
X142695349Y-115031031D01*
X142698298Y-115081375D01*
X142705926Y-115113376D01*
X142737142Y-115151067D01*
X142757558Y-115160759D01*
X142806553Y-115164762D01*
X142824917Y-115158505D01*
X142861951Y-115123832D01*
X142871550Y-115103221D01*
X142883673Y-115054025D01*
X142886407Y-115002756D01*
X142886292Y-114999161D01*
X142879748Y-114949012D01*
X142864249Y-114899683D01*
X142858176Y-114885740D01*
X142832552Y-114841783D01*
X142800890Y-114803546D01*
X142778870Y-114782279D01*
X142738667Y-114751516D01*
X142695969Y-114727122D01*
X142647412Y-114706129D01*
X142642235Y-114704216D01*
X142593182Y-114688621D01*
X142540618Y-114677427D01*
X142490829Y-114672960D01*
X142459177Y-114673717D01*
X142409373Y-114682493D01*
X142362042Y-114700165D01*
X142355918Y-114703193D01*
X142312542Y-114730094D01*
X142274216Y-114764772D01*
X142269488Y-114769984D01*
X142238432Y-114811740D01*
X142215362Y-114858231D01*
X142212889Y-114864787D01*
X142198547Y-114916536D01*
X142193216Y-114968214D01*
X142196896Y-115019821D01*
X142198713Y-115030134D01*
X142209797Y-115078653D01*
X142224730Y-115125459D01*
X142242536Y-115165386D01*
X142266470Y-115209233D01*
X142293034Y-115256055D01*
X142318038Y-115299285D01*
X142338224Y-115333812D01*
X142365565Y-115381484D01*
X142391230Y-115429122D01*
X142412988Y-115473990D01*
X142426003Y-115506116D01*
X142438616Y-115545016D01*
G37*
G36*
X141733592Y-114373497D02*
G01*
X141747375Y-114379671D01*
X141782283Y-114415392D01*
X141798999Y-114454659D01*
X141814977Y-114502668D01*
X141991739Y-115080341D01*
X142004393Y-115120556D01*
X142013815Y-115154656D01*
X142018021Y-115187376D01*
X142013067Y-115215984D01*
X141992115Y-115253865D01*
X141950863Y-115284055D01*
X141942468Y-115286991D01*
X141891695Y-115290515D01*
X141843002Y-115278326D01*
X141526274Y-115163047D01*
X141484840Y-115276885D01*
X141467001Y-115313404D01*
X141431692Y-115347212D01*
X141407544Y-115356033D01*
X141358176Y-115351385D01*
X141335611Y-115340227D01*
X141303832Y-115301455D01*
X141297912Y-115261482D01*
X141308804Y-115212813D01*
X141350238Y-115098974D01*
X141318335Y-115087363D01*
X141284173Y-115071895D01*
X141246775Y-115039744D01*
X141237110Y-115018323D01*
X141238746Y-115001469D01*
X141585084Y-115001469D01*
X141840761Y-115094528D01*
X141708132Y-114663396D01*
X141585084Y-115001469D01*
X141238746Y-115001469D01*
X141241913Y-114968836D01*
X141255539Y-114941443D01*
X141299105Y-114914536D01*
X141340651Y-114916792D01*
X141388620Y-114929962D01*
X141409047Y-114937397D01*
X141585308Y-114453124D01*
X141600249Y-114420075D01*
X141634824Y-114379820D01*
X141684819Y-114364096D01*
X141733592Y-114373497D01*
G37*
G36*
X113864231Y-113444107D02*
G01*
X113788122Y-112785105D01*
X114019189Y-113442809D01*
X114042287Y-113488224D01*
X114077160Y-113519959D01*
X114125689Y-113530886D01*
X114157165Y-113524108D01*
X114199581Y-113495979D01*
X114215348Y-113470442D01*
X114221757Y-113421068D01*
X114210562Y-113374455D01*
X113940239Y-112631750D01*
X113917713Y-112587655D01*
X113878649Y-112557307D01*
X113873338Y-112555772D01*
X113823341Y-112553486D01*
X113772637Y-112566173D01*
X113713422Y-112587725D01*
X113666509Y-112607724D01*
X113635934Y-112627625D01*
X113611694Y-112670846D01*
X113610741Y-112678381D01*
X113610352Y-112728861D01*
X113613189Y-112770800D01*
X113658084Y-113299768D01*
X113352462Y-112865697D01*
X113322134Y-112824517D01*
X113295161Y-112793243D01*
X113250594Y-112771085D01*
X113243237Y-112770555D01*
X113193023Y-112778517D01*
X113158230Y-112789798D01*
X113098786Y-112811434D01*
X113054701Y-112832505D01*
X113017087Y-112865807D01*
X113015418Y-112868029D01*
X113001564Y-112917737D01*
X113012777Y-112969319D01*
X113283099Y-113712024D01*
X113306040Y-113757008D01*
X113340736Y-113788255D01*
X113389462Y-113798888D01*
X113421346Y-113791925D01*
X113462875Y-113763814D01*
X113478360Y-113737904D01*
X113484593Y-113688046D01*
X113473407Y-113641458D01*
X113227651Y-112989100D01*
X113592946Y-113542846D01*
X113621721Y-113584433D01*
X113649498Y-113621812D01*
X113688461Y-113653343D01*
X113705434Y-113661234D01*
X113754714Y-113666751D01*
X113788567Y-113658267D01*
X113831317Y-113633577D01*
X113843478Y-113620607D01*
X113865798Y-113575996D01*
X113867668Y-113567096D01*
X113870540Y-113517105D01*
X113869904Y-113507541D01*
X113865547Y-113458311D01*
X113864231Y-113444107D01*
G37*
G36*
X112810457Y-113234419D02*
G01*
X112858005Y-113245922D01*
X112904753Y-113268814D01*
X112914070Y-113275397D01*
X112949872Y-113309756D01*
X112974202Y-113353222D01*
X112978221Y-113367816D01*
X112970465Y-113417222D01*
X112962586Y-113429610D01*
X112921857Y-113459346D01*
X112919611Y-113460150D01*
X112869586Y-113463556D01*
X112857390Y-113456060D01*
X112816511Y-113426992D01*
X112788562Y-113409520D01*
X112741046Y-113393898D01*
X112736103Y-113393305D01*
X112685664Y-113397562D01*
X112636924Y-113412041D01*
X112627871Y-113415467D01*
X112583716Y-113437825D01*
X112550157Y-113477151D01*
X112546180Y-113527257D01*
X112556885Y-113576331D01*
X112563733Y-113575807D01*
X112614197Y-113571363D01*
X112663074Y-113566012D01*
X112686476Y-113563077D01*
X112735043Y-113556428D01*
X112785768Y-113548906D01*
X112825145Y-113542793D01*
X112875179Y-113535337D01*
X112880709Y-113534614D01*
X112933626Y-113532492D01*
X112982209Y-113539664D01*
X113030646Y-113558287D01*
X113068439Y-113584169D01*
X113101102Y-113621510D01*
X113124434Y-113668145D01*
X113128973Y-113682011D01*
X113137080Y-113731134D01*
X113133085Y-113781180D01*
X113128638Y-113798910D01*
X113108081Y-113845766D01*
X113078298Y-113885594D01*
X113052014Y-113910238D01*
X113010436Y-113937798D01*
X112965762Y-113957744D01*
X112919090Y-113971888D01*
X112868952Y-113980443D01*
X112820076Y-113981659D01*
X112775645Y-113977402D01*
X112725786Y-113967919D01*
X112674895Y-113953406D01*
X112664375Y-113996203D01*
X112646667Y-114042955D01*
X112636887Y-114060046D01*
X112598541Y-114091401D01*
X112576455Y-114096775D01*
X112526883Y-114090191D01*
X112512081Y-114083189D01*
X112479147Y-114045445D01*
X112473818Y-114017949D01*
X112470027Y-113968970D01*
X112469275Y-113957844D01*
X112462426Y-113908526D01*
X112448981Y-113860447D01*
X112431057Y-113812894D01*
X112412895Y-113764156D01*
X112408787Y-113753037D01*
X112391540Y-113706079D01*
X112387608Y-113695302D01*
X112599927Y-113695302D01*
X112605106Y-113709532D01*
X112617299Y-113740521D01*
X112640503Y-113786630D01*
X112673919Y-113827181D01*
X112707841Y-113847627D01*
X112756249Y-113859855D01*
X112806606Y-113859851D01*
X112857054Y-113847598D01*
X112887832Y-113832338D01*
X112922144Y-113795056D01*
X112930695Y-113772607D01*
X112927673Y-113723125D01*
X112921272Y-113709093D01*
X112884006Y-113677419D01*
X112872393Y-113673765D01*
X112822821Y-113669278D01*
X112812194Y-113670399D01*
X112761914Y-113676841D01*
X112712960Y-113683792D01*
X112703166Y-113685170D01*
X112652042Y-113691594D01*
X112599927Y-113695302D01*
X112387608Y-113695302D01*
X112374239Y-113658663D01*
X112367782Y-113640146D01*
X112352886Y-113587546D01*
X112344700Y-113539370D01*
X112343805Y-113486498D01*
X112351205Y-113447478D01*
X112374013Y-113400079D01*
X112407914Y-113361277D01*
X112440664Y-113335256D01*
X112486428Y-113307552D01*
X112535036Y-113284320D01*
X112583691Y-113265069D01*
X112616047Y-113254117D01*
X112665471Y-113240880D01*
X112717620Y-113232294D01*
X112771276Y-113230583D01*
X112810457Y-113234419D01*
G37*
G36*
X112093440Y-113974778D02*
G01*
X112147739Y-114123962D01*
X112171079Y-114169417D01*
X112206627Y-114200777D01*
X112255497Y-114211581D01*
X112286403Y-114205010D01*
X112328129Y-114176827D01*
X112343647Y-114150906D01*
X112350012Y-114101411D01*
X112339111Y-114055607D01*
X112159760Y-113562842D01*
X112137333Y-113515100D01*
X112101880Y-113476303D01*
X112053754Y-113462995D01*
X112020465Y-113470067D01*
X111978752Y-113495776D01*
X111962533Y-113524422D01*
X111957826Y-113574123D01*
X111961823Y-113591739D01*
X111919697Y-113565293D01*
X111885458Y-113551175D01*
X111833832Y-113545020D01*
X111785847Y-113555492D01*
X111782231Y-113556777D01*
X111737737Y-113578291D01*
X111697496Y-113608895D01*
X111680357Y-113626086D01*
X111653189Y-113668603D01*
X111652375Y-113720425D01*
X111653426Y-113723480D01*
X111683670Y-113763595D01*
X111698784Y-113771691D01*
X111747332Y-113778274D01*
X111759988Y-113774886D01*
X111801582Y-113747063D01*
X111803612Y-113745493D01*
X111846152Y-113717813D01*
X111863762Y-113710084D01*
X111912215Y-113703728D01*
X111929534Y-113707978D01*
X111970981Y-113735720D01*
X111986556Y-113753243D01*
X112014837Y-113795105D01*
X112039021Y-113840973D01*
X112060151Y-113888854D01*
X112079075Y-113936292D01*
X112093440Y-113974778D01*
G37*
G36*
X111385188Y-113823450D02*
G01*
X111571390Y-114335035D01*
X111594430Y-114379667D01*
X111629861Y-114410703D01*
X111678730Y-114421507D01*
X111709637Y-114414936D01*
X111751677Y-114386334D01*
X111766859Y-114360060D01*
X111772809Y-114310579D01*
X111762115Y-114265617D01*
X111577835Y-113759310D01*
X111555323Y-113715347D01*
X111521013Y-113684602D01*
X111472968Y-113673945D01*
X111442322Y-113680494D01*
X111399759Y-113708778D01*
X111383764Y-113734557D01*
X111376127Y-113784531D01*
X111385188Y-113823450D01*
G37*
G36*
X111413524Y-113607801D02*
G01*
X111456855Y-113580724D01*
X111473023Y-113559894D01*
X111484096Y-113512229D01*
X111477759Y-113484354D01*
X111449079Y-113444308D01*
X111425868Y-113431763D01*
X111375701Y-113425268D01*
X111349369Y-113431535D01*
X111306542Y-113459162D01*
X111292144Y-113477835D01*
X111280552Y-113525332D01*
X111287033Y-113553772D01*
X111314383Y-113594603D01*
X111338904Y-113608449D01*
X111387518Y-113614134D01*
X111413524Y-113607801D01*
G37*
G36*
X111042877Y-113941283D02*
G01*
X111043107Y-113941200D01*
X110999096Y-113919208D01*
X110949715Y-113905092D01*
X110925113Y-113901232D01*
X110873876Y-113900082D01*
X110825350Y-113907623D01*
X110784537Y-113919908D01*
X110738382Y-113940792D01*
X110695046Y-113970338D01*
X110667349Y-113997130D01*
X110638440Y-114037441D01*
X110619171Y-114085882D01*
X110613985Y-114114022D01*
X110612409Y-114164589D01*
X110616972Y-114195069D01*
X110629951Y-114243545D01*
X110646028Y-114291309D01*
X110647363Y-114294992D01*
X110768072Y-114626639D01*
X110790948Y-114671445D01*
X110825792Y-114703100D01*
X110873945Y-114714388D01*
X110904734Y-114707897D01*
X110945876Y-114680827D01*
X110963020Y-114652373D01*
X110969035Y-114602494D01*
X110958255Y-114557158D01*
X110850076Y-114259938D01*
X110834129Y-114209221D01*
X110824857Y-114157233D01*
X110825349Y-114121305D01*
X110847346Y-114075871D01*
X110891716Y-114047440D01*
X110899968Y-114044242D01*
X110948100Y-114035379D01*
X110991532Y-114041585D01*
X111037656Y-114063840D01*
X111072763Y-114096233D01*
X111098401Y-114140312D01*
X111119702Y-114189045D01*
X111138536Y-114238381D01*
X111219900Y-114461927D01*
X111243130Y-114507236D01*
X111278476Y-114538596D01*
X111327328Y-114549407D01*
X111358481Y-114542746D01*
X111400109Y-114514294D01*
X111415474Y-114487953D01*
X111421795Y-114438337D01*
X111411189Y-114393343D01*
X111224988Y-113881758D01*
X111202000Y-113837167D01*
X111171797Y-113809887D01*
X111121654Y-113800228D01*
X111096445Y-113806382D01*
X111055032Y-113834711D01*
X111035076Y-113879610D01*
X111034826Y-113881313D01*
X111039553Y-113931226D01*
X111042877Y-113941283D01*
G37*
G36*
X110303255Y-114146966D02*
G01*
X110350803Y-114158469D01*
X110397550Y-114181361D01*
X110406867Y-114187944D01*
X110442670Y-114222303D01*
X110467000Y-114265769D01*
X110471018Y-114280363D01*
X110463263Y-114329769D01*
X110455384Y-114342157D01*
X110414655Y-114371893D01*
X110412408Y-114372697D01*
X110362384Y-114376103D01*
X110350188Y-114368607D01*
X110309308Y-114339539D01*
X110281360Y-114322067D01*
X110233843Y-114306445D01*
X110228900Y-114305852D01*
X110178462Y-114310109D01*
X110129722Y-114324588D01*
X110120669Y-114328014D01*
X110076514Y-114350372D01*
X110042955Y-114389698D01*
X110038978Y-114439804D01*
X110049683Y-114488878D01*
X110056531Y-114488354D01*
X110106995Y-114483910D01*
X110155872Y-114478559D01*
X110179274Y-114475624D01*
X110227841Y-114468975D01*
X110278565Y-114461453D01*
X110317943Y-114455340D01*
X110367977Y-114447884D01*
X110373507Y-114447161D01*
X110426424Y-114445039D01*
X110475007Y-114452211D01*
X110523443Y-114470834D01*
X110561236Y-114496716D01*
X110593900Y-114534057D01*
X110617232Y-114580692D01*
X110621771Y-114594558D01*
X110629878Y-114643681D01*
X110625883Y-114693727D01*
X110621436Y-114711457D01*
X110600879Y-114758313D01*
X110571096Y-114798141D01*
X110544812Y-114822785D01*
X110503234Y-114850345D01*
X110458560Y-114870291D01*
X110411887Y-114884435D01*
X110361750Y-114892990D01*
X110312873Y-114894205D01*
X110268443Y-114889949D01*
X110218584Y-114880466D01*
X110167693Y-114865953D01*
X110157172Y-114908750D01*
X110139465Y-114955501D01*
X110129685Y-114972593D01*
X110091339Y-115003948D01*
X110069253Y-115009322D01*
X110019681Y-115002738D01*
X110004878Y-114995736D01*
X109971945Y-114957992D01*
X109966616Y-114930496D01*
X109962824Y-114881517D01*
X109962073Y-114870391D01*
X109955224Y-114821073D01*
X109941779Y-114772994D01*
X109923855Y-114725441D01*
X109905693Y-114676703D01*
X109901585Y-114665584D01*
X109884337Y-114618626D01*
X109880405Y-114607849D01*
X110092725Y-114607849D01*
X110097904Y-114622079D01*
X110110097Y-114653068D01*
X110133301Y-114699177D01*
X110166717Y-114739728D01*
X110200639Y-114760174D01*
X110249047Y-114772402D01*
X110299404Y-114772398D01*
X110349852Y-114760144D01*
X110380630Y-114744885D01*
X110414942Y-114707603D01*
X110423493Y-114685154D01*
X110420471Y-114635672D01*
X110414070Y-114621640D01*
X110376804Y-114589966D01*
X110365191Y-114586312D01*
X110315619Y-114581825D01*
X110304992Y-114582946D01*
X110254712Y-114589388D01*
X110205758Y-114596339D01*
X110195964Y-114597717D01*
X110144840Y-114604141D01*
X110092725Y-114607849D01*
X109880405Y-114607849D01*
X109867037Y-114571210D01*
X109860580Y-114552693D01*
X109845684Y-114500093D01*
X109837498Y-114451917D01*
X109836603Y-114399045D01*
X109844003Y-114360025D01*
X109866811Y-114312626D01*
X109900712Y-114273824D01*
X109933461Y-114247803D01*
X109979225Y-114220099D01*
X110027834Y-114196867D01*
X110076488Y-114177616D01*
X110108845Y-114166664D01*
X110158269Y-114153427D01*
X110210418Y-114144841D01*
X110264073Y-114143130D01*
X110303255Y-114146966D01*
G37*
G36*
X108504412Y-115120708D02*
G01*
X108570321Y-115301794D01*
X108591132Y-115346797D01*
X108599949Y-115359629D01*
X108639439Y-115389421D01*
X108642756Y-115390834D01*
X108690434Y-115404701D01*
X108705947Y-115407342D01*
X108756691Y-115413353D01*
X108805522Y-115416520D01*
X108858171Y-115416681D01*
X108897446Y-115414317D01*
X108947512Y-115407780D01*
X108998601Y-115397046D01*
X109050712Y-115382115D01*
X109080104Y-115372008D01*
X109126884Y-115353128D01*
X109176629Y-115328366D01*
X109222408Y-115300206D01*
X109264222Y-115268649D01*
X109269170Y-115264466D01*
X109306099Y-115229354D01*
X109338302Y-115191609D01*
X109368879Y-115145998D01*
X109388525Y-115108219D01*
X109406362Y-115062740D01*
X109419188Y-115015185D01*
X109427002Y-114965556D01*
X109429805Y-114913851D01*
X109427365Y-114860595D01*
X109419679Y-114806227D01*
X109408651Y-114757743D01*
X109393606Y-114708407D01*
X109388570Y-114694154D01*
X109369401Y-114646443D01*
X109347711Y-114601715D01*
X109319835Y-114554249D01*
X109288666Y-114510678D01*
X109280359Y-114500393D01*
X109245276Y-114462251D01*
X109207538Y-114429039D01*
X109167142Y-114400758D01*
X109124091Y-114377407D01*
X109078528Y-114359032D01*
X109030915Y-114345821D01*
X108981250Y-114337776D01*
X108929534Y-114334896D01*
X108875990Y-114337213D01*
X108820924Y-114344991D01*
X108771493Y-114356275D01*
X108720897Y-114371739D01*
X108706227Y-114376925D01*
X108659878Y-114395663D01*
X108612428Y-114419501D01*
X108569947Y-114446260D01*
X108544388Y-114465721D01*
X108506816Y-114499488D01*
X108472973Y-114537544D01*
X108446971Y-114576554D01*
X108424750Y-114622542D01*
X108410054Y-114670818D01*
X108407127Y-114687745D01*
X108404653Y-114737185D01*
X108412516Y-114777535D01*
X108440285Y-114818680D01*
X108466161Y-114834945D01*
X108515479Y-114844022D01*
X108545582Y-114837488D01*
X108584637Y-114810537D01*
X108607766Y-114766251D01*
X108619657Y-114715459D01*
X108633748Y-114667631D01*
X108636323Y-114660467D01*
X108660789Y-114615661D01*
X108682919Y-114589964D01*
X108723621Y-114558970D01*
X108767695Y-114537725D01*
X108779266Y-114533323D01*
X108827023Y-114519523D01*
X108876987Y-114513303D01*
X108903128Y-114513714D01*
X108953284Y-114522174D01*
X109000664Y-114540500D01*
X109013691Y-114547548D01*
X109054133Y-114576052D01*
X109091519Y-114613132D01*
X109107744Y-114633138D01*
X109135001Y-114673874D01*
X109158906Y-114719577D01*
X109177729Y-114765436D01*
X109194071Y-114816000D01*
X109205399Y-114864124D01*
X109212377Y-114918652D01*
X109212137Y-114969667D01*
X109202733Y-115024745D01*
X109195695Y-115046885D01*
X109172781Y-115094217D01*
X109141166Y-115135138D01*
X109100851Y-115169650D01*
X109051834Y-115197751D01*
X109019918Y-115210932D01*
X108971215Y-115225916D01*
X108922881Y-115235285D01*
X108890863Y-115238410D01*
X108838562Y-115239290D01*
X108789569Y-115236252D01*
X108760671Y-115232772D01*
X108709130Y-115091163D01*
X108850280Y-115039788D01*
X108895322Y-115018940D01*
X108929373Y-114990727D01*
X108943007Y-114943772D01*
X108936884Y-114917815D01*
X108907637Y-114878038D01*
X108890336Y-114868478D01*
X108840090Y-114863079D01*
X108814652Y-114869774D01*
X108597073Y-114948966D01*
X108551509Y-114969002D01*
X108529453Y-114982415D01*
X108498697Y-115020496D01*
X108494099Y-115034530D01*
X108494033Y-115084060D01*
X108504412Y-115120708D01*
G37*
G36*
X108121921Y-114939658D02*
G01*
X108170457Y-114950846D01*
X108216318Y-114969027D01*
X108255169Y-114991346D01*
X108294608Y-115022139D01*
X108330592Y-115059473D01*
X108336731Y-115066916D01*
X108365086Y-115106813D01*
X108389534Y-115151177D01*
X108410074Y-115200010D01*
X108411893Y-115205083D01*
X108426891Y-115255243D01*
X108436080Y-115304369D01*
X108439480Y-115357214D01*
X108436350Y-115403859D01*
X108426245Y-115453138D01*
X108409161Y-115500288D01*
X108387917Y-115540433D01*
X108358801Y-115580881D01*
X108323661Y-115617440D01*
X108320149Y-115620557D01*
X108278230Y-115652190D01*
X108234904Y-115676716D01*
X108186609Y-115697213D01*
X108181480Y-115699051D01*
X108130920Y-115713981D01*
X108081683Y-115722642D01*
X108029050Y-115724929D01*
X107982906Y-115720667D01*
X107934406Y-115709293D01*
X107888271Y-115690916D01*
X107848811Y-115668433D01*
X107808986Y-115637590D01*
X107772912Y-115600345D01*
X107766764Y-115592879D01*
X107738437Y-115553059D01*
X107714131Y-115509084D01*
X107693847Y-115460955D01*
X107692028Y-115455882D01*
X107677047Y-115405686D01*
X107667904Y-115356462D01*
X107664587Y-115303438D01*
X107665545Y-115288054D01*
X107862545Y-115288054D01*
X107870259Y-115340474D01*
X107885490Y-115391203D01*
X107898047Y-115422233D01*
X107921071Y-115465507D01*
X107951289Y-115504815D01*
X107990223Y-115536845D01*
X108032753Y-115555906D01*
X108081776Y-115561282D01*
X108133146Y-115550325D01*
X108175630Y-115528351D01*
X108211526Y-115492166D01*
X108213230Y-115489668D01*
X108233756Y-115445037D01*
X108241484Y-115395230D01*
X108241075Y-115369619D01*
X108233532Y-115319377D01*
X108218744Y-115269909D01*
X108207176Y-115241202D01*
X108184197Y-115197651D01*
X108154816Y-115158539D01*
X108152369Y-115155883D01*
X108113869Y-115123343D01*
X108069098Y-115103705D01*
X108021515Y-115099191D01*
X107972757Y-115109659D01*
X107930063Y-115131570D01*
X107894819Y-115166123D01*
X107871853Y-115211625D01*
X107865672Y-115235582D01*
X107862545Y-115288054D01*
X107665545Y-115288054D01*
X107667502Y-115256648D01*
X107677446Y-115207417D01*
X107694447Y-115160532D01*
X107715591Y-115120448D01*
X107745032Y-115079969D01*
X107780948Y-115043275D01*
X107784526Y-115040118D01*
X107827060Y-115008119D01*
X107870774Y-114983375D01*
X107919294Y-114962771D01*
X107924296Y-114960979D01*
X107973888Y-114946402D01*
X108022695Y-114937897D01*
X108075476Y-114935556D01*
X108121921Y-114939658D01*
G37*
G36*
X107665680Y-115756337D02*
G01*
X107386001Y-114987927D01*
X107363406Y-114943263D01*
X107329367Y-114911591D01*
X107281268Y-114900283D01*
X107249736Y-114907045D01*
X107208093Y-114933930D01*
X107190657Y-114961817D01*
X107184236Y-115011159D01*
X107195276Y-115057345D01*
X107474954Y-115825756D01*
X107498014Y-115870753D01*
X107533133Y-115902049D01*
X107582003Y-115912630D01*
X107613285Y-115905886D01*
X107655325Y-115877284D01*
X107670507Y-115851010D01*
X107676430Y-115801456D01*
X107665680Y-115756337D01*
G37*
G36*
X106932632Y-115444048D02*
G01*
X107118834Y-115955633D01*
X107141874Y-116000265D01*
X107177304Y-116031301D01*
X107226174Y-116042104D01*
X107257081Y-116035534D01*
X107299121Y-116006932D01*
X107314303Y-115980657D01*
X107320252Y-115931177D01*
X107309559Y-115886214D01*
X107125279Y-115379908D01*
X107102767Y-115335945D01*
X107068456Y-115305200D01*
X107020412Y-115294543D01*
X106989765Y-115301092D01*
X106947203Y-115329376D01*
X106931208Y-115355155D01*
X106923571Y-115405129D01*
X106932632Y-115444048D01*
G37*
G36*
X106960968Y-115228399D02*
G01*
X107004299Y-115201322D01*
X107020467Y-115180492D01*
X107031540Y-115132827D01*
X107025203Y-115104952D01*
X106996523Y-115064906D01*
X106973311Y-115052361D01*
X106923145Y-115045866D01*
X106896813Y-115052133D01*
X106853986Y-115079760D01*
X106839588Y-115098433D01*
X106827995Y-115145930D01*
X106834477Y-115174370D01*
X106861827Y-115215201D01*
X106886348Y-115229047D01*
X106934962Y-115234732D01*
X106960968Y-115228399D01*
G37*
G36*
X106266217Y-116139640D02*
G01*
X106290850Y-116182211D01*
X106313939Y-116206484D01*
X106353496Y-116235363D01*
X106399382Y-116257108D01*
X106402744Y-116258375D01*
X106453202Y-116271821D01*
X106505654Y-116276924D01*
X106527263Y-116276993D01*
X106576449Y-116272853D01*
X106627488Y-116262326D01*
X106675494Y-116247214D01*
X106724914Y-116226523D01*
X106769033Y-116202356D01*
X106814978Y-116168765D01*
X106853289Y-116130167D01*
X106883966Y-116086563D01*
X106900176Y-116054712D01*
X106917809Y-116004140D01*
X106927166Y-115951318D01*
X106928247Y-115896244D01*
X106921052Y-115838919D01*
X106908735Y-115789429D01*
X106898586Y-115758984D01*
X106879335Y-115712447D01*
X106853417Y-115664069D01*
X106823323Y-115620818D01*
X106789051Y-115582693D01*
X106784473Y-115578288D01*
X106745977Y-115546700D01*
X106699086Y-115519031D01*
X106648401Y-115499692D01*
X106612503Y-115491427D01*
X106562473Y-115486439D01*
X106510671Y-115488724D01*
X106457098Y-115498281D01*
X106408768Y-115512609D01*
X106401753Y-115515111D01*
X106356150Y-115534442D01*
X106311436Y-115559934D01*
X106281348Y-115582067D01*
X106243454Y-115616717D01*
X106210888Y-115656117D01*
X106201329Y-115670713D01*
X106178582Y-115714363D01*
X106163899Y-115762831D01*
X106161135Y-115811881D01*
X106167490Y-115840539D01*
X106196993Y-115879909D01*
X106214727Y-115889626D01*
X106265252Y-115896129D01*
X106285613Y-115890857D01*
X106321496Y-115863761D01*
X106340206Y-115818232D01*
X106341952Y-115812130D01*
X106356349Y-115764225D01*
X106379494Y-115718308D01*
X106381049Y-115716025D01*
X106417531Y-115680889D01*
X106457740Y-115661080D01*
X106508189Y-115650673D01*
X106556970Y-115656782D01*
X106599871Y-115676668D01*
X106639162Y-115709304D01*
X106669622Y-115749056D01*
X106692797Y-115792645D01*
X106705418Y-115823833D01*
X106719580Y-115872027D01*
X106726313Y-115918376D01*
X106724566Y-115969003D01*
X106717343Y-116000136D01*
X106694375Y-116045440D01*
X106679571Y-116062748D01*
X106638124Y-116092844D01*
X106615605Y-116102665D01*
X106566403Y-116113880D01*
X106520245Y-116110601D01*
X106472199Y-116091225D01*
X106429333Y-116060777D01*
X106389632Y-116032171D01*
X106374421Y-116024881D01*
X106324891Y-116022439D01*
X106317475Y-116024814D01*
X106277831Y-116055087D01*
X106268577Y-116073282D01*
X106261878Y-116121957D01*
X106266217Y-116139640D01*
G37*
D12*
%TO.C,R4*%
X144787500Y-111200000D02*
X144787500Y-109600000D01*
X145612500Y-109600000D02*
X145612500Y-111200000D01*
%TO.C,IC1*%
X114500000Y-80500000D02*
X114500000Y-87000000D01*
X114500000Y-87000000D02*
X118900000Y-87000000D01*
X118900000Y-80500000D02*
X114500000Y-80500000D01*
X118900000Y-87000000D02*
X118900000Y-80500000D01*
X119500000Y-80450000D02*
X119700000Y-80450000D01*
X119600000Y-80550000D02*
X119500000Y-80450000D01*
X119700000Y-80450000D02*
X119600000Y-80550000D01*
D13*
X118600000Y-80850000D02*
G75*
G02*
X118400000Y-80850000I-100000J0D01*
G01*
X118400000Y-80850000D02*
G75*
G02*
X118600000Y-80850000I100000J0D01*
G01*
D12*
%TO.C,C2*%
X140875000Y-110412500D02*
X142475000Y-110412500D01*
X142475000Y-111237500D02*
X140875000Y-111237500D01*
%TO.C,C5*%
X107037500Y-102660000D02*
X107037500Y-101060000D01*
X107862500Y-101060000D02*
X107862500Y-102660000D01*
%TO.C,R11*%
X107837500Y-88000000D02*
X107837500Y-86400000D01*
X108662500Y-86400000D02*
X108662500Y-88000000D01*
%TO.C,C10*%
X104400000Y-111537500D02*
X106000000Y-111537500D01*
X106000000Y-112362500D02*
X104400000Y-112362500D01*
%TO.C,R2*%
X128337500Y-104000000D02*
X128337500Y-102400000D01*
X129162500Y-102400000D02*
X129162500Y-104000000D01*
%TO.C,R10*%
X102350000Y-109337500D02*
X103950000Y-109337500D01*
X103950000Y-110162500D02*
X102350000Y-110162500D01*
%TO.C,R7*%
X121580000Y-83957500D02*
X123180000Y-83957500D01*
X123180000Y-84782500D02*
X121580000Y-84782500D01*
%TO.C,R8*%
X109850000Y-80887500D02*
X111450000Y-80887500D01*
X111450000Y-81712500D02*
X109850000Y-81712500D01*
%TO.C,U1*%
X126175000Y-83950000D02*
X126275000Y-83850000D01*
X126275000Y-83850000D02*
X126375000Y-83950000D01*
X126375000Y-83950000D02*
X126175000Y-83950000D01*
X126225000Y-83700000D02*
X128325000Y-83700000D01*
X128325000Y-81600000D01*
X126225000Y-81600000D01*
X126225000Y-83700000D01*
%TO.C,C8*%
X123100000Y-82500000D02*
X123100000Y-79300000D01*
X124700000Y-79300000D02*
X124700000Y-82500000D01*
%TO.C,C4*%
X146787500Y-92400000D02*
X146787500Y-90800000D01*
X147612500Y-90800000D02*
X147612500Y-92400000D01*
%TO.C,R3*%
X142400000Y-101187500D02*
X144000000Y-101187500D01*
X144000000Y-102012500D02*
X142400000Y-102012500D01*
%TO.C,C7*%
X121437500Y-82450000D02*
X121437500Y-80850000D01*
X122262500Y-80850000D02*
X122262500Y-82450000D01*
%TO.C,D1*%
X138950000Y-76640000D02*
X138950000Y-78440000D01*
X138950000Y-77040000D02*
X139950000Y-77040000D01*
X138950000Y-78440000D02*
X139950000Y-78440000D01*
X139950000Y-76640000D02*
X138950000Y-76640000D01*
X139950000Y-78440000D02*
X139950000Y-76640000D01*
X139900000Y-76440000D02*
G75*
G02*
X139800000Y-76440000I-50000J0D01*
G01*
X139800000Y-76440000D02*
G75*
G02*
X139900000Y-76440000I50000J0D01*
G01*
%TO.C,Q2*%
X140940000Y-85625000D02*
X140940000Y-86925000D01*
X140940000Y-86925000D02*
X143860000Y-86925000D01*
X143860000Y-85625000D02*
X140940000Y-85625000D01*
X143860000Y-86925000D02*
X143860000Y-85625000D01*
%TO.C,LED13*%
X144762000Y-103187500D02*
X146362000Y-103187500D01*
X145288000Y-103346000D02*
X145288000Y-103854000D01*
X145288000Y-103854000D02*
X145796000Y-103600000D01*
X145796000Y-103346000D02*
X145796000Y-103854000D01*
X145796000Y-103600000D02*
X145288000Y-103346000D01*
X146362000Y-104012500D02*
X144762000Y-104012500D01*
D13*
X147224000Y-104362000D02*
G75*
G02*
X147024000Y-104362000I-100000J0D01*
G01*
X147024000Y-104362000D02*
G75*
G02*
X147224000Y-104362000I100000J0D01*
G01*
D12*
%TO.C,CONN2*%
X126040000Y-105465000D02*
X126040000Y-112815000D01*
X126040000Y-112815000D02*
X134980000Y-112815000D01*
X134980000Y-105465000D02*
X126040000Y-105465000D01*
X134980000Y-112815000D02*
X134980000Y-105465000D01*
%TO.C,R6*%
X104050000Y-84287500D02*
X105650000Y-84287500D01*
X105650000Y-85112500D02*
X104050000Y-85112500D01*
%TO.C,R9*%
X147237500Y-110775000D02*
X147237500Y-109175000D01*
X148062500Y-109175000D02*
X148062500Y-110775000D01*
%TO.C,C6*%
X136800000Y-111387500D02*
X138400000Y-111387500D01*
X138400000Y-112212500D02*
X136800000Y-112212500D01*
D14*
%TO.C,CONN1*%
X109050000Y-102850000D02*
X109050000Y-110450000D01*
X109050000Y-110450000D02*
X116950000Y-110450000D01*
X116950000Y-102850000D02*
X109050000Y-102850000D01*
X116950000Y-110450000D02*
X116950000Y-102850000D01*
D12*
%TO.C,IC2*%
X140100000Y-104375000D02*
X140100000Y-107375000D01*
X140100000Y-106975000D02*
X143100000Y-106975000D01*
X140100000Y-107375000D02*
X143100000Y-107375000D01*
X142900000Y-108075000D02*
X143000000Y-108175000D01*
X143000000Y-107975000D02*
X142900000Y-108075000D01*
X143000000Y-108175000D02*
X143000000Y-107975000D01*
X143100000Y-104375000D02*
X140100000Y-104375000D01*
X143100000Y-107375000D02*
X143100000Y-104375000D01*
%TO.C,R5*%
X145112500Y-107500000D02*
X145112500Y-105900000D01*
X145937500Y-105900000D02*
X145937500Y-107500000D01*
%TO.C,C9*%
X141800000Y-112337500D02*
X143400000Y-112337500D01*
X143400000Y-113162500D02*
X141800000Y-113162500D01*
%TO.C,C13*%
X136517500Y-78460000D02*
X136517500Y-76860000D01*
X137342500Y-76860000D02*
X137342500Y-78460000D01*
%TO.C,C11*%
X136812500Y-85575000D02*
X136812500Y-83975000D01*
X137637500Y-83975000D02*
X137637500Y-85575000D01*
%TO.C,R12*%
X133500000Y-85187500D02*
X135100000Y-85187500D01*
X135100000Y-86012500D02*
X133500000Y-86012500D01*
%TO.C,C3*%
X136900000Y-106200000D02*
X136900000Y-103000000D01*
X138500000Y-103000000D02*
X138500000Y-106200000D01*
%TO.C,Q1*%
X104500000Y-85740000D02*
X104500000Y-88660000D01*
X104500000Y-88660000D02*
X105800000Y-88660000D01*
X105800000Y-85740000D02*
X104500000Y-85740000D01*
X105800000Y-88660000D02*
X105800000Y-85740000D01*
%TO.C,SPK1*%
X141150000Y-77200000D02*
X142200000Y-76050000D01*
X141150000Y-83550000D02*
X141150000Y-77200000D01*
X141525000Y-79800000D02*
X142275000Y-80550000D01*
X142200000Y-76050000D02*
X148650000Y-76050000D01*
X142275000Y-79050000D02*
X141525000Y-79800000D01*
X142275000Y-80550000D02*
X142275000Y-79050000D01*
X148650000Y-76050000D02*
X148650000Y-83550000D01*
X148650000Y-83550000D02*
X141150000Y-83550000D01*
%TO.C,R14*%
X131825000Y-79037500D02*
X133425000Y-79037500D01*
X133425000Y-79862500D02*
X131825000Y-79862500D01*
%TO.C,R13*%
X138817500Y-85680000D02*
X138817500Y-84080000D01*
X139642500Y-84080000D02*
X139642500Y-85680000D01*
%TO.C,R1*%
X131500000Y-102837500D02*
X133100000Y-102837500D01*
X133100000Y-103662500D02*
X131500000Y-103662500D01*
%TO.C,C1*%
X104150000Y-82637500D02*
X105750000Y-82637500D01*
X105750000Y-83462500D02*
X104150000Y-83462500D01*
%TO.C,C12*%
X145462500Y-86825000D02*
X145462500Y-85225000D01*
X146287500Y-85225000D02*
X146287500Y-86825000D01*
%TD*%
%LPC*%
D15*
%TO.C,R4*%
X145200000Y-111225000D03*
X145200000Y-109575000D03*
%TD*%
D16*
%TO.C,IC1*%
X119575000Y-80825000D03*
X119575000Y-81475000D03*
X119575000Y-82125000D03*
X119575000Y-82775000D03*
X119575000Y-83425000D03*
X119575000Y-84075000D03*
X119575000Y-84725000D03*
X119575000Y-85375000D03*
X119575000Y-86025000D03*
X119575000Y-86675000D03*
X113825000Y-86675000D03*
X113825000Y-86025000D03*
X113825000Y-85375000D03*
X113825000Y-84725000D03*
X113825000Y-84075000D03*
X113825000Y-83425000D03*
X113825000Y-82775000D03*
X113825000Y-82125000D03*
X113825000Y-81475000D03*
X113825000Y-80825000D03*
%TD*%
D17*
%TO.C,C2*%
X142500000Y-110825000D03*
X140850000Y-110825000D03*
%TD*%
D15*
%TO.C,C5*%
X107450000Y-102685000D03*
X107450000Y-101035000D03*
%TD*%
%TO.C,R11*%
X108250000Y-86375000D03*
X108250000Y-88025000D03*
%TD*%
D17*
%TO.C,C10*%
X106025000Y-111950000D03*
X104375000Y-111950000D03*
%TD*%
D15*
%TO.C,R2*%
X128750000Y-104025000D03*
X128750000Y-102375000D03*
%TD*%
D17*
%TO.C,R10*%
X102325000Y-109750000D03*
X103975000Y-109750000D03*
%TD*%
%TO.C,R7*%
X123205000Y-84370000D03*
X121555000Y-84370000D03*
%TD*%
%TO.C,R8*%
X109825000Y-81300000D03*
X111475000Y-81300000D03*
%TD*%
D18*
%TO.C,U1*%
X126300000Y-83300000D03*
X126300000Y-82650000D03*
X126300000Y-82000000D03*
X128250000Y-82000000D03*
X128250000Y-82650000D03*
X128250000Y-83300000D03*
D19*
X127275000Y-82650000D03*
%TD*%
D20*
%TO.C,C8*%
X123900000Y-79437500D03*
X123900000Y-82362500D03*
%TD*%
D15*
%TO.C,C4*%
X147200000Y-92425000D03*
X147200000Y-90775000D03*
%TD*%
D17*
%TO.C,R3*%
X142375000Y-101600000D03*
X144025000Y-101600000D03*
%TD*%
D15*
%TO.C,C7*%
X121850000Y-80825000D03*
X121850000Y-82475000D03*
%TD*%
D21*
%TO.C,D1*%
X139450000Y-78595000D03*
X139450000Y-76485000D03*
%TD*%
D22*
%TO.C,Q2*%
X143350000Y-87375000D03*
X142400000Y-85175000D03*
X141450000Y-87375000D03*
%TD*%
D17*
%TO.C,LED13*%
X144737000Y-103600000D03*
X146387000Y-103600000D03*
%TD*%
D23*
%TO.C,CONN2*%
X133400000Y-106600000D03*
X127620000Y-106600000D03*
D24*
X133860000Y-105530000D03*
X133060000Y-105530000D03*
X131760000Y-105530000D03*
X130760000Y-105530000D03*
X130260000Y-105530000D03*
X129260000Y-105530000D03*
X127960000Y-105530000D03*
X127160000Y-105530000D03*
X127460000Y-105530000D03*
X128260000Y-105530000D03*
X128760000Y-105530000D03*
X129760000Y-105530000D03*
X131260000Y-105530000D03*
X132260000Y-105530000D03*
X132760000Y-105530000D03*
X133560000Y-105530000D03*
D25*
X134835000Y-110300000D03*
D26*
X134835000Y-106120000D03*
D25*
X126185000Y-110300000D03*
D26*
X126185000Y-106120000D03*
%TD*%
D17*
%TO.C,R6*%
X104025000Y-84700000D03*
X105675000Y-84700000D03*
%TD*%
D15*
%TO.C,R9*%
X147650000Y-110800000D03*
X147650000Y-109150000D03*
%TD*%
D27*
%TO.C,TP2*%
X107250000Y-77800000D03*
%TD*%
D17*
%TO.C,C6*%
X136775000Y-111800000D03*
X138425000Y-111800000D03*
%TD*%
D28*
%TO.C,CONN1*%
X112000000Y-110100000D03*
X114000000Y-110100000D03*
D29*
X116350000Y-104350000D03*
X109650000Y-104350000D03*
%TD*%
D30*
%TO.C,IC2*%
X142575000Y-108075000D03*
X141925000Y-108075000D03*
X141275000Y-108075000D03*
X140625000Y-108075000D03*
X140625000Y-103675000D03*
X141275000Y-103675000D03*
X141925000Y-103675000D03*
X142575000Y-103675000D03*
D31*
X141600000Y-105875000D03*
%TD*%
D15*
%TO.C,R5*%
X145525000Y-105875000D03*
X145525000Y-107525000D03*
%TD*%
D27*
%TO.C,TP5*%
X114750000Y-77800000D03*
%TD*%
D17*
%TO.C,C9*%
X141775000Y-112750000D03*
X143425000Y-112750000D03*
%TD*%
D27*
%TO.C,TP3*%
X109750000Y-77800000D03*
%TD*%
D15*
%TO.C,C13*%
X136930000Y-78485000D03*
X136930000Y-76835000D03*
%TD*%
%TO.C,C11*%
X137225000Y-83950000D03*
X137225000Y-85600000D03*
%TD*%
D17*
%TO.C,R12*%
X133475000Y-85600000D03*
X135125000Y-85600000D03*
%TD*%
D20*
%TO.C,C3*%
X137700000Y-106062500D03*
X137700000Y-103137500D03*
%TD*%
D27*
%TO.C,TP1*%
X104750000Y-77800000D03*
%TD*%
D32*
%TO.C,Q1*%
X106250000Y-86250000D03*
X104050000Y-87200000D03*
X106250000Y-88150000D03*
%TD*%
D27*
%TO.C,TP4*%
X112250000Y-77800000D03*
%TD*%
D33*
%TO.C,SPK1*%
X147975000Y-76725000D03*
X147975000Y-82875000D03*
X141825000Y-82875000D03*
X141825000Y-76725000D03*
%TD*%
D17*
%TO.C,R14*%
X133450000Y-79450000D03*
X131800000Y-79450000D03*
%TD*%
D15*
%TO.C,R13*%
X139230000Y-84055000D03*
X139230000Y-85705000D03*
%TD*%
D17*
%TO.C,R1*%
X131475000Y-103250000D03*
X133125000Y-103250000D03*
%TD*%
%TO.C,C1*%
X104125000Y-83050000D03*
X105775000Y-83050000D03*
%TD*%
D15*
%TO.C,C12*%
X145875000Y-86850000D03*
X145875000Y-85200000D03*
%TD*%
%LPD*%
M02*
